<svg xmlns="http://www.w3.org/2000/svg" xmlns:xlink="http://www.w3.org/1999/xlink" width="500" zoomAndPan="magnify" viewBox="0 0 375 374.999991" height="500" preserveAspectRatio="xMidYMid meet" version="1.0"><defs><g/><clipPath id="7bb5654a63"><path d="M 3 157 L 63.664062 157 L 63.664062 186 L 3 186 Z M 3 157 " clip-rule="nonzero"/></clipPath><clipPath id="f229bd6058"><path d="M 3 189 L 63.664062 189 L 63.664062 218 L 3 218 Z M 3 189 " clip-rule="nonzero"/></clipPath><clipPath id="84b8400d80"><path d="M 3 190 L 63.664062 190 L 63.664062 218 L 3 218 Z M 3 190 " clip-rule="nonzero"/></clipPath><clipPath id="0e35a818ed"><path d="M 3 157 L 63.664062 157 L 63.664062 185 L 3 185 Z M 3 157 " clip-rule="nonzero"/></clipPath><clipPath id="f5d93e1879"><path d="M 19.902344 174.25 L 46.152344 174.25 L 46.152344 200.5 L 19.902344 200.5 Z M 19.902344 174.25 " clip-rule="nonzero"/></clipPath></defs><g fill="#ffffff" fill-opacity="1"><g transform="translate(65.656823, 203.558571)"><g><path d="M 21.078125 0 L 13.203125 -13.53125 L 7.96875 -13.53125 L 7.96875 0 L 3.65625 0 L 3.65625 -33.078125 L 14.328125 -33.078125 C 16.828125 -33.078125 18.941406 -32.648438 20.671875 -31.796875 C 22.398438 -30.941406 23.691406 -29.785156 24.546875 -28.328125 C 25.398438 -26.878906 25.828125 -25.222656 25.828125 -23.359375 C 25.828125 -21.078125 25.171875 -19.066406 23.859375 -17.328125 C 22.546875 -15.585938 20.570312 -14.429688 17.9375 -13.859375 L 26.25 0 Z M 7.96875 -17 L 14.328125 -17 C 16.671875 -17 18.425781 -17.570312 19.59375 -18.71875 C 20.769531 -19.875 21.359375 -21.421875 21.359375 -23.359375 C 21.359375 -25.316406 20.78125 -26.832031 19.625 -27.90625 C 18.46875 -28.988281 16.703125 -29.53125 14.328125 -29.53125 L 7.96875 -29.53125 Z M 7.96875 -17 "/></g></g></g><g fill="#ffffff" fill-opacity="1"><g transform="translate(93.563663, 203.558571)"><g><path d="M 27.390625 -14 C 27.390625 -13.175781 27.34375 -12.304688 27.25 -11.390625 L 6.453125 -11.390625 C 6.609375 -8.828125 7.484375 -6.828125 9.078125 -5.390625 C 10.679688 -3.953125 12.625 -3.234375 14.90625 -3.234375 C 16.769531 -3.234375 18.328125 -3.664062 19.578125 -4.53125 C 20.828125 -5.40625 21.707031 -6.566406 22.21875 -8.015625 L 26.875 -8.015625 C 26.175781 -5.515625 24.78125 -3.484375 22.6875 -1.921875 C 20.601562 -0.359375 18.007812 0.421875 14.90625 0.421875 C 12.4375 0.421875 10.226562 -0.128906 8.28125 -1.234375 C 6.332031 -2.335938 4.804688 -3.910156 3.703125 -5.953125 C 2.597656 -7.992188 2.046875 -10.359375 2.046875 -13.046875 C 2.046875 -15.742188 2.582031 -18.101562 3.65625 -20.125 C 4.726562 -22.15625 6.238281 -23.710938 8.1875 -24.796875 C 10.132812 -25.890625 12.375 -26.4375 14.90625 -26.4375 C 17.375 -26.4375 19.554688 -25.898438 21.453125 -24.828125 C 23.347656 -23.753906 24.8125 -22.273438 25.84375 -20.390625 C 26.875 -18.503906 27.390625 -16.375 27.390625 -14 Z M 22.921875 -14.90625 C 22.921875 -16.550781 22.554688 -17.96875 21.828125 -19.15625 C 21.109375 -20.34375 20.125 -21.242188 18.875 -21.859375 C 17.625 -22.472656 16.238281 -22.78125 14.71875 -22.78125 C 12.53125 -22.78125 10.664062 -22.082031 9.125 -20.6875 C 7.59375 -19.300781 6.71875 -17.375 6.5 -14.90625 Z M 22.921875 -14.90625 "/></g></g></g><g fill="#ffffff" fill-opacity="1"><g transform="translate(122.040029, 203.558571)"><g><path d="M 7.96875 -21.21875 C 8.820312 -22.707031 10.09375 -23.945312 11.78125 -24.9375 C 13.476562 -25.9375 15.453125 -26.4375 17.703125 -26.4375 C 20.015625 -26.4375 22.109375 -25.882812 23.984375 -24.78125 C 25.867188 -23.675781 27.347656 -22.117188 28.421875 -20.109375 C 29.503906 -18.097656 30.046875 -15.757812 30.046875 -13.09375 C 30.046875 -10.46875 29.503906 -8.125 28.421875 -6.0625 C 27.347656 -4.007812 25.867188 -2.414062 23.984375 -1.28125 C 22.109375 -0.144531 20.015625 0.421875 17.703125 0.421875 C 15.492188 0.421875 13.539062 -0.0703125 11.84375 -1.0625 C 10.144531 -2.0625 8.851562 -3.304688 7.96875 -4.796875 L 7.96875 12.34375 L 3.65625 12.34375 L 3.65625 -26.015625 L 7.96875 -26.015625 Z M 25.640625 -13.09375 C 25.640625 -15.0625 25.242188 -16.769531 24.453125 -18.21875 C 23.660156 -19.675781 22.585938 -20.785156 21.234375 -21.546875 C 19.890625 -22.304688 18.410156 -22.6875 16.796875 -22.6875 C 15.222656 -22.6875 13.757812 -22.296875 12.40625 -21.515625 C 11.0625 -20.742188 9.984375 -19.625 9.171875 -18.15625 C 8.367188 -16.6875 7.96875 -14.984375 7.96875 -13.046875 C 7.96875 -11.085938 8.367188 -9.375 9.171875 -7.90625 C 9.984375 -6.4375 11.0625 -5.3125 12.40625 -4.53125 C 13.757812 -3.757812 15.222656 -3.375 16.796875 -3.375 C 18.410156 -3.375 19.890625 -3.757812 21.234375 -4.53125 C 22.585938 -5.3125 23.660156 -6.4375 24.453125 -7.90625 C 25.242188 -9.375 25.640625 -11.101562 25.640625 -13.09375 Z M 25.640625 -13.09375 "/></g></g></g><g fill="#ffffff" fill-opacity="1"><g transform="translate(153.174205, 203.558571)"><g><path d="M 15 0.421875 C 12.5625 0.421875 10.351562 -0.128906 8.375 -1.234375 C 6.394531 -2.335938 4.84375 -3.910156 3.71875 -5.953125 C 2.601562 -7.992188 2.046875 -10.359375 2.046875 -13.046875 C 2.046875 -15.710938 2.617188 -18.066406 3.765625 -20.109375 C 4.921875 -22.148438 6.492188 -23.710938 8.484375 -24.796875 C 10.484375 -25.890625 12.71875 -26.4375 15.1875 -26.4375 C 17.65625 -26.4375 19.882812 -25.890625 21.875 -24.796875 C 23.875 -23.710938 25.453125 -22.15625 26.609375 -20.125 C 27.765625 -18.101562 28.34375 -15.742188 28.34375 -13.046875 C 28.34375 -10.359375 27.75 -7.992188 26.5625 -5.953125 C 25.375 -3.910156 23.765625 -2.335938 21.734375 -1.234375 C 19.710938 -0.128906 17.46875 0.421875 15 0.421875 Z M 15 -3.375 C 16.550781 -3.375 18.003906 -3.734375 19.359375 -4.453125 C 20.722656 -5.179688 21.820312 -6.273438 22.65625 -7.734375 C 23.5 -9.191406 23.921875 -10.960938 23.921875 -13.046875 C 23.921875 -15.140625 23.507812 -16.910156 22.6875 -18.359375 C 21.863281 -19.816406 20.785156 -20.898438 19.453125 -21.609375 C 18.128906 -22.328125 16.691406 -22.6875 15.140625 -22.6875 C 13.554688 -22.6875 12.109375 -22.328125 10.796875 -21.609375 C 9.484375 -20.898438 8.429688 -19.816406 7.640625 -18.359375 C 6.847656 -16.910156 6.453125 -15.140625 6.453125 -13.046875 C 6.453125 -10.929688 6.835938 -9.144531 7.609375 -7.6875 C 8.390625 -6.226562 9.425781 -5.144531 10.71875 -4.4375 C 12.019531 -3.726562 13.445312 -3.375 15 -3.375 Z M 15 -3.375 "/></g></g></g><g fill="#0066f2" fill-opacity="1"><g transform="translate(182.60994, 203.558571)"><g><path d="M 19.9375 0 L 13 -12.578125 L 11.0625 -12.578125 L 11.0625 0 L 2.9375 0 L 2.9375 -33.328125 L 16.5625 -33.328125 C 19.1875 -33.328125 21.425781 -32.863281 23.28125 -31.9375 C 25.132812 -31.019531 26.519531 -29.765625 27.4375 -28.171875 C 28.351562 -26.578125 28.8125 -24.796875 28.8125 -22.828125 C 28.8125 -20.617188 28.1875 -18.640625 26.9375 -16.890625 C 25.6875 -15.148438 23.84375 -13.921875 21.40625 -13.203125 L 29.09375 0 Z M 11.0625 -18.328125 L 16.09375 -18.328125 C 17.582031 -18.328125 18.695312 -18.6875 19.4375 -19.40625 C 20.175781 -20.132812 20.546875 -21.164062 20.546875 -22.5 C 20.546875 -23.769531 20.175781 -24.765625 19.4375 -25.484375 C 18.695312 -26.210938 17.582031 -26.578125 16.09375 -26.578125 L 11.0625 -26.578125 Z M 11.0625 -18.328125 "/></g></g></g><g fill="#0066f2" fill-opacity="1"><g transform="translate(212.605051, 203.558571)"><g><path d="M 27.90625 -13.671875 C 27.90625 -12.910156 27.859375 -12.117188 27.765625 -11.296875 L 9.40625 -11.296875 C 9.53125 -9.648438 10.054688 -8.390625 10.984375 -7.515625 C 11.921875 -6.648438 13.070312 -6.21875 14.4375 -6.21875 C 16.457031 -6.21875 17.863281 -7.070312 18.65625 -8.78125 L 27.296875 -8.78125 C 26.847656 -7.039062 26.046875 -5.472656 24.890625 -4.078125 C 23.742188 -2.691406 22.296875 -1.601562 20.546875 -0.8125 C 18.804688 -0.0195312 16.863281 0.375 14.71875 0.375 C 12.125 0.375 9.8125 -0.175781 7.78125 -1.28125 C 5.757812 -2.382812 4.175781 -3.960938 3.03125 -6.015625 C 1.894531 -8.078125 1.328125 -10.488281 1.328125 -13.25 C 1.328125 -16 1.890625 -18.398438 3.015625 -20.453125 C 4.140625 -22.515625 5.710938 -24.097656 7.734375 -25.203125 C 9.765625 -26.316406 12.09375 -26.875 14.71875 -26.875 C 17.28125 -26.875 19.554688 -26.332031 21.546875 -25.25 C 23.546875 -24.175781 25.101562 -22.640625 26.21875 -20.640625 C 27.34375 -18.648438 27.90625 -16.328125 27.90625 -13.671875 Z M 19.609375 -15.8125 C 19.609375 -17.195312 19.128906 -18.300781 18.171875 -19.125 C 17.222656 -19.945312 16.039062 -20.359375 14.625 -20.359375 C 13.257812 -20.359375 12.109375 -19.960938 11.171875 -19.171875 C 10.242188 -18.378906 9.671875 -17.257812 9.453125 -15.8125 Z M 19.609375 -15.8125 "/></g></g></g><g fill="#0066f2" fill-opacity="1"><g transform="translate(240.891572, 203.558571)"><g><path d="M 13.71875 0.375 C 11.40625 0.375 9.347656 -0.0195312 7.546875 -0.8125 C 5.742188 -1.601562 4.316406 -2.6875 3.265625 -4.0625 C 2.222656 -5.4375 1.640625 -6.976562 1.515625 -8.6875 L 9.546875 -8.6875 C 9.640625 -7.769531 10.066406 -7.023438 10.828125 -6.453125 C 11.585938 -5.878906 12.519531 -5.59375 13.625 -5.59375 C 14.632812 -5.59375 15.414062 -5.789062 15.96875 -6.1875 C 16.519531 -6.582031 16.796875 -7.097656 16.796875 -7.734375 C 16.796875 -8.492188 16.398438 -9.054688 15.609375 -9.421875 C 14.828125 -9.785156 13.546875 -10.191406 11.765625 -10.640625 C 9.867188 -11.078125 8.285156 -11.539062 7.015625 -12.03125 C 5.753906 -12.519531 4.664062 -13.296875 3.75 -14.359375 C 2.832031 -15.421875 2.375 -16.851562 2.375 -18.65625 C 2.375 -20.175781 2.789062 -21.5625 3.625 -22.8125 C 4.46875 -24.0625 5.703125 -25.050781 7.328125 -25.78125 C 8.960938 -26.507812 10.90625 -26.875 13.15625 -26.875 C 16.476562 -26.875 19.09375 -26.050781 21 -24.40625 C 22.914062 -22.757812 24.015625 -20.570312 24.296875 -17.84375 L 16.796875 -17.84375 C 16.671875 -18.757812 16.269531 -19.488281 15.59375 -20.03125 C 14.914062 -20.570312 14.019531 -20.84375 12.90625 -20.84375 C 11.957031 -20.84375 11.226562 -20.660156 10.71875 -20.296875 C 10.21875 -19.929688 9.96875 -19.429688 9.96875 -18.796875 C 9.96875 -18.035156 10.367188 -17.460938 11.171875 -17.078125 C 11.984375 -16.703125 13.242188 -16.328125 14.953125 -15.953125 C 16.910156 -15.441406 18.503906 -14.941406 19.734375 -14.453125 C 20.972656 -13.960938 22.0625 -13.171875 23 -12.078125 C 23.9375 -10.984375 24.421875 -9.519531 24.453125 -7.6875 C 24.453125 -6.132812 24.015625 -4.75 23.140625 -3.53125 C 22.265625 -2.3125 21.015625 -1.351562 19.390625 -0.65625 C 17.765625 0.03125 15.875 0.375 13.71875 0.375 Z M 13.71875 0.375 "/></g></g></g><g fill="#0066f2" fill-opacity="1"><g transform="translate(266.425353, 203.558571)"><g><path d="M 27.90625 -13.671875 C 27.90625 -12.910156 27.859375 -12.117188 27.765625 -11.296875 L 9.40625 -11.296875 C 9.53125 -9.648438 10.054688 -8.390625 10.984375 -7.515625 C 11.921875 -6.648438 13.070312 -6.21875 14.4375 -6.21875 C 16.457031 -6.21875 17.863281 -7.070312 18.65625 -8.78125 L 27.296875 -8.78125 C 26.847656 -7.039062 26.046875 -5.472656 24.890625 -4.078125 C 23.742188 -2.691406 22.296875 -1.601562 20.546875 -0.8125 C 18.804688 -0.0195312 16.863281 0.375 14.71875 0.375 C 12.125 0.375 9.8125 -0.175781 7.78125 -1.28125 C 5.757812 -2.382812 4.175781 -3.960938 3.03125 -6.015625 C 1.894531 -8.078125 1.328125 -10.488281 1.328125 -13.25 C 1.328125 -16 1.890625 -18.398438 3.015625 -20.453125 C 4.140625 -22.515625 5.710938 -24.097656 7.734375 -25.203125 C 9.765625 -26.316406 12.09375 -26.875 14.71875 -26.875 C 17.28125 -26.875 19.554688 -26.332031 21.546875 -25.25 C 23.546875 -24.175781 25.101562 -22.640625 26.21875 -20.640625 C 27.34375 -18.648438 27.90625 -16.328125 27.90625 -13.671875 Z M 19.609375 -15.8125 C 19.609375 -17.195312 19.128906 -18.300781 18.171875 -19.125 C 17.222656 -19.945312 16.039062 -20.359375 14.625 -20.359375 C 13.257812 -20.359375 12.109375 -19.960938 11.171875 -19.171875 C 10.242188 -18.378906 9.671875 -17.257812 9.453125 -15.8125 Z M 19.609375 -15.8125 "/></g></g></g><g fill="#0066f2" fill-opacity="1"><g transform="translate(294.711873, 203.558571)"><g><path d="M 11.0625 -22.078125 C 12.007812 -23.523438 13.191406 -24.664062 14.609375 -25.5 C 16.035156 -26.34375 17.625 -26.765625 19.375 -26.765625 L 19.375 -18.1875 L 17.140625 -18.1875 C 15.109375 -18.1875 13.585938 -17.75 12.578125 -16.875 C 11.566406 -16 11.0625 -14.472656 11.0625 -12.296875 L 11.0625 0 L 2.9375 0 L 2.9375 -26.484375 L 11.0625 -26.484375 Z M 11.0625 -22.078125 "/></g></g></g><g fill="#0066f2" fill-opacity="1"><g transform="translate(314.075733, 203.558571)"><g><path d="M 14.859375 -7.59375 L 20.59375 -26.484375 L 29.234375 -26.484375 L 19.84375 0 L 9.828125 0 L 0.421875 -26.484375 L 9.109375 -26.484375 Z M 14.859375 -7.59375 "/></g></g></g><g fill="#0066f2" fill-opacity="1"><g transform="translate(342.836862, 203.558571)"><g><path d="M 27.90625 -13.671875 C 27.90625 -12.910156 27.859375 -12.117188 27.765625 -11.296875 L 9.40625 -11.296875 C 9.53125 -9.648438 10.054688 -8.390625 10.984375 -7.515625 C 11.921875 -6.648438 13.070312 -6.21875 14.4375 -6.21875 C 16.457031 -6.21875 17.863281 -7.070312 18.65625 -8.78125 L 27.296875 -8.78125 C 26.847656 -7.039062 26.046875 -5.472656 24.890625 -4.078125 C 23.742188 -2.691406 22.296875 -1.601562 20.546875 -0.8125 C 18.804688 -0.0195312 16.863281 0.375 14.71875 0.375 C 12.125 0.375 9.8125 -0.175781 7.78125 -1.28125 C 5.757812 -2.382812 4.175781 -3.960938 3.03125 -6.015625 C 1.894531 -8.078125 1.328125 -10.488281 1.328125 -13.25 C 1.328125 -16 1.890625 -18.398438 3.015625 -20.453125 C 4.140625 -22.515625 5.710938 -24.097656 7.734375 -25.203125 C 9.765625 -26.316406 12.09375 -26.875 14.71875 -26.875 C 17.28125 -26.875 19.554688 -26.332031 21.546875 -25.25 C 23.546875 -24.175781 25.101562 -22.640625 26.21875 -20.640625 C 27.34375 -18.648438 27.90625 -16.328125 27.90625 -13.671875 Z M 19.609375 -15.8125 C 19.609375 -17.195312 19.128906 -18.300781 18.171875 -19.125 C 17.222656 -19.945312 16.039062 -20.359375 14.625 -20.359375 C 13.257812 -20.359375 12.109375 -19.960938 11.171875 -19.171875 C 10.242188 -18.378906 9.671875 -17.257812 9.453125 -15.8125 Z M 19.609375 -15.8125 "/></g></g></g><g clip-path="url(#7bb5654a63)"><path fill="#0174fc" d="M 33.355469 165.523438 C 35.125 165.523438 36.871094 165.734375 38.589844 166.15625 C 40.308594 166.578125 41.953125 167.199219 43.519531 168.019531 C 45.089844 168.839844 46.539062 169.832031 47.867188 171.003906 C 49.191406 172.175781 50.363281 173.484375 51.375 174.9375 L 44.863281 181.21875 L 63.699219 181.21875 L 63.699219 162.382812 L 57.421875 169.015625 C 56.507812 167.828125 55.515625 166.714844 54.4375 165.671875 C 53.359375 164.632812 52.210938 163.675781 50.992188 162.804688 C 49.773438 161.933594 48.5 161.15625 47.164062 160.476562 C 45.832031 159.792969 44.453125 159.214844 43.035156 158.734375 C 41.613281 158.257812 40.167969 157.886719 38.691406 157.625 C 37.21875 157.359375 35.730469 157.207031 34.234375 157.164062 C 32.738281 157.121094 31.242188 157.1875 29.757812 157.363281 C 28.269531 157.542969 26.804688 157.828125 25.359375 158.222656 C 23.914062 158.617188 22.503906 159.117188 21.132812 159.722656 C 19.761719 160.324219 18.441406 161.027344 17.175781 161.824219 C 15.910156 162.625 14.707031 163.511719 13.570312 164.488281 C 12.4375 165.464844 11.378906 166.519531 10.398438 167.652344 C 9.417969 168.789062 8.527344 169.988281 7.726562 171.253906 C 6.925781 172.519531 6.222656 173.835938 5.613281 175.207031 C 5.007812 176.574219 4.503906 177.980469 4.109375 179.425781 C 3.710938 180.871094 3.421875 182.335938 3.238281 183.824219 L 11.515625 185.101562 C 11.664062 183.765625 11.929688 182.457031 12.316406 181.171875 C 12.703125 179.886719 13.203125 178.648438 13.816406 177.457031 C 14.429688 176.261719 15.148438 175.136719 15.964844 174.074219 C 16.785156 173.011719 17.695312 172.035156 18.695312 171.136719 C 19.695312 170.242188 20.765625 169.445312 21.910156 168.746094 C 23.054688 168.046875 24.253906 167.457031 25.507812 166.976562 C 26.757812 166.496094 28.042969 166.136719 29.363281 165.890625 C 30.683594 165.644531 32.011719 165.523438 33.355469 165.523438 Z M 33.355469 165.523438 " fill-opacity="1" fill-rule="nonzero"/></g><g clip-path="url(#f229bd6058)"><path fill="#0174fc" d="M 33.355469 217.839844 C 34.269531 217.839844 35.1875 217.800781 36.101562 217.71875 C 37.011719 217.636719 37.921875 217.511719 38.824219 217.347656 C 39.722656 217.179688 40.617188 216.976562 41.5 216.730469 C 42.382812 216.484375 43.253906 216.199219 44.109375 215.871094 C 44.96875 215.546875 45.808594 215.183594 46.632812 214.78125 C 47.457031 214.382812 48.261719 213.945312 49.046875 213.46875 C 49.832031 212.996094 50.59375 212.488281 51.332031 211.945312 C 52.070312 211.398438 52.785156 210.824219 53.46875 210.214844 C 54.15625 209.609375 54.816406 208.972656 55.441406 208.304688 C 56.070312 207.636719 56.667969 206.941406 57.234375 206.21875 C 57.800781 205.496094 58.332031 204.75 58.828125 203.980469 C 59.328125 203.210938 59.789062 202.421875 60.214844 201.609375 C 60.640625 200.796875 61.03125 199.96875 61.382812 199.121094 C 61.730469 198.273438 62.042969 197.414062 62.316406 196.535156 C 62.589844 195.660156 62.824219 194.777344 63.015625 193.878906 C 63.207031 192.984375 63.359375 192.078125 63.46875 191.167969 L 55.191406 189.890625 C 55.070312 190.996094 54.867188 192.085938 54.582031 193.160156 C 54.296875 194.234375 53.929688 195.28125 53.484375 196.300781 C 53.042969 197.320312 52.523438 198.296875 51.929688 199.238281 C 51.335938 200.175781 50.671875 201.066406 49.945312 201.90625 C 49.214844 202.746094 48.429688 203.527344 47.582031 204.246094 C 46.734375 204.964844 45.835938 205.617188 44.890625 206.199219 C 43.945312 206.785156 42.960938 207.292969 41.9375 207.726562 C 40.914062 208.160156 39.863281 208.515625 38.785156 208.789062 C 37.710938 209.0625 36.617188 209.257812 35.511719 209.363281 C 34.40625 209.472656 33.296875 209.5 32.1875 209.4375 C 31.078125 209.378906 29.976562 209.238281 28.890625 209.011719 C 27.800781 208.785156 26.734375 208.476562 25.695312 208.089844 C 24.652344 207.699219 23.648438 207.234375 22.675781 206.695312 C 21.703125 206.152344 20.78125 205.542969 19.902344 204.863281 C 19.023438 204.179688 18.203125 203.4375 17.4375 202.628906 C 16.671875 201.824219 15.96875 200.964844 15.335938 200.054688 L 21.84375 193.773438 L 3.007812 193.773438 L 3.007812 212.609375 L 9.289062 205.976562 C 10.703125 207.824219 12.308594 209.484375 14.105469 210.964844 C 15.902344 212.441406 17.847656 213.691406 19.933594 214.722656 C 22.019531 215.75 24.199219 216.53125 26.464844 217.054688 C 28.730469 217.582031 31.027344 217.84375 33.355469 217.839844 Z M 33.355469 217.839844 " fill-opacity="1" fill-rule="nonzero"/></g><g clip-path="url(#84b8400d80)"><path fill="#ffffff" d="M 33.355469 213.65625 C 31.636719 213.65625 29.9375 213.492188 28.257812 213.160156 C 26.574219 212.824219 24.9375 212.332031 23.351562 211.675781 C 21.769531 211.019531 20.261719 210.214844 18.835938 209.261719 C 17.410156 208.308594 16.089844 207.222656 14.878906 206.011719 C 14.488281 205.625 3.007812 193.773438 3.007812 193.773438 L 3.007812 212.609375 L 9.289062 205.976562 C 10.199219 207.164062 11.195312 208.277344 12.269531 209.320312 C 13.347656 210.359375 14.496094 211.316406 15.714844 212.1875 C 16.933594 213.058594 18.210938 213.835938 19.542969 214.515625 C 20.878906 215.199219 22.253906 215.777344 23.675781 216.257812 C 25.09375 216.734375 26.542969 217.105469 28.015625 217.367188 C 29.492188 217.632812 30.976562 217.785156 32.476562 217.828125 C 33.972656 217.871094 35.464844 217.804688 36.953125 217.628906 C 38.441406 217.449219 39.90625 217.164062 41.351562 216.769531 C 42.796875 216.375 44.203125 215.875 45.574219 215.269531 C 46.945312 214.667969 48.265625 213.964844 49.53125 213.167969 C 50.800781 212.367188 52 211.480469 53.136719 210.503906 C 54.273438 209.527344 55.332031 208.472656 56.308594 207.339844 C 57.289062 206.203125 58.179688 205.003906 58.980469 203.738281 C 59.785156 202.472656 60.488281 201.15625 61.09375 199.785156 C 61.699219 198.417969 62.203125 197.011719 62.601562 195.566406 C 63 194.121094 63.289062 192.65625 63.46875 191.167969 L 59.332031 190.53125 C 59.242188 191.316406 59.113281 192.101562 58.949219 192.875 C 58.789062 193.652344 58.589844 194.421875 58.355469 195.179688 C 58.125 195.9375 57.855469 196.683594 57.554688 197.417969 C 57.253906 198.148438 56.921875 198.867188 56.554688 199.574219 C 56.1875 200.277344 55.792969 200.960938 55.363281 201.628906 C 54.933594 202.296875 54.476562 202.941406 53.988281 203.570312 C 53.503906 204.195312 52.988281 204.796875 52.445312 205.375 C 51.902344 205.957031 51.335938 206.507812 50.742188 207.035156 C 50.152344 207.5625 49.535156 208.0625 48.898438 208.535156 C 48.261719 209.003906 47.601562 209.445312 46.925781 209.859375 C 46.246094 210.269531 45.550781 210.648438 44.839844 211 C 44.125 211.347656 43.398438 211.660156 42.65625 211.945312 C 41.917969 212.226562 41.164062 212.472656 40.398438 212.6875 C 39.636719 212.902344 38.863281 213.082031 38.082031 213.222656 C 37.304688 213.367188 36.519531 213.476562 35.730469 213.546875 C 34.9375 213.621094 34.148438 213.65625 33.355469 213.65625 Z M 33.355469 213.65625 " fill-opacity="1" fill-rule="nonzero"/></g><g clip-path="url(#0e35a818ed)"><path fill="#ffffff" d="M 63.699219 162.382812 L 57.421875 169.015625 C 56.507812 167.828125 55.515625 166.714844 54.4375 165.671875 C 53.359375 164.632812 52.210938 163.675781 50.992188 162.804688 C 49.773438 161.933594 48.5 161.15625 47.164062 160.476562 C 45.832031 159.792969 44.453125 159.214844 43.035156 158.734375 C 41.613281 158.257812 40.167969 157.886719 38.691406 157.625 C 37.21875 157.359375 35.730469 157.207031 34.234375 157.164062 C 32.738281 157.121094 31.242188 157.1875 29.757812 157.363281 C 28.269531 157.542969 26.804688 157.828125 25.359375 158.222656 C 23.914062 158.617188 22.503906 159.117188 21.132812 159.722656 C 19.761719 160.324219 18.441406 161.027344 17.175781 161.824219 C 15.910156 162.625 14.707031 163.511719 13.570312 164.488281 C 12.4375 165.464844 11.378906 166.519531 10.398438 167.652344 C 9.417969 168.789062 8.527344 169.988281 7.726562 171.253906 C 6.925781 172.519531 6.222656 173.835938 5.613281 175.207031 C 5.007812 176.574219 4.503906 177.980469 4.109375 179.425781 C 3.710938 180.871094 3.421875 182.335938 3.238281 183.824219 L 7.375 184.460938 C 7.515625 183.246094 7.742188 182.046875 8.050781 180.867188 C 8.363281 179.683594 8.753906 178.527344 9.222656 177.398438 C 9.695312 176.273438 10.246094 175.183594 10.867188 174.132812 C 11.492188 173.082031 12.1875 172.078125 12.953125 171.125 C 13.71875 170.171875 14.546875 169.273438 15.4375 168.4375 C 16.328125 167.601562 17.273438 166.828125 18.269531 166.125 C 19.269531 165.417969 20.3125 164.785156 21.402344 164.226562 C 22.488281 163.667969 23.609375 163.1875 24.765625 162.789062 C 25.917969 162.386719 27.097656 162.066406 28.296875 161.832031 C 29.496094 161.59375 30.707031 161.441406 31.925781 161.375 C 33.148438 161.308594 34.367188 161.328125 35.585938 161.433594 C 36.800781 161.539062 38.007812 161.726562 39.199219 162 C 40.390625 162.273438 41.558594 162.628906 42.699219 163.066406 C 43.839844 163.5 44.945312 164.015625 46.015625 164.609375 C 47.085938 165.199219 48.109375 165.863281 49.085938 166.601562 C 50.0625 167.335938 50.984375 168.136719 51.847656 169 C 55.164062 172.316406 63.699219 181.21875 63.699219 181.21875 Z M 63.699219 162.382812 " fill-opacity="1" fill-rule="nonzero"/></g><g clip-path="url(#f5d93e1879)"><path fill="#ffffff" d="M 21.558594 186.25 C 20.578125 185.378906 20.039062 184.199219 19.941406 182.710938 C 19.914062 182.289062 19.902344 181.730469 19.902344 181.035156 C 19.902344 180.289062 19.914062 179.691406 19.941406 179.246094 C 20.035156 177.707031 20.558594 176.488281 21.503906 175.59375 C 22.449219 174.699219 23.777344 174.25 25.492188 174.253906 C 27.207031 174.253906 28.539062 174.699219 29.496094 175.59375 C 30.453125 176.488281 30.980469 177.703125 31.078125 179.246094 C 31.128906 180.140625 31.152344 180.734375 31.152344 181.035156 C 31.152344 181.308594 31.128906 181.867188 31.078125 182.710938 C 30.980469 184.199219 30.4375 185.378906 29.457031 186.25 C 28.476562 187.121094 27.152344 187.554688 25.492188 187.550781 C 23.851562 187.550781 22.539062 187.117188 21.558594 186.25 Z M 21.875 200.316406 C 21.71875 200.167969 21.644531 199.988281 21.652344 199.773438 C 21.652344 199.621094 21.703125 199.484375 21.800781 199.363281 L 40.167969 175.148438 C 40.367188 174.898438 40.554688 174.71875 40.726562 174.605469 C 40.902344 174.492188 41.148438 174.4375 41.476562 174.4375 L 43.449219 174.4375 C 43.695312 174.4375 43.890625 174.507812 44.027344 174.644531 C 44.171875 174.792969 44.238281 174.976562 44.230469 175.183594 C 44.230469 175.339844 44.179688 175.472656 44.082031 175.59375 L 25.714844 199.808594 C 25.554688 200.019531 25.371094 200.199219 25.15625 200.351562 C 24.980469 200.460938 24.746094 200.519531 24.445312 200.519531 L 22.472656 200.519531 C 22.222656 200.519531 22.023438 200.453125 21.875 200.316406 Z M 27.074219 184.125 C 27.410156 183.703125 27.613281 183.167969 27.6875 182.523438 C 27.738281 181.679688 27.765625 181.15625 27.765625 180.957031 C 27.765625 180.683594 27.738281 180.175781 27.6875 179.429688 C 27.636719 178.785156 27.4375 178.246094 27.09375 177.8125 C 26.742188 177.375 26.210938 177.160156 25.492188 177.160156 C 24.792969 177.160156 24.269531 177.375 23.925781 177.8125 C 23.578125 178.246094 23.378906 178.785156 23.328125 179.429688 C 23.304688 179.804688 23.292969 180.3125 23.292969 180.957031 C 23.292969 181.578125 23.304688 182.101562 23.328125 182.523438 C 23.378906 183.144531 23.570312 183.671875 23.90625 184.105469 C 24.242188 184.542969 24.769531 184.757812 25.492188 184.757812 C 26.210938 184.757812 26.738281 184.546875 27.074219 184.125 Z M 36.464844 199.382812 C 35.480469 198.476562 34.9375 197.265625 34.839844 195.75 C 34.816406 195.328125 34.804688 194.769531 34.804688 194.074219 C 34.804688 193.355469 34.816406 192.769531 34.839844 192.320312 C 34.941406 190.785156 35.460938 189.566406 36.40625 188.671875 C 37.347656 187.777344 38.679688 187.332031 40.390625 187.328125 C 42.132812 187.328125 43.476562 187.777344 44.417969 188.671875 C 45.359375 189.566406 45.882812 190.785156 45.980469 192.320312 C 46.03125 193.214844 46.058594 193.800781 46.058594 194.074219 C 46.058594 194.347656 46.03125 194.90625 45.980469 195.75 C 45.882812 197.265625 45.34375 198.476562 44.363281 199.382812 C 43.378906 200.289062 42.054688 200.742188 40.390625 200.742188 C 38.753906 200.742188 37.445312 200.289062 36.464844 199.382812 Z M 42.015625 197.183594 C 42.351562 196.75 42.539062 196.222656 42.59375 195.601562 C 42.640625 194.757812 42.667969 194.222656 42.667969 194 C 42.667969 193.75 42.640625 193.253906 42.59375 192.507812 C 42.539062 191.863281 42.34375 191.324219 41.996094 190.886719 C 41.648438 190.453125 41.113281 190.234375 40.390625 190.234375 C 39.695312 190.234375 39.175781 190.453125 38.828125 190.886719 C 38.480469 191.324219 38.28125 191.863281 38.234375 192.507812 C 38.207031 192.882812 38.195312 193.378906 38.195312 194 C 38.195312 194.644531 38.207031 195.179688 38.234375 195.601562 C 38.28125 196.222656 38.476562 196.75 38.808594 197.183594 C 39.144531 197.617188 39.671875 197.835938 40.390625 197.835938 C 41.140625 197.835938 41.679688 197.617188 42.015625 197.183594 Z M 42.015625 197.183594 " fill-opacity="1" fill-rule="nonzero"/></g></svg>