<svg xmlns="http://www.w3.org/2000/svg" xmlns:xlink="http://www.w3.org/1999/xlink" width="500" zoomAndPan="magnify" viewBox="0 0 375 374.999991" height="500" preserveAspectRatio="xMidYMid meet" version="1.0"><defs><g/><clipPath id="0a69a91d85"><path d="M 358.535156 162.910156 L 373.464844 162.910156 L 373.464844 177.15625 L 358.535156 177.15625 Z M 358.535156 162.910156 " clip-rule="nonzero"/></clipPath></defs><g fill="#0066f2" fill-opacity="1"><g transform="translate(0.522497, 206.566657)"><g><path d="M 24.90625 0 L 15.59375 -15.984375 L 9.421875 -15.984375 L 9.421875 0 L 4.3125 0 L 4.3125 -39.09375 L 16.9375 -39.09375 C 19.894531 -39.09375 22.390625 -38.585938 24.421875 -37.578125 C 26.460938 -36.566406 27.988281 -35.203125 29 -33.484375 C 30.007812 -31.765625 30.515625 -29.800781 30.515625 -27.59375 C 30.515625 -24.90625 29.738281 -22.53125 28.1875 -20.46875 C 26.632812 -18.414062 24.304688 -17.050781 21.203125 -16.375 L 31.015625 0 Z M 9.421875 -20.078125 L 16.9375 -20.078125 C 19.707031 -20.078125 21.78125 -20.757812 23.15625 -22.125 C 24.539062 -23.488281 25.234375 -25.3125 25.234375 -27.59375 C 25.234375 -29.914062 24.550781 -31.710938 23.1875 -32.984375 C 21.820312 -34.253906 19.738281 -34.890625 16.9375 -34.890625 L 9.421875 -34.890625 Z M 9.421875 -20.078125 "/></g></g></g><g fill="#0066f2" fill-opacity="1"><g transform="translate(33.500774, 206.566657)"><g><path d="M 32.359375 -16.546875 C 32.359375 -15.578125 32.304688 -14.550781 32.203125 -13.46875 L 7.625 -13.46875 C 7.8125 -10.4375 8.847656 -8.066406 10.734375 -6.359375 C 12.628906 -4.660156 14.921875 -3.8125 17.609375 -3.8125 C 19.816406 -3.8125 21.660156 -4.328125 23.140625 -5.359375 C 24.617188 -6.390625 25.65625 -7.765625 26.25 -9.484375 L 31.75 -9.484375 C 30.925781 -6.523438 29.28125 -4.117188 26.8125 -2.265625 C 24.34375 -0.421875 21.273438 0.5 17.609375 0.5 C 14.691406 0.5 12.082031 -0.148438 9.78125 -1.453125 C 7.488281 -2.765625 5.6875 -4.625 4.375 -7.03125 C 3.0625 -9.445312 2.40625 -12.242188 2.40625 -15.421875 C 2.40625 -18.597656 3.039062 -21.382812 4.3125 -23.78125 C 5.582031 -26.175781 7.367188 -28.019531 9.671875 -29.3125 C 11.972656 -30.601562 14.617188 -31.25 17.609375 -31.25 C 20.523438 -31.25 23.101562 -30.613281 25.34375 -29.34375 C 27.59375 -28.070312 29.320312 -26.320312 30.53125 -24.09375 C 31.75 -21.863281 32.359375 -19.347656 32.359375 -16.546875 Z M 27.09375 -17.609375 C 27.09375 -19.554688 26.660156 -21.226562 25.796875 -22.625 C 24.941406 -24.03125 23.773438 -25.097656 22.296875 -25.828125 C 20.816406 -26.554688 19.179688 -26.921875 17.390625 -26.921875 C 14.804688 -26.921875 12.609375 -26.097656 10.796875 -24.453125 C 8.984375 -22.804688 7.945312 -20.523438 7.6875 -17.609375 Z M 27.09375 -17.609375 "/></g></g></g><g fill="#0066f2" fill-opacity="1"><g transform="translate(67.152078, 206.566657)"><g><path d="M 9.421875 -25.078125 C 10.429688 -26.828125 11.9375 -28.289062 13.9375 -29.46875 C 15.9375 -30.65625 18.265625 -31.25 20.921875 -31.25 C 23.648438 -31.25 26.125 -30.59375 28.34375 -29.28125 C 30.570312 -27.96875 32.320312 -26.125 33.59375 -23.75 C 34.863281 -21.375 35.5 -18.617188 35.5 -15.484375 C 35.5 -12.378906 34.863281 -9.609375 33.59375 -7.171875 C 32.320312 -4.742188 30.570312 -2.859375 28.34375 -1.515625 C 26.125 -0.171875 23.648438 0.5 20.921875 0.5 C 18.304688 0.5 16 -0.0859375 14 -1.265625 C 12 -2.441406 10.472656 -3.910156 9.421875 -5.671875 L 9.421875 14.578125 L 4.3125 14.578125 L 4.3125 -30.734375 L 9.421875 -30.734375 Z M 30.296875 -15.484375 C 30.296875 -17.796875 29.828125 -19.8125 28.890625 -21.53125 C 27.953125 -23.257812 26.6875 -24.570312 25.09375 -25.46875 C 23.507812 -26.363281 21.765625 -26.8125 19.859375 -26.8125 C 17.984375 -26.8125 16.25 -26.351562 14.65625 -25.4375 C 13.070312 -24.519531 11.800781 -23.191406 10.84375 -21.453125 C 9.894531 -19.710938 9.421875 -17.703125 9.421875 -15.421875 C 9.421875 -13.109375 9.894531 -11.082031 10.84375 -9.34375 C 11.800781 -7.601562 13.070312 -6.273438 14.65625 -5.359375 C 16.25 -4.441406 17.984375 -3.984375 19.859375 -3.984375 C 21.765625 -3.984375 23.507812 -4.441406 25.09375 -5.359375 C 26.6875 -6.273438 27.953125 -7.601562 28.890625 -9.34375 C 29.828125 -11.082031 30.296875 -13.128906 30.296875 -15.484375 Z M 30.296875 -15.484375 "/></g></g></g><g fill="#0066f2" fill-opacity="1"><g transform="translate(103.944189, 206.566657)"><g><path d="M 17.71875 0.5 C 14.84375 0.5 12.234375 -0.148438 9.890625 -1.453125 C 7.554688 -2.765625 5.722656 -4.625 4.390625 -7.03125 C 3.066406 -9.445312 2.40625 -12.242188 2.40625 -15.421875 C 2.40625 -18.566406 3.085938 -21.34375 4.453125 -23.75 C 5.816406 -26.164062 7.675781 -28.019531 10.03125 -29.3125 C 12.394531 -30.601562 15.035156 -31.25 17.953125 -31.25 C 20.867188 -31.25 23.503906 -30.601562 25.859375 -29.3125 C 28.210938 -28.019531 30.070312 -26.175781 31.4375 -23.78125 C 32.800781 -21.382812 33.484375 -18.597656 33.484375 -15.421875 C 33.484375 -12.242188 32.78125 -9.445312 31.375 -7.03125 C 29.976562 -4.625 28.082031 -2.765625 25.6875 -1.453125 C 23.289062 -0.148438 20.632812 0.5 17.71875 0.5 Z M 17.71875 -3.984375 C 19.550781 -3.984375 21.269531 -4.410156 22.875 -5.265625 C 24.488281 -6.128906 25.789062 -7.421875 26.78125 -9.140625 C 27.769531 -10.859375 28.265625 -12.953125 28.265625 -15.421875 C 28.265625 -17.890625 27.78125 -19.984375 26.8125 -21.703125 C 25.84375 -23.421875 24.570312 -24.703125 23 -25.546875 C 21.425781 -26.390625 19.722656 -26.8125 17.890625 -26.8125 C 16.023438 -26.8125 14.316406 -26.390625 12.765625 -25.546875 C 11.210938 -24.703125 9.96875 -23.421875 9.03125 -21.703125 C 8.09375 -19.984375 7.625 -17.890625 7.625 -15.421875 C 7.625 -12.921875 8.082031 -10.804688 9 -9.078125 C 9.914062 -7.359375 11.140625 -6.078125 12.671875 -5.234375 C 14.210938 -4.398438 15.894531 -3.984375 17.71875 -3.984375 Z M 17.71875 -3.984375 "/></g></g></g><g fill="#ffffff" fill-opacity="1"><g transform="translate(138.72171, 206.566657)"><g><path d="M 23.5625 0 L 15.375 -14.859375 L 13.0625 -14.859375 L 13.0625 0 L 3.484375 0 L 3.484375 -39.375 L 19.578125 -39.375 C 22.679688 -39.375 25.328125 -38.832031 27.515625 -37.75 C 29.703125 -36.664062 31.335938 -35.175781 32.421875 -33.28125 C 33.503906 -31.394531 34.046875 -29.296875 34.046875 -26.984375 C 34.046875 -24.359375 33.304688 -22.019531 31.828125 -19.96875 C 30.359375 -17.914062 28.179688 -16.457031 25.296875 -15.59375 L 34.390625 0 Z M 13.0625 -21.65625 L 19.015625 -21.65625 C 20.773438 -21.65625 22.09375 -22.082031 22.96875 -22.9375 C 23.84375 -23.800781 24.28125 -25.019531 24.28125 -26.59375 C 24.28125 -28.082031 23.84375 -29.253906 22.96875 -30.109375 C 22.09375 -30.972656 20.773438 -31.40625 19.015625 -31.40625 L 13.0625 -31.40625 Z M 13.0625 -21.65625 "/></g></g></g><g fill="#ffffff" fill-opacity="1"><g transform="translate(174.167756, 206.566657)"><g><path d="M 32.984375 -16.15625 C 32.984375 -15.257812 32.925781 -14.320312 32.8125 -13.34375 L 11.109375 -13.34375 C 11.253906 -11.40625 11.878906 -9.921875 12.984375 -8.890625 C 14.085938 -7.859375 15.441406 -7.34375 17.046875 -7.34375 C 19.441406 -7.34375 21.109375 -8.351562 22.046875 -10.375 L 32.25 -10.375 C 31.726562 -8.320312 30.785156 -6.472656 29.421875 -4.828125 C 28.054688 -3.179688 26.34375 -1.890625 24.28125 -0.953125 C 22.226562 -0.015625 19.929688 0.453125 17.390625 0.453125 C 14.328125 0.453125 11.597656 -0.203125 9.203125 -1.515625 C 6.804688 -2.828125 4.9375 -4.695312 3.59375 -7.125 C 2.25 -9.550781 1.578125 -12.394531 1.578125 -15.65625 C 1.578125 -18.90625 2.238281 -21.742188 3.5625 -24.171875 C 4.882812 -26.609375 6.742188 -28.476562 9.140625 -29.78125 C 11.535156 -31.09375 14.285156 -31.75 17.390625 -31.75 C 20.421875 -31.75 23.113281 -31.113281 25.46875 -29.84375 C 27.820312 -28.570312 29.660156 -26.753906 30.984375 -24.390625 C 32.316406 -22.035156 32.984375 -19.289062 32.984375 -16.15625 Z M 23.171875 -18.671875 C 23.171875 -20.316406 22.609375 -21.625 21.484375 -22.59375 C 20.359375 -23.570312 18.957031 -24.0625 17.28125 -24.0625 C 15.664062 -24.0625 14.304688 -23.59375 13.203125 -22.65625 C 12.109375 -21.726562 11.425781 -20.398438 11.15625 -18.671875 Z M 23.171875 -18.671875 "/></g></g></g><g fill="#ffffff" fill-opacity="1"><g transform="translate(207.59471, 206.566657)"><g><path d="M 16.21875 0.453125 C 13.476562 0.453125 11.039062 -0.015625 8.90625 -0.953125 C 6.78125 -1.890625 5.097656 -3.171875 3.859375 -4.796875 C 2.628906 -6.421875 1.941406 -8.242188 1.796875 -10.265625 L 11.28125 -10.265625 C 11.382812 -9.179688 11.882812 -8.300781 12.78125 -7.625 C 13.6875 -6.957031 14.789062 -6.625 16.09375 -6.625 C 17.289062 -6.625 18.21875 -6.851562 18.875 -7.3125 C 19.53125 -7.78125 19.859375 -8.390625 19.859375 -9.140625 C 19.859375 -10.035156 19.390625 -10.695312 18.453125 -11.125 C 17.515625 -11.5625 16 -12.039062 13.90625 -12.5625 C 11.664062 -13.082031 9.796875 -13.632812 8.296875 -14.21875 C 6.804688 -14.800781 5.515625 -15.71875 4.421875 -16.96875 C 3.335938 -18.21875 2.796875 -19.910156 2.796875 -22.046875 C 2.796875 -23.835938 3.289062 -25.472656 4.28125 -26.953125 C 5.28125 -28.429688 6.742188 -29.597656 8.671875 -30.453125 C 10.597656 -31.316406 12.882812 -31.75 15.53125 -31.75 C 19.457031 -31.75 22.550781 -30.773438 24.8125 -28.828125 C 27.082031 -26.890625 28.382812 -24.3125 28.71875 -21.09375 L 19.859375 -21.09375 C 19.703125 -22.175781 19.222656 -23.035156 18.421875 -23.671875 C 17.617188 -24.304688 16.5625 -24.625 15.25 -24.625 C 14.132812 -24.625 13.273438 -24.40625 12.671875 -23.96875 C 12.078125 -23.539062 11.78125 -22.957031 11.78125 -22.21875 C 11.78125 -21.3125 12.253906 -20.632812 13.203125 -20.1875 C 14.160156 -19.738281 15.648438 -19.289062 17.671875 -18.84375 C 19.984375 -18.25 21.867188 -17.660156 23.328125 -17.078125 C 24.785156 -16.503906 26.066406 -15.570312 27.171875 -14.28125 C 28.273438 -12.988281 28.847656 -11.257812 28.890625 -9.09375 C 28.890625 -7.257812 28.375 -5.617188 27.34375 -4.171875 C 26.3125 -2.734375 24.832031 -1.601562 22.90625 -0.78125 C 20.988281 0.0390625 18.757812 0.453125 16.21875 0.453125 Z M 16.21875 0.453125 "/></g></g></g><g fill="#ffffff" fill-opacity="1"><g transform="translate(237.768693, 206.566657)"><g><path d="M 32.984375 -16.15625 C 32.984375 -15.257812 32.925781 -14.320312 32.8125 -13.34375 L 11.109375 -13.34375 C 11.253906 -11.40625 11.878906 -9.921875 12.984375 -8.890625 C 14.085938 -7.859375 15.441406 -7.34375 17.046875 -7.34375 C 19.441406 -7.34375 21.109375 -8.351562 22.046875 -10.375 L 32.25 -10.375 C 31.726562 -8.320312 30.785156 -6.472656 29.421875 -4.828125 C 28.054688 -3.179688 26.34375 -1.890625 24.28125 -0.953125 C 22.226562 -0.015625 19.929688 0.453125 17.390625 0.453125 C 14.328125 0.453125 11.597656 -0.203125 9.203125 -1.515625 C 6.804688 -2.828125 4.9375 -4.695312 3.59375 -7.125 C 2.25 -9.550781 1.578125 -12.394531 1.578125 -15.65625 C 1.578125 -18.90625 2.238281 -21.742188 3.5625 -24.171875 C 4.882812 -26.609375 6.742188 -28.476562 9.140625 -29.78125 C 11.535156 -31.09375 14.285156 -31.75 17.390625 -31.75 C 20.421875 -31.75 23.113281 -31.113281 25.46875 -29.84375 C 27.820312 -28.570312 29.660156 -26.753906 30.984375 -24.390625 C 32.316406 -22.035156 32.984375 -19.289062 32.984375 -16.15625 Z M 23.171875 -18.671875 C 23.171875 -20.316406 22.609375 -21.625 21.484375 -22.59375 C 20.359375 -23.570312 18.957031 -24.0625 17.28125 -24.0625 C 15.664062 -24.0625 14.304688 -23.59375 13.203125 -22.65625 C 12.109375 -21.726562 11.425781 -20.398438 11.15625 -18.671875 Z M 23.171875 -18.671875 "/></g></g></g><g fill="#ffffff" fill-opacity="1"><g transform="translate(271.195647, 206.566657)"><g><path d="M 13.0625 -26.078125 C 14.1875 -27.796875 15.585938 -29.148438 17.265625 -30.140625 C 18.953125 -31.140625 20.828125 -31.640625 22.890625 -31.640625 L 22.890625 -21.484375 L 20.25 -21.484375 C 17.851562 -21.484375 16.054688 -20.96875 14.859375 -19.9375 C 13.660156 -18.914062 13.0625 -17.113281 13.0625 -14.53125 L 13.0625 0 L 3.484375 0 L 3.484375 -31.296875 L 13.0625 -31.296875 Z M 13.0625 -26.078125 "/></g></g></g><g fill="#ffffff" fill-opacity="1"><g transform="translate(294.078462, 206.566657)"><g><path d="M 17.5625 -8.96875 L 24.34375 -31.296875 L 34.546875 -31.296875 L 23.453125 0 L 11.609375 0 L 0.5 -31.296875 L 10.765625 -31.296875 Z M 17.5625 -8.96875 "/></g></g></g><g fill="#ffffff" fill-opacity="1"><g transform="translate(328.066279, 206.566657)"><g><path d="M 32.984375 -16.15625 C 32.984375 -15.257812 32.925781 -14.320312 32.8125 -13.34375 L 11.109375 -13.34375 C 11.253906 -11.40625 11.878906 -9.921875 12.984375 -8.890625 C 14.085938 -7.859375 15.441406 -7.34375 17.046875 -7.34375 C 19.441406 -7.34375 21.109375 -8.351562 22.046875 -10.375 L 32.25 -10.375 C 31.726562 -8.320312 30.785156 -6.472656 29.421875 -4.828125 C 28.054688 -3.179688 26.34375 -1.890625 24.28125 -0.953125 C 22.226562 -0.015625 19.929688 0.453125 17.390625 0.453125 C 14.328125 0.453125 11.597656 -0.203125 9.203125 -1.515625 C 6.804688 -2.828125 4.9375 -4.695312 3.59375 -7.125 C 2.25 -9.550781 1.578125 -12.394531 1.578125 -15.65625 C 1.578125 -18.90625 2.238281 -21.742188 3.5625 -24.171875 C 4.882812 -26.609375 6.742188 -28.476562 9.140625 -29.78125 C 11.535156 -31.09375 14.285156 -31.75 17.390625 -31.75 C 20.421875 -31.75 23.113281 -31.113281 25.46875 -29.84375 C 27.820312 -28.570312 29.660156 -26.753906 30.984375 -24.390625 C 32.316406 -22.035156 32.984375 -19.289062 32.984375 -16.15625 Z M 23.171875 -18.671875 C 23.171875 -20.316406 22.609375 -21.625 21.484375 -22.59375 C 20.359375 -23.570312 18.957031 -24.0625 17.28125 -24.0625 C 15.664062 -24.0625 14.304688 -23.59375 13.203125 -22.65625 C 12.109375 -21.726562 11.425781 -20.398438 11.15625 -18.671875 Z M 23.171875 -18.671875 "/></g></g></g><g clip-path="url(#0a69a91d85)"><path fill="#ffffff" d="M 364.914062 169.863281 L 365.714844 169.863281 C 366.644531 169.863281 367.398438 169.554688 367.398438 168.800781 C 367.398438 168.136719 366.910156 167.695312 365.847656 167.695312 C 365.402344 167.695312 365.09375 167.738281 364.914062 167.78125 Z M 364.871094 173.941406 L 363.1875 173.941406 L 363.1875 166.675781 C 363.851562 166.585938 364.78125 166.453125 365.980469 166.453125 C 367.351562 166.453125 367.972656 166.675781 368.460938 167.03125 C 368.902344 167.339844 369.214844 167.871094 369.214844 168.578125 C 369.214844 169.464844 368.546875 170.042969 367.707031 170.308594 L 367.707031 170.394531 C 368.414062 170.617188 368.769531 171.195312 368.992188 172.167969 C 369.214844 173.277344 369.390625 173.675781 369.523438 173.941406 L 367.75 173.941406 C 367.53125 173.675781 367.398438 173.054688 367.175781 172.167969 C 367.042969 171.414062 366.597656 171.0625 365.667969 171.0625 L 364.871094 171.0625 Z M 360.398438 170.175781 C 360.398438 173.410156 362.832031 175.980469 366.066406 175.980469 C 369.214844 176.023438 371.605469 173.410156 371.605469 170.21875 C 371.605469 166.984375 369.214844 164.371094 365.980469 164.371094 C 362.832031 164.371094 360.398438 166.984375 360.398438 170.175781 Z M 373.464844 170.175781 C 373.464844 174.25 370.1875 177.484375 366.023438 177.484375 C 361.859375 177.484375 358.535156 174.25 358.535156 170.175781 C 358.535156 166.097656 361.859375 162.910156 366.066406 162.910156 C 370.1875 162.910156 373.464844 166.097656 373.464844 170.175781 " fill-opacity="1" fill-rule="nonzero"/></g></svg>