<svg xmlns="http://www.w3.org/2000/svg" xmlns:xlink="http://www.w3.org/1999/xlink" width="500" zoomAndPan="magnify" viewBox="0 0 375 374.999991" height="500" preserveAspectRatio="xMidYMid meet" version="1.0"><defs><g/><clipPath id="467c0433cd"><path d="M 365.332031 166.320312 L 374.988281 166.320312 L 374.988281 175.746094 L 365.332031 175.746094 Z M 365.332031 166.320312 " clip-rule="nonzero"/></clipPath></defs><g fill="#0066f2" fill-opacity="1"><g transform="translate(-1.021226, 207.145928)"><g><path d="M 25.53125 0 L 15.984375 -16.390625 L 9.65625 -16.390625 L 9.65625 0 L 4.421875 0 L 4.421875 -40.078125 L 17.359375 -40.078125 C 20.390625 -40.078125 22.945312 -39.554688 25.03125 -38.515625 C 27.125 -37.484375 28.6875 -36.085938 29.71875 -34.328125 C 30.757812 -32.566406 31.28125 -30.554688 31.28125 -28.296875 C 31.28125 -25.535156 30.484375 -23.097656 28.890625 -20.984375 C 27.296875 -18.878906 24.910156 -17.484375 21.734375 -16.796875 L 31.796875 0 Z M 9.65625 -20.578125 L 17.359375 -20.578125 C 20.203125 -20.578125 22.332031 -21.273438 23.75 -22.671875 C 25.164062 -24.078125 25.875 -25.953125 25.875 -28.296875 C 25.875 -30.671875 25.171875 -32.507812 23.765625 -33.8125 C 22.367188 -35.113281 20.234375 -35.765625 17.359375 -35.765625 L 9.65625 -35.765625 Z M 9.65625 -20.578125 "/></g></g></g><g fill="#0066f2" fill-opacity="1"><g transform="translate(32.783932, 207.145928)"><g><path d="M 33.171875 -16.96875 C 33.171875 -15.96875 33.113281 -14.910156 33 -13.796875 L 7.8125 -13.796875 C 8.007812 -10.691406 9.078125 -8.265625 11.015625 -6.515625 C 12.953125 -4.773438 15.300781 -3.90625 18.0625 -3.90625 C 20.320312 -3.90625 22.207031 -4.429688 23.71875 -5.484375 C 25.226562 -6.546875 26.289062 -7.957031 26.90625 -9.71875 L 32.546875 -9.71875 C 31.703125 -6.6875 30.015625 -4.222656 27.484375 -2.328125 C 24.953125 -0.429688 21.8125 0.515625 18.0625 0.515625 C 15.0625 0.515625 12.382812 -0.148438 10.03125 -1.484375 C 7.675781 -2.828125 5.828125 -4.734375 4.484375 -7.203125 C 3.140625 -9.679688 2.46875 -12.550781 2.46875 -15.8125 C 2.46875 -19.070312 3.117188 -21.925781 4.421875 -24.375 C 5.722656 -26.832031 7.550781 -28.722656 9.90625 -30.046875 C 12.269531 -31.367188 14.988281 -32.03125 18.0625 -32.03125 C 21.050781 -32.03125 23.691406 -31.378906 25.984375 -30.078125 C 28.285156 -28.773438 30.054688 -26.984375 31.296875 -24.703125 C 32.546875 -22.421875 33.171875 -19.84375 33.171875 -16.96875 Z M 27.765625 -18.0625 C 27.765625 -20.050781 27.320312 -21.765625 26.4375 -23.203125 C 25.5625 -24.640625 24.363281 -25.726562 22.84375 -26.46875 C 21.332031 -27.21875 19.660156 -27.59375 17.828125 -27.59375 C 15.179688 -27.59375 12.925781 -26.75 11.0625 -25.0625 C 9.207031 -23.382812 8.144531 -21.050781 7.875 -18.0625 Z M 27.765625 -18.0625 "/></g></g></g><g fill="#0066f2" fill-opacity="1"><g transform="translate(67.278997, 207.145928)"><g><path d="M 9.65625 -25.703125 C 10.695312 -27.503906 12.238281 -29.007812 14.28125 -30.21875 C 16.332031 -31.425781 18.722656 -32.03125 21.453125 -32.03125 C 24.242188 -32.03125 26.78125 -31.359375 29.0625 -30.015625 C 31.34375 -28.671875 33.132812 -26.78125 34.4375 -24.34375 C 35.738281 -21.914062 36.390625 -19.09375 36.390625 -15.875 C 36.390625 -12.6875 35.738281 -9.847656 34.4375 -7.359375 C 33.132812 -4.867188 31.34375 -2.929688 29.0625 -1.546875 C 26.78125 -0.171875 24.242188 0.515625 21.453125 0.515625 C 18.765625 0.515625 16.394531 -0.0859375 14.34375 -1.296875 C 12.289062 -2.503906 10.726562 -4.007812 9.65625 -5.8125 L 9.65625 14.953125 L 4.421875 14.953125 L 4.421875 -31.515625 L 9.65625 -31.515625 Z M 31.046875 -15.875 C 31.046875 -18.25 30.566406 -20.316406 29.609375 -22.078125 C 28.648438 -23.835938 27.351562 -25.175781 25.71875 -26.09375 C 24.09375 -27.019531 22.304688 -27.484375 20.359375 -27.484375 C 18.441406 -27.484375 16.664062 -27.015625 15.03125 -26.078125 C 13.40625 -25.140625 12.101562 -23.773438 11.125 -21.984375 C 10.144531 -20.203125 9.65625 -18.144531 9.65625 -15.8125 C 9.65625 -13.4375 10.144531 -11.359375 11.125 -9.578125 C 12.101562 -7.796875 13.40625 -6.429688 15.03125 -5.484375 C 16.664062 -4.546875 18.441406 -4.078125 20.359375 -4.078125 C 22.304688 -4.078125 24.09375 -4.546875 25.71875 -5.484375 C 27.351562 -6.429688 28.648438 -7.796875 29.609375 -9.578125 C 30.566406 -11.359375 31.046875 -13.457031 31.046875 -15.875 Z M 31.046875 -15.875 "/></g></g></g><g fill="#0066f2" fill-opacity="1"><g transform="translate(104.993629, 207.145928)"><g><path d="M 18.171875 0.515625 C 15.222656 0.515625 12.550781 -0.148438 10.15625 -1.484375 C 7.757812 -2.828125 5.878906 -4.734375 4.515625 -7.203125 C 3.148438 -9.679688 2.46875 -12.550781 2.46875 -15.8125 C 2.46875 -19.03125 3.164062 -21.875 4.5625 -24.34375 C 5.96875 -26.820312 7.878906 -28.722656 10.296875 -30.046875 C 12.710938 -31.367188 15.414062 -32.03125 18.40625 -32.03125 C 21.394531 -32.03125 24.09375 -31.367188 26.5 -30.046875 C 28.914062 -28.722656 30.820312 -26.832031 32.21875 -24.375 C 33.625 -21.925781 34.328125 -19.070312 34.328125 -15.8125 C 34.328125 -12.550781 33.609375 -9.679688 32.171875 -7.203125 C 30.734375 -4.734375 28.785156 -2.828125 26.328125 -1.484375 C 23.878906 -0.148438 21.160156 0.515625 18.171875 0.515625 Z M 18.171875 -4.078125 C 20.046875 -4.078125 21.804688 -4.519531 23.453125 -5.40625 C 25.109375 -6.289062 26.441406 -7.613281 27.453125 -9.375 C 28.472656 -11.132812 28.984375 -13.28125 28.984375 -15.8125 C 28.984375 -18.34375 28.484375 -20.488281 27.484375 -22.25 C 26.484375 -24.007812 25.175781 -25.320312 23.5625 -26.1875 C 21.957031 -27.050781 20.21875 -27.484375 18.34375 -27.484375 C 16.425781 -27.484375 14.671875 -27.050781 13.078125 -26.1875 C 11.484375 -25.320312 10.207031 -24.007812 9.25 -22.25 C 8.289062 -20.488281 7.8125 -18.34375 7.8125 -15.8125 C 7.8125 -13.238281 8.28125 -11.070312 9.21875 -9.3125 C 10.164062 -7.550781 11.425781 -6.238281 13 -5.375 C 14.570312 -4.507812 16.296875 -4.078125 18.171875 -4.078125 Z M 18.171875 -4.078125 "/></g></g></g><g fill="#ffffff" fill-opacity="1"><g transform="translate(140.646733, 207.145928)"><g><path d="M 24.15625 0 L 15.75 -15.234375 L 13.390625 -15.234375 L 13.390625 0 L 3.5625 0 L 3.5625 -40.359375 L 20.0625 -40.359375 C 23.25 -40.359375 25.960938 -39.800781 28.203125 -38.6875 C 30.441406 -37.582031 32.117188 -36.0625 33.234375 -34.125 C 34.347656 -32.1875 34.90625 -30.03125 34.90625 -27.65625 C 34.90625 -24.96875 34.144531 -22.570312 32.625 -20.46875 C 31.113281 -18.363281 28.882812 -16.867188 25.9375 -15.984375 L 35.25 0 Z M 13.390625 -22.1875 L 19.5 -22.1875 C 21.289062 -22.1875 22.632812 -22.628906 23.53125 -23.515625 C 24.4375 -24.398438 24.890625 -25.644531 24.890625 -27.25 C 24.890625 -28.789062 24.4375 -30 23.53125 -30.875 C 22.632812 -31.757812 21.289062 -32.203125 19.5 -32.203125 L 13.390625 -32.203125 Z M 13.390625 -22.1875 "/></g></g></g><g fill="#ffffff" fill-opacity="1"><g transform="translate(176.98155, 207.145928)"><g><path d="M 33.8125 -16.5625 C 33.8125 -15.644531 33.753906 -14.6875 33.640625 -13.6875 L 11.390625 -13.6875 C 11.535156 -11.6875 12.171875 -10.160156 13.296875 -9.109375 C 14.429688 -8.054688 15.828125 -7.53125 17.484375 -7.53125 C 19.929688 -7.53125 21.632812 -8.566406 22.59375 -10.640625 L 33.0625 -10.640625 C 32.519531 -8.523438 31.550781 -6.625 30.15625 -4.9375 C 28.757812 -3.257812 27.003906 -1.941406 24.890625 -0.984375 C 22.785156 -0.0234375 20.429688 0.453125 17.828125 0.453125 C 14.679688 0.453125 11.878906 -0.210938 9.421875 -1.546875 C 6.972656 -2.890625 5.054688 -4.804688 3.671875 -7.296875 C 2.296875 -9.796875 1.609375 -12.710938 1.609375 -16.046875 C 1.609375 -19.378906 2.285156 -22.289062 3.640625 -24.78125 C 5.003906 -27.269531 6.910156 -29.1875 9.359375 -30.53125 C 11.816406 -31.875 14.640625 -32.546875 17.828125 -32.546875 C 20.929688 -32.546875 23.691406 -31.894531 26.109375 -30.59375 C 28.523438 -29.289062 30.410156 -27.429688 31.765625 -25.015625 C 33.128906 -22.597656 33.8125 -19.78125 33.8125 -16.5625 Z M 23.75 -19.140625 C 23.75 -20.828125 23.171875 -22.171875 22.015625 -23.171875 C 20.867188 -24.171875 19.429688 -24.671875 17.703125 -24.671875 C 16.054688 -24.671875 14.664062 -24.191406 13.53125 -23.234375 C 12.40625 -22.273438 11.707031 -20.910156 11.4375 -19.140625 Z M 23.75 -19.140625 "/></g></g></g><g fill="#ffffff" fill-opacity="1"><g transform="translate(211.246647, 207.145928)"><g><path d="M 16.625 0.453125 C 13.820312 0.453125 11.328125 -0.0234375 9.140625 -0.984375 C 6.953125 -1.941406 5.222656 -3.253906 3.953125 -4.921875 C 2.691406 -6.585938 1.988281 -8.453125 1.84375 -10.515625 L 11.5625 -10.515625 C 11.675781 -9.410156 12.191406 -8.507812 13.109375 -7.8125 C 14.023438 -7.125 15.15625 -6.78125 16.5 -6.78125 C 17.726562 -6.78125 18.675781 -7.019531 19.34375 -7.5 C 20.019531 -7.976562 20.359375 -8.601562 20.359375 -9.375 C 20.359375 -10.289062 19.878906 -10.96875 18.921875 -11.40625 C 17.960938 -11.851562 16.410156 -12.34375 14.265625 -12.875 C 11.960938 -13.414062 10.039062 -13.984375 8.5 -14.578125 C 6.96875 -15.171875 5.644531 -16.109375 4.53125 -17.390625 C 3.425781 -18.671875 2.875 -20.40625 2.875 -22.59375 C 2.875 -24.4375 3.378906 -26.113281 4.390625 -27.625 C 5.410156 -29.144531 6.90625 -30.34375 8.875 -31.21875 C 10.851562 -32.101562 13.203125 -32.546875 15.921875 -32.546875 C 19.953125 -32.546875 23.125 -31.546875 25.4375 -29.546875 C 27.757812 -27.554688 29.09375 -24.914062 29.4375 -21.625 L 20.359375 -21.625 C 20.203125 -22.726562 19.710938 -23.609375 18.890625 -24.265625 C 18.066406 -24.921875 16.984375 -25.25 15.640625 -25.25 C 14.492188 -25.25 13.613281 -25.023438 13 -24.578125 C 12.382812 -24.140625 12.078125 -23.535156 12.078125 -22.765625 C 12.078125 -21.847656 12.5625 -21.160156 13.53125 -20.703125 C 14.507812 -20.242188 16.035156 -19.78125 18.109375 -19.3125 C 20.484375 -18.707031 22.414062 -18.109375 23.90625 -17.515625 C 25.40625 -16.921875 26.722656 -15.960938 27.859375 -14.640625 C 28.992188 -13.316406 29.578125 -11.539062 29.609375 -9.3125 C 29.609375 -7.4375 29.082031 -5.757812 28.03125 -4.28125 C 26.976562 -2.800781 25.460938 -1.640625 23.484375 -0.796875 C 21.515625 0.0351562 19.226562 0.453125 16.625 0.453125 Z M 16.625 0.453125 "/></g></g></g><g fill="#ffffff" fill-opacity="1"><g transform="translate(242.177198, 207.145928)"><g><path d="M 33.8125 -16.5625 C 33.8125 -15.644531 33.753906 -14.6875 33.640625 -13.6875 L 11.390625 -13.6875 C 11.535156 -11.6875 12.171875 -10.160156 13.296875 -9.109375 C 14.429688 -8.054688 15.828125 -7.53125 17.484375 -7.53125 C 19.929688 -7.53125 21.632812 -8.566406 22.59375 -10.640625 L 33.0625 -10.640625 C 32.519531 -8.523438 31.550781 -6.625 30.15625 -4.9375 C 28.757812 -3.257812 27.003906 -1.941406 24.890625 -0.984375 C 22.785156 -0.0234375 20.429688 0.453125 17.828125 0.453125 C 14.679688 0.453125 11.878906 -0.210938 9.421875 -1.546875 C 6.972656 -2.890625 5.054688 -4.804688 3.671875 -7.296875 C 2.296875 -9.796875 1.609375 -12.710938 1.609375 -16.046875 C 1.609375 -19.378906 2.285156 -22.289062 3.640625 -24.78125 C 5.003906 -27.269531 6.910156 -29.1875 9.359375 -30.53125 C 11.816406 -31.875 14.640625 -32.546875 17.828125 -32.546875 C 20.929688 -32.546875 23.691406 -31.894531 26.109375 -30.59375 C 28.523438 -29.289062 30.410156 -27.429688 31.765625 -25.015625 C 33.128906 -22.597656 33.8125 -19.78125 33.8125 -16.5625 Z M 23.75 -19.140625 C 23.75 -20.828125 23.171875 -22.171875 22.015625 -23.171875 C 20.867188 -24.171875 19.429688 -24.671875 17.703125 -24.671875 C 16.054688 -24.671875 14.664062 -24.191406 13.53125 -23.234375 C 12.40625 -22.273438 11.707031 -20.910156 11.4375 -19.140625 Z M 23.75 -19.140625 "/></g></g></g><g fill="#ffffff" fill-opacity="1"><g transform="translate(276.442294, 207.145928)"><g><path d="M 13.390625 -26.734375 C 14.546875 -28.492188 15.984375 -29.882812 17.703125 -30.90625 C 19.429688 -31.925781 21.347656 -32.4375 23.453125 -32.4375 L 23.453125 -22.015625 L 20.75 -22.015625 C 18.300781 -22.015625 16.460938 -21.488281 15.234375 -20.4375 C 14.003906 -19.382812 13.390625 -17.535156 13.390625 -14.890625 L 13.390625 0 L 3.5625 0 L 3.5625 -32.078125 L 13.390625 -32.078125 Z M 13.390625 -26.734375 "/></g></g></g><g fill="#ffffff" fill-opacity="1"><g transform="translate(299.898847, 207.145928)"><g><path d="M 18 -9.203125 L 24.953125 -32.078125 L 35.421875 -32.078125 L 24.03125 0 L 11.90625 0 L 0.515625 -32.078125 L 11.046875 -32.078125 Z M 18 -9.203125 "/></g></g></g><g fill="#ffffff" fill-opacity="1"><g transform="translate(334.738883, 207.145928)"><g><path d="M 33.8125 -16.5625 C 33.8125 -15.644531 33.753906 -14.6875 33.640625 -13.6875 L 11.390625 -13.6875 C 11.535156 -11.6875 12.171875 -10.160156 13.296875 -9.109375 C 14.429688 -8.054688 15.828125 -7.53125 17.484375 -7.53125 C 19.929688 -7.53125 21.632812 -8.566406 22.59375 -10.640625 L 33.0625 -10.640625 C 32.519531 -8.523438 31.550781 -6.625 30.15625 -4.9375 C 28.757812 -3.257812 27.003906 -1.941406 24.890625 -0.984375 C 22.785156 -0.0234375 20.429688 0.453125 17.828125 0.453125 C 14.679688 0.453125 11.878906 -0.210938 9.421875 -1.546875 C 6.972656 -2.890625 5.054688 -4.804688 3.671875 -7.296875 C 2.296875 -9.796875 1.609375 -12.710938 1.609375 -16.046875 C 1.609375 -19.378906 2.285156 -22.289062 3.640625 -24.78125 C 5.003906 -27.269531 6.910156 -29.1875 9.359375 -30.53125 C 11.816406 -31.875 14.640625 -32.546875 17.828125 -32.546875 C 20.929688 -32.546875 23.691406 -31.894531 26.109375 -30.59375 C 28.523438 -29.289062 30.410156 -27.429688 31.765625 -25.015625 C 33.128906 -22.597656 33.8125 -19.78125 33.8125 -16.5625 Z M 23.75 -19.140625 C 23.75 -20.828125 23.171875 -22.171875 22.015625 -23.171875 C 20.867188 -24.171875 19.429688 -24.671875 17.703125 -24.671875 C 16.054688 -24.671875 14.664062 -24.191406 13.53125 -23.234375 C 12.40625 -22.273438 11.707031 -20.910156 11.4375 -19.140625 Z M 23.75 -19.140625 "/></g></g></g><g clip-path="url(#467c0433cd)"><path fill="#ffffff" d="M 369.457031 170.820312 L 369.972656 170.820312 C 370.574219 170.820312 371.0625 170.617188 371.0625 170.132812 C 371.0625 169.699219 370.746094 169.414062 370.058594 169.414062 C 369.773438 169.414062 369.574219 169.441406 369.457031 169.472656 Z M 369.429688 173.453125 L 368.339844 173.453125 L 368.339844 168.753906 C 368.769531 168.699219 369.371094 168.613281 370.144531 168.613281 C 371.035156 168.613281 371.4375 168.753906 371.75 168.984375 C 372.039062 169.183594 372.238281 169.527344 372.238281 169.988281 C 372.238281 170.5625 371.808594 170.933594 371.265625 171.105469 L 371.265625 171.164062 C 371.722656 171.304688 371.953125 171.679688 372.09375 172.308594 C 372.238281 173.023438 372.351562 173.28125 372.4375 173.453125 L 371.292969 173.453125 C 371.148438 173.28125 371.0625 172.882812 370.917969 172.308594 C 370.835938 171.820312 370.546875 171.59375 369.945312 171.59375 L 369.429688 171.59375 Z M 366.535156 171.019531 C 366.535156 173.109375 368.113281 174.773438 370.203125 174.773438 C 372.238281 174.800781 373.785156 173.109375 373.785156 171.046875 C 373.785156 168.957031 372.238281 167.265625 370.144531 167.265625 C 368.113281 167.265625 366.535156 168.957031 366.535156 171.019531 Z M 374.988281 171.019531 C 374.988281 173.65625 372.867188 175.746094 370.175781 175.746094 C 367.480469 175.746094 365.332031 173.65625 365.332031 171.019531 C 365.332031 168.382812 367.480469 166.320312 370.203125 166.320312 C 372.867188 166.320312 374.988281 168.382812 374.988281 171.019531 " fill-opacity="1" fill-rule="nonzero"/></g></svg>