<svg xmlns="http://www.w3.org/2000/svg" xmlns:xlink="http://www.w3.org/1999/xlink" width="500" zoomAndPan="magnify" viewBox="0 0 375 374.999991" height="500" preserveAspectRatio="xMidYMid meet" version="1.0"><defs><g/><clipPath id="f1a1903925"><rect x="0" width="304" y="0" height="67"/></clipPath><clipPath id="b3a8d2130c"><path d="M 3 157 L 63.664062 157 L 63.664062 186 L 3 186 Z M 3 157 " clip-rule="nonzero"/></clipPath><clipPath id="8b7edceb2d"><path d="M 3 189 L 63.664062 189 L 63.664062 218 L 3 218 Z M 3 189 " clip-rule="nonzero"/></clipPath><clipPath id="b6762e3b48"><path d="M 3 190 L 63.664062 190 L 63.664062 218 L 3 218 Z M 3 190 " clip-rule="nonzero"/></clipPath><clipPath id="d8a21607a8"><path d="M 3 157 L 63.664062 157 L 63.664062 185 L 3 185 Z M 3 157 " clip-rule="nonzero"/></clipPath><clipPath id="1ed8256a4c"><path d="M 19.902344 174.25 L 46.152344 174.25 L 46.152344 200.5 L 19.902344 200.5 Z M 19.902344 174.25 " clip-rule="nonzero"/></clipPath></defs><g transform="matrix(1, 0, 0, 1, 70, 154)"><g clip-path="url(#f1a1903925)"><g fill="#ffffff" fill-opacity="1"><g transform="translate(0.767295, 49.058072)"><g><path d="M 20.8125 0 L 13.03125 -13.359375 L 7.875 -13.359375 L 7.875 0 L 3.609375 0 L 3.609375 -32.6875 L 14.15625 -32.6875 C 16.625 -32.6875 18.707031 -32.265625 20.40625 -31.421875 C 22.113281 -30.578125 23.390625 -29.4375 24.234375 -28 C 25.085938 -26.5625 25.515625 -24.914062 25.515625 -23.0625 C 25.515625 -20.8125 24.863281 -18.828125 23.5625 -17.109375 C 22.257812 -15.390625 20.3125 -14.25 17.71875 -13.6875 L 25.9375 0 Z M 7.875 -16.78125 L 14.15625 -16.78125 C 16.46875 -16.78125 18.203125 -17.347656 19.359375 -18.484375 C 20.515625 -19.628906 21.09375 -21.15625 21.09375 -23.0625 C 21.09375 -25.007812 20.519531 -26.515625 19.375 -27.578125 C 18.238281 -28.640625 16.5 -29.171875 14.15625 -29.171875 L 7.875 -29.171875 Z M 7.875 -16.78125 "/></g></g></g><g fill="#ffffff" fill-opacity="1"><g transform="translate(28.337579, 49.058072)"><g><path d="M 27.0625 -13.828125 C 27.0625 -13.015625 27.015625 -12.15625 26.921875 -11.25 L 6.375 -11.25 C 6.53125 -8.71875 7.394531 -6.738281 8.96875 -5.3125 C 10.550781 -3.894531 12.46875 -3.1875 14.71875 -3.1875 C 16.5625 -3.1875 18.097656 -3.613281 19.328125 -4.46875 C 20.566406 -5.332031 21.4375 -6.484375 21.9375 -7.921875 L 26.546875 -7.921875 C 25.859375 -5.453125 24.476562 -3.441406 22.40625 -1.890625 C 20.34375 -0.347656 17.78125 0.421875 14.71875 0.421875 C 12.28125 0.421875 10.097656 -0.125 8.171875 -1.21875 C 6.253906 -2.3125 4.75 -3.863281 3.65625 -5.875 C 2.5625 -7.894531 2.015625 -10.234375 2.015625 -12.890625 C 2.015625 -15.546875 2.546875 -17.875 3.609375 -19.875 C 4.671875 -21.875 6.160156 -23.414062 8.078125 -24.5 C 10.003906 -25.582031 12.21875 -26.125 14.71875 -26.125 C 17.15625 -26.125 19.3125 -25.585938 21.1875 -24.515625 C 23.070312 -23.453125 24.519531 -21.988281 25.53125 -20.125 C 26.550781 -18.269531 27.0625 -16.171875 27.0625 -13.828125 Z M 22.640625 -14.71875 C 22.640625 -16.34375 22.28125 -17.738281 21.5625 -18.90625 C 20.84375 -20.082031 19.863281 -20.972656 18.625 -21.578125 C 17.394531 -22.191406 16.03125 -22.5 14.53125 -22.5 C 12.375 -22.5 10.535156 -21.8125 9.015625 -20.4375 C 7.503906 -19.0625 6.640625 -17.15625 6.421875 -14.71875 Z M 22.640625 -14.71875 "/></g></g></g><g fill="#ffffff" fill-opacity="1"><g transform="translate(56.470523, 49.058072)"><g><path d="M 7.875 -20.953125 C 8.71875 -22.421875 9.972656 -23.648438 11.640625 -24.640625 C 13.316406 -25.628906 15.265625 -26.125 17.484375 -26.125 C 19.765625 -26.125 21.835938 -25.570312 23.703125 -24.46875 C 25.566406 -23.375 27.03125 -21.832031 28.09375 -19.84375 C 29.15625 -17.863281 29.6875 -15.5625 29.6875 -12.9375 C 29.6875 -10.34375 29.15625 -8.03125 28.09375 -6 C 27.03125 -3.96875 25.566406 -2.390625 23.703125 -1.265625 C 21.835938 -0.140625 19.765625 0.421875 17.484375 0.421875 C 15.296875 0.421875 13.363281 -0.0664062 11.6875 -1.046875 C 10.019531 -2.035156 8.75 -3.265625 7.875 -4.734375 L 7.875 12.1875 L 3.609375 12.1875 L 3.609375 -25.703125 L 7.875 -25.703125 Z M 25.328125 -12.9375 C 25.328125 -14.875 24.929688 -16.5625 24.140625 -18 C 23.359375 -19.4375 22.300781 -20.53125 20.96875 -21.28125 C 19.644531 -22.03125 18.1875 -22.40625 16.59375 -22.40625 C 15.03125 -22.40625 13.582031 -22.019531 12.25 -21.25 C 10.925781 -20.488281 9.863281 -19.378906 9.0625 -17.921875 C 8.269531 -16.472656 7.875 -14.796875 7.875 -12.890625 C 7.875 -10.953125 8.269531 -9.253906 9.0625 -7.796875 C 9.863281 -6.347656 10.925781 -5.238281 12.25 -4.46875 C 13.582031 -3.707031 15.03125 -3.328125 16.59375 -3.328125 C 18.1875 -3.328125 19.644531 -3.707031 20.96875 -4.46875 C 22.300781 -5.238281 23.359375 -6.347656 24.140625 -7.796875 C 24.929688 -9.253906 25.328125 -10.96875 25.328125 -12.9375 Z M 25.328125 -12.9375 "/></g></g></g><g fill="#ffffff" fill-opacity="1"><g transform="translate(87.229223, 49.058072)"><g><path d="M 14.8125 0.421875 C 12.40625 0.421875 10.222656 -0.125 8.265625 -1.21875 C 6.316406 -2.3125 4.785156 -3.863281 3.671875 -5.875 C 2.566406 -7.894531 2.015625 -10.234375 2.015625 -12.890625 C 2.015625 -15.515625 2.582031 -17.832031 3.71875 -19.84375 C 4.863281 -21.863281 6.421875 -23.414062 8.390625 -24.5 C 10.359375 -25.582031 12.5625 -26.125 15 -26.125 C 17.4375 -26.125 19.640625 -25.582031 21.609375 -24.5 C 23.585938 -23.414062 25.144531 -21.875 26.28125 -19.875 C 27.425781 -17.875 28 -15.546875 28 -12.890625 C 28 -10.234375 27.410156 -7.894531 26.234375 -5.875 C 25.066406 -3.863281 23.476562 -2.3125 21.46875 -1.21875 C 19.46875 -0.125 17.25 0.421875 14.8125 0.421875 Z M 14.8125 -3.328125 C 16.34375 -3.328125 17.78125 -3.6875 19.125 -4.40625 C 20.46875 -5.125 21.554688 -6.203125 22.390625 -7.640625 C 23.222656 -9.078125 23.640625 -10.828125 23.640625 -12.890625 C 23.640625 -14.953125 23.226562 -16.703125 22.40625 -18.140625 C 21.59375 -19.578125 20.53125 -20.644531 19.21875 -21.34375 C 17.90625 -22.050781 16.484375 -22.40625 14.953125 -22.40625 C 13.390625 -22.40625 11.957031 -22.050781 10.65625 -21.34375 C 9.363281 -20.644531 8.328125 -19.578125 7.546875 -18.140625 C 6.765625 -16.703125 6.375 -14.953125 6.375 -12.890625 C 6.375 -10.796875 6.753906 -9.03125 7.515625 -7.59375 C 8.285156 -6.15625 9.3125 -5.082031 10.59375 -4.375 C 11.875 -3.675781 13.28125 -3.328125 14.8125 -3.328125 Z M 14.8125 -3.328125 "/></g></g></g><g fill="#0066f2" fill-opacity="1"><g transform="translate(116.309965, 49.058072)"><g><path d="M 19.6875 0 L 12.84375 -12.421875 L 10.921875 -12.421875 L 10.921875 0 L 2.90625 0 L 2.90625 -32.921875 L 16.359375 -32.921875 C 18.953125 -32.921875 21.164062 -32.46875 23 -31.5625 C 24.832031 -30.65625 26.203125 -29.410156 27.109375 -27.828125 C 28.015625 -26.253906 28.46875 -24.492188 28.46875 -22.546875 C 28.46875 -20.359375 27.847656 -18.40625 26.609375 -16.6875 C 25.378906 -14.96875 23.554688 -13.75 21.140625 -13.03125 L 28.75 0 Z M 10.921875 -18.09375 L 15.890625 -18.09375 C 17.359375 -18.09375 18.457031 -18.453125 19.1875 -19.171875 C 19.925781 -19.890625 20.296875 -20.90625 20.296875 -22.21875 C 20.296875 -23.476562 19.925781 -24.46875 19.1875 -25.1875 C 18.457031 -25.90625 17.359375 -26.265625 15.890625 -26.265625 L 10.921875 -26.265625 Z M 10.921875 -18.09375 "/></g></g></g><g fill="#0066f2" fill-opacity="1"><g transform="translate(145.943337, 49.058072)"><g><path d="M 27.578125 -13.5 C 27.578125 -12.75 27.53125 -11.96875 27.4375 -11.15625 L 9.28125 -11.15625 C 9.40625 -9.53125 9.925781 -8.285156 10.84375 -7.421875 C 11.769531 -6.566406 12.90625 -6.140625 14.25 -6.140625 C 16.25 -6.140625 17.640625 -6.984375 18.421875 -8.671875 L 26.96875 -8.671875 C 26.53125 -6.953125 25.738281 -5.40625 24.59375 -4.03125 C 23.445312 -2.65625 22.015625 -1.578125 20.296875 -0.796875 C 18.578125 -0.015625 16.65625 0.375 14.53125 0.375 C 11.96875 0.375 9.6875 -0.171875 7.6875 -1.265625 C 5.6875 -2.359375 4.125 -3.921875 3 -5.953125 C 1.875 -7.984375 1.3125 -10.359375 1.3125 -13.078125 C 1.3125 -15.796875 1.863281 -18.171875 2.96875 -20.203125 C 4.082031 -22.234375 5.640625 -23.796875 7.640625 -24.890625 C 9.640625 -25.992188 11.9375 -26.546875 14.53125 -26.546875 C 17.0625 -26.546875 19.3125 -26.015625 21.28125 -24.953125 C 23.257812 -23.890625 24.800781 -22.367188 25.90625 -20.390625 C 27.019531 -18.421875 27.578125 -16.125 27.578125 -13.5 Z M 19.359375 -15.609375 C 19.359375 -16.984375 18.890625 -18.078125 17.953125 -18.890625 C 17.015625 -19.703125 15.84375 -20.109375 14.4375 -20.109375 C 13.09375 -20.109375 11.957031 -19.71875 11.03125 -18.9375 C 10.113281 -18.15625 9.546875 -17.046875 9.328125 -15.609375 Z M 19.359375 -15.609375 "/></g></g></g><g fill="#0066f2" fill-opacity="1"><g transform="translate(173.888723, 49.058072)"><g><path d="M 13.546875 0.375 C 11.265625 0.375 9.234375 -0.015625 7.453125 -0.796875 C 5.671875 -1.578125 4.265625 -2.644531 3.234375 -4 C 2.203125 -5.363281 1.625 -6.890625 1.5 -8.578125 L 9.421875 -8.578125 C 9.515625 -7.671875 9.9375 -6.9375 10.6875 -6.375 C 11.4375 -5.8125 12.359375 -5.53125 13.453125 -5.53125 C 14.453125 -5.53125 15.222656 -5.722656 15.765625 -6.109375 C 16.316406 -6.503906 16.59375 -7.015625 16.59375 -7.640625 C 16.59375 -8.390625 16.203125 -8.941406 15.421875 -9.296875 C 14.640625 -9.660156 13.375 -10.0625 11.625 -10.5 C 9.75 -10.9375 8.1875 -11.394531 6.9375 -11.875 C 5.6875 -12.363281 4.609375 -13.128906 3.703125 -14.171875 C 2.796875 -15.222656 2.34375 -16.640625 2.34375 -18.421875 C 2.34375 -19.921875 2.753906 -21.289062 3.578125 -22.53125 C 4.410156 -23.769531 5.628906 -24.75 7.234375 -25.46875 C 8.847656 -26.1875 10.765625 -26.546875 12.984375 -26.546875 C 16.265625 -26.546875 18.851562 -25.726562 20.75 -24.09375 C 22.644531 -22.46875 23.734375 -20.3125 24.015625 -17.625 L 16.59375 -17.625 C 16.46875 -18.53125 16.066406 -19.25 15.390625 -19.78125 C 14.722656 -20.3125 13.84375 -20.578125 12.75 -20.578125 C 11.8125 -20.578125 11.09375 -20.394531 10.59375 -20.03125 C 10.09375 -19.675781 9.84375 -19.1875 9.84375 -18.5625 C 9.84375 -17.8125 10.238281 -17.25 11.03125 -16.875 C 11.832031 -16.5 13.078125 -16.125 14.765625 -15.75 C 16.703125 -15.25 18.28125 -14.753906 19.5 -14.265625 C 20.71875 -13.785156 21.789062 -13.003906 22.71875 -11.921875 C 23.644531 -10.847656 24.125 -9.40625 24.15625 -7.59375 C 24.15625 -6.0625 23.722656 -4.691406 22.859375 -3.484375 C 21.992188 -2.285156 20.753906 -1.34375 19.140625 -0.65625 C 17.535156 0.03125 15.671875 0.375 13.546875 0.375 Z M 13.546875 0.375 "/></g></g></g><g fill="#0066f2" fill-opacity="1"><g transform="translate(199.114569, 49.058072)"><g><path d="M 27.578125 -13.5 C 27.578125 -12.75 27.53125 -11.96875 27.4375 -11.15625 L 9.28125 -11.15625 C 9.40625 -9.53125 9.925781 -8.285156 10.84375 -7.421875 C 11.769531 -6.566406 12.90625 -6.140625 14.25 -6.140625 C 16.25 -6.140625 17.640625 -6.984375 18.421875 -8.671875 L 26.96875 -8.671875 C 26.53125 -6.953125 25.738281 -5.40625 24.59375 -4.03125 C 23.445312 -2.65625 22.015625 -1.578125 20.296875 -0.796875 C 18.578125 -0.015625 16.65625 0.375 14.53125 0.375 C 11.96875 0.375 9.6875 -0.171875 7.6875 -1.265625 C 5.6875 -2.359375 4.125 -3.921875 3 -5.953125 C 1.875 -7.984375 1.3125 -10.359375 1.3125 -13.078125 C 1.3125 -15.796875 1.863281 -18.171875 2.96875 -20.203125 C 4.082031 -22.234375 5.640625 -23.796875 7.640625 -24.890625 C 9.640625 -25.992188 11.9375 -26.546875 14.53125 -26.546875 C 17.0625 -26.546875 19.3125 -26.015625 21.28125 -24.953125 C 23.257812 -23.890625 24.800781 -22.367188 25.90625 -20.390625 C 27.019531 -18.421875 27.578125 -16.125 27.578125 -13.5 Z M 19.359375 -15.609375 C 19.359375 -16.984375 18.890625 -18.078125 17.953125 -18.890625 C 17.015625 -19.703125 15.84375 -20.109375 14.4375 -20.109375 C 13.09375 -20.109375 11.957031 -19.71875 11.03125 -18.9375 C 10.113281 -18.15625 9.546875 -17.046875 9.328125 -15.609375 Z M 19.359375 -15.609375 "/></g></g></g><g fill="#0066f2" fill-opacity="1"><g transform="translate(227.059956, 49.058072)"><g><path d="M 10.921875 -21.796875 C 11.859375 -23.242188 13.03125 -24.378906 14.4375 -25.203125 C 15.84375 -26.035156 17.40625 -26.453125 19.125 -26.453125 L 19.125 -17.953125 L 16.921875 -17.953125 C 14.921875 -17.953125 13.421875 -17.519531 12.421875 -16.65625 C 11.421875 -15.800781 10.921875 -14.296875 10.921875 -12.140625 L 10.921875 0 L 2.90625 0 L 2.90625 -26.171875 L 10.921875 -26.171875 Z M 10.921875 -21.796875 "/></g></g></g><g fill="#0066f2" fill-opacity="1"><g transform="translate(246.190288, 49.058072)"><g><path d="M 14.671875 -7.5 L 20.34375 -26.171875 L 28.890625 -26.171875 L 19.59375 0 L 9.703125 0 L 0.421875 -26.171875 L 9 -26.171875 Z M 14.671875 -7.5 "/></g></g></g><g fill="#0066f2" fill-opacity="1"><g transform="translate(274.60456, 49.058072)"><g><path d="M 27.578125 -13.5 C 27.578125 -12.75 27.53125 -11.96875 27.4375 -11.15625 L 9.28125 -11.15625 C 9.40625 -9.53125 9.925781 -8.285156 10.84375 -7.421875 C 11.769531 -6.566406 12.90625 -6.140625 14.25 -6.140625 C 16.25 -6.140625 17.640625 -6.984375 18.421875 -8.671875 L 26.96875 -8.671875 C 26.53125 -6.953125 25.738281 -5.40625 24.59375 -4.03125 C 23.445312 -2.65625 22.015625 -1.578125 20.296875 -0.796875 C 18.578125 -0.015625 16.65625 0.375 14.53125 0.375 C 11.96875 0.375 9.6875 -0.171875 7.6875 -1.265625 C 5.6875 -2.359375 4.125 -3.921875 3 -5.953125 C 1.875 -7.984375 1.3125 -10.359375 1.3125 -13.078125 C 1.3125 -15.796875 1.863281 -18.171875 2.96875 -20.203125 C 4.082031 -22.234375 5.640625 -23.796875 7.640625 -24.890625 C 9.640625 -25.992188 11.9375 -26.546875 14.53125 -26.546875 C 17.0625 -26.546875 19.3125 -26.015625 21.28125 -24.953125 C 23.257812 -23.890625 24.800781 -22.367188 25.90625 -20.390625 C 27.019531 -18.421875 27.578125 -16.125 27.578125 -13.5 Z M 19.359375 -15.609375 C 19.359375 -16.984375 18.890625 -18.078125 17.953125 -18.890625 C 17.015625 -19.703125 15.84375 -20.109375 14.4375 -20.109375 C 13.09375 -20.109375 11.957031 -19.71875 11.03125 -18.9375 C 10.113281 -18.15625 9.546875 -17.046875 9.328125 -15.609375 Z M 19.359375 -15.609375 "/></g></g></g></g></g><g clip-path="url(#b3a8d2130c)"><path fill="#0174fc" d="M 33.355469 165.523438 C 35.125 165.523438 36.871094 165.734375 38.589844 166.15625 C 40.308594 166.578125 41.953125 167.199219 43.519531 168.019531 C 45.089844 168.839844 46.539062 169.832031 47.867188 171.003906 C 49.191406 172.175781 50.363281 173.484375 51.375 174.9375 L 44.863281 181.21875 L 63.699219 181.21875 L 63.699219 162.382812 L 57.421875 169.015625 C 56.507812 167.828125 55.515625 166.714844 54.4375 165.671875 C 53.359375 164.632812 52.210938 163.675781 50.992188 162.804688 C 49.773438 161.933594 48.5 161.15625 47.164062 160.476562 C 45.832031 159.792969 44.453125 159.214844 43.035156 158.734375 C 41.613281 158.257812 40.167969 157.886719 38.691406 157.625 C 37.21875 157.359375 35.730469 157.207031 34.234375 157.164062 C 32.738281 157.121094 31.242188 157.1875 29.757812 157.363281 C 28.269531 157.542969 26.804688 157.828125 25.359375 158.222656 C 23.914062 158.617188 22.503906 159.117188 21.132812 159.722656 C 19.761719 160.324219 18.441406 161.027344 17.175781 161.824219 C 15.910156 162.625 14.707031 163.511719 13.570312 164.488281 C 12.4375 165.464844 11.378906 166.519531 10.398438 167.652344 C 9.417969 168.789062 8.527344 169.988281 7.726562 171.253906 C 6.925781 172.519531 6.222656 173.835938 5.613281 175.207031 C 5.007812 176.574219 4.503906 177.980469 4.109375 179.425781 C 3.710938 180.871094 3.421875 182.335938 3.238281 183.824219 L 11.515625 185.101562 C 11.664062 183.765625 11.929688 182.457031 12.316406 181.171875 C 12.703125 179.886719 13.203125 178.648438 13.816406 177.457031 C 14.429688 176.261719 15.148438 175.136719 15.964844 174.074219 C 16.785156 173.011719 17.695312 172.035156 18.695312 171.136719 C 19.695312 170.242188 20.765625 169.445312 21.910156 168.746094 C 23.054688 168.046875 24.253906 167.457031 25.507812 166.976562 C 26.757812 166.496094 28.042969 166.136719 29.363281 165.890625 C 30.683594 165.644531 32.011719 165.523438 33.355469 165.523438 Z M 33.355469 165.523438 " fill-opacity="1" fill-rule="nonzero"/></g><g clip-path="url(#8b7edceb2d)"><path fill="#0174fc" d="M 33.355469 217.839844 C 34.269531 217.839844 35.1875 217.800781 36.101562 217.71875 C 37.011719 217.636719 37.921875 217.511719 38.824219 217.347656 C 39.722656 217.179688 40.617188 216.976562 41.5 216.730469 C 42.382812 216.484375 43.253906 216.199219 44.109375 215.871094 C 44.96875 215.546875 45.808594 215.183594 46.632812 214.78125 C 47.457031 214.382812 48.261719 213.945312 49.046875 213.46875 C 49.832031 212.996094 50.59375 212.488281 51.332031 211.945312 C 52.070312 211.398438 52.785156 210.824219 53.46875 210.214844 C 54.15625 209.609375 54.816406 208.972656 55.441406 208.304688 C 56.070312 207.636719 56.667969 206.941406 57.234375 206.21875 C 57.800781 205.496094 58.332031 204.75 58.828125 203.980469 C 59.328125 203.210938 59.789062 202.421875 60.214844 201.609375 C 60.640625 200.796875 61.03125 199.96875 61.382812 199.121094 C 61.730469 198.273438 62.042969 197.414062 62.316406 196.535156 C 62.589844 195.660156 62.824219 194.777344 63.015625 193.878906 C 63.207031 192.984375 63.359375 192.078125 63.46875 191.167969 L 55.191406 189.890625 C 55.070312 190.996094 54.867188 192.085938 54.582031 193.160156 C 54.296875 194.234375 53.929688 195.28125 53.484375 196.300781 C 53.042969 197.320312 52.523438 198.296875 51.929688 199.238281 C 51.335938 200.175781 50.671875 201.066406 49.945312 201.90625 C 49.214844 202.746094 48.429688 203.527344 47.582031 204.246094 C 46.734375 204.964844 45.835938 205.617188 44.890625 206.199219 C 43.945312 206.785156 42.960938 207.292969 41.9375 207.726562 C 40.914062 208.160156 39.863281 208.515625 38.785156 208.789062 C 37.710938 209.0625 36.617188 209.257812 35.511719 209.363281 C 34.40625 209.472656 33.296875 209.5 32.1875 209.4375 C 31.078125 209.378906 29.976562 209.238281 28.890625 209.011719 C 27.800781 208.785156 26.734375 208.476562 25.695312 208.089844 C 24.652344 207.699219 23.648438 207.234375 22.675781 206.695312 C 21.703125 206.152344 20.78125 205.542969 19.902344 204.863281 C 19.023438 204.179688 18.203125 203.4375 17.4375 202.628906 C 16.671875 201.824219 15.96875 200.964844 15.335938 200.054688 L 21.84375 193.773438 L 3.007812 193.773438 L 3.007812 212.609375 L 9.289062 205.976562 C 10.703125 207.824219 12.308594 209.484375 14.105469 210.964844 C 15.902344 212.441406 17.847656 213.691406 19.933594 214.722656 C 22.019531 215.75 24.199219 216.53125 26.464844 217.054688 C 28.730469 217.582031 31.027344 217.84375 33.355469 217.839844 Z M 33.355469 217.839844 " fill-opacity="1" fill-rule="nonzero"/></g><g clip-path="url(#b6762e3b48)"><path fill="#ffffff" d="M 33.355469 213.65625 C 31.636719 213.65625 29.9375 213.492188 28.257812 213.160156 C 26.574219 212.824219 24.9375 212.332031 23.351562 211.675781 C 21.769531 211.019531 20.261719 210.214844 18.835938 209.261719 C 17.410156 208.308594 16.089844 207.222656 14.878906 206.011719 C 14.488281 205.625 3.007812 193.773438 3.007812 193.773438 L 3.007812 212.609375 L 9.289062 205.976562 C 10.199219 207.164062 11.195312 208.277344 12.269531 209.320312 C 13.347656 210.359375 14.496094 211.316406 15.714844 212.1875 C 16.933594 213.058594 18.210938 213.835938 19.542969 214.515625 C 20.878906 215.199219 22.253906 215.777344 23.675781 216.257812 C 25.09375 216.734375 26.542969 217.105469 28.015625 217.367188 C 29.492188 217.632812 30.976562 217.785156 32.476562 217.828125 C 33.972656 217.871094 35.464844 217.804688 36.953125 217.628906 C 38.441406 217.449219 39.90625 217.164062 41.351562 216.769531 C 42.796875 216.375 44.203125 215.875 45.574219 215.269531 C 46.945312 214.667969 48.265625 213.964844 49.53125 213.167969 C 50.800781 212.367188 52 211.480469 53.136719 210.503906 C 54.273438 209.527344 55.332031 208.472656 56.308594 207.339844 C 57.289062 206.203125 58.179688 205.003906 58.980469 203.738281 C 59.785156 202.472656 60.488281 201.15625 61.09375 199.785156 C 61.699219 198.417969 62.203125 197.011719 62.601562 195.566406 C 63 194.121094 63.289062 192.65625 63.46875 191.167969 L 59.332031 190.53125 C 59.242188 191.316406 59.113281 192.101562 58.949219 192.875 C 58.789062 193.652344 58.589844 194.421875 58.355469 195.179688 C 58.125 195.9375 57.855469 196.683594 57.554688 197.417969 C 57.253906 198.148438 56.921875 198.867188 56.554688 199.574219 C 56.1875 200.277344 55.792969 200.960938 55.363281 201.628906 C 54.933594 202.296875 54.476562 202.941406 53.988281 203.570312 C 53.503906 204.195312 52.988281 204.796875 52.445312 205.375 C 51.902344 205.957031 51.335938 206.507812 50.742188 207.035156 C 50.152344 207.5625 49.535156 208.0625 48.898438 208.535156 C 48.261719 209.003906 47.601562 209.445312 46.925781 209.859375 C 46.246094 210.269531 45.550781 210.648438 44.839844 211 C 44.125 211.347656 43.398438 211.660156 42.65625 211.945312 C 41.917969 212.226562 41.164062 212.472656 40.398438 212.6875 C 39.636719 212.902344 38.863281 213.082031 38.082031 213.222656 C 37.304688 213.367188 36.519531 213.476562 35.730469 213.546875 C 34.9375 213.621094 34.148438 213.65625 33.355469 213.65625 Z M 33.355469 213.65625 " fill-opacity="1" fill-rule="nonzero"/></g><g clip-path="url(#d8a21607a8)"><path fill="#ffffff" d="M 63.699219 162.382812 L 57.421875 169.015625 C 56.507812 167.828125 55.515625 166.714844 54.4375 165.671875 C 53.359375 164.632812 52.210938 163.675781 50.992188 162.804688 C 49.773438 161.933594 48.5 161.15625 47.164062 160.476562 C 45.832031 159.792969 44.453125 159.214844 43.035156 158.734375 C 41.613281 158.257812 40.167969 157.886719 38.691406 157.625 C 37.21875 157.359375 35.730469 157.207031 34.234375 157.164062 C 32.738281 157.121094 31.242188 157.1875 29.757812 157.363281 C 28.269531 157.542969 26.804688 157.828125 25.359375 158.222656 C 23.914062 158.617188 22.503906 159.117188 21.132812 159.722656 C 19.761719 160.324219 18.441406 161.027344 17.175781 161.824219 C 15.910156 162.625 14.707031 163.511719 13.570312 164.488281 C 12.4375 165.464844 11.378906 166.519531 10.398438 167.652344 C 9.417969 168.789062 8.527344 169.988281 7.726562 171.253906 C 6.925781 172.519531 6.222656 173.835938 5.613281 175.207031 C 5.007812 176.574219 4.503906 177.980469 4.109375 179.425781 C 3.710938 180.871094 3.421875 182.335938 3.238281 183.824219 L 7.375 184.460938 C 7.515625 183.246094 7.742188 182.046875 8.050781 180.867188 C 8.363281 179.683594 8.753906 178.527344 9.222656 177.398438 C 9.695312 176.273438 10.246094 175.183594 10.867188 174.132812 C 11.492188 173.082031 12.1875 172.078125 12.953125 171.125 C 13.71875 170.171875 14.546875 169.273438 15.4375 168.4375 C 16.328125 167.601562 17.273438 166.828125 18.269531 166.125 C 19.269531 165.417969 20.3125 164.785156 21.402344 164.226562 C 22.488281 163.667969 23.609375 163.1875 24.765625 162.789062 C 25.917969 162.386719 27.097656 162.066406 28.296875 161.832031 C 29.496094 161.59375 30.707031 161.441406 31.925781 161.375 C 33.148438 161.308594 34.367188 161.328125 35.585938 161.433594 C 36.800781 161.539062 38.007812 161.726562 39.199219 162 C 40.390625 162.273438 41.558594 162.628906 42.699219 163.066406 C 43.839844 163.5 44.945312 164.015625 46.015625 164.609375 C 47.085938 165.199219 48.109375 165.863281 49.085938 166.601562 C 50.0625 167.335938 50.984375 168.136719 51.847656 169 C 55.164062 172.316406 63.699219 181.21875 63.699219 181.21875 Z M 63.699219 162.382812 " fill-opacity="1" fill-rule="nonzero"/></g><g clip-path="url(#1ed8256a4c)"><path fill="#ffffff" d="M 21.558594 186.25 C 20.578125 185.378906 20.039062 184.199219 19.941406 182.710938 C 19.914062 182.289062 19.902344 181.730469 19.902344 181.035156 C 19.902344 180.289062 19.914062 179.691406 19.941406 179.246094 C 20.035156 177.707031 20.558594 176.488281 21.503906 175.59375 C 22.449219 174.699219 23.777344 174.25 25.492188 174.253906 C 27.207031 174.253906 28.539062 174.699219 29.496094 175.59375 C 30.453125 176.488281 30.980469 177.703125 31.078125 179.246094 C 31.128906 180.140625 31.152344 180.734375 31.152344 181.035156 C 31.152344 181.308594 31.128906 181.867188 31.078125 182.710938 C 30.980469 184.199219 30.4375 185.378906 29.457031 186.25 C 28.476562 187.121094 27.152344 187.554688 25.492188 187.550781 C 23.851562 187.550781 22.539062 187.117188 21.558594 186.25 Z M 21.875 200.316406 C 21.71875 200.167969 21.644531 199.988281 21.652344 199.773438 C 21.652344 199.621094 21.703125 199.484375 21.800781 199.363281 L 40.167969 175.148438 C 40.367188 174.898438 40.554688 174.71875 40.726562 174.605469 C 40.902344 174.492188 41.148438 174.4375 41.476562 174.4375 L 43.449219 174.4375 C 43.695312 174.4375 43.890625 174.507812 44.027344 174.644531 C 44.171875 174.792969 44.238281 174.976562 44.230469 175.183594 C 44.230469 175.339844 44.179688 175.472656 44.082031 175.59375 L 25.714844 199.808594 C 25.554688 200.019531 25.371094 200.199219 25.15625 200.351562 C 24.980469 200.460938 24.746094 200.519531 24.445312 200.519531 L 22.472656 200.519531 C 22.222656 200.519531 22.023438 200.453125 21.875 200.316406 Z M 27.074219 184.125 C 27.410156 183.703125 27.613281 183.167969 27.6875 182.523438 C 27.738281 181.679688 27.765625 181.15625 27.765625 180.957031 C 27.765625 180.683594 27.738281 180.175781 27.6875 179.429688 C 27.636719 178.785156 27.4375 178.246094 27.09375 177.8125 C 26.742188 177.375 26.210938 177.160156 25.492188 177.160156 C 24.792969 177.160156 24.269531 177.375 23.925781 177.8125 C 23.578125 178.246094 23.378906 178.785156 23.328125 179.429688 C 23.304688 179.804688 23.292969 180.3125 23.292969 180.957031 C 23.292969 181.578125 23.304688 182.101562 23.328125 182.523438 C 23.378906 183.144531 23.570312 183.671875 23.90625 184.105469 C 24.242188 184.542969 24.769531 184.757812 25.492188 184.757812 C 26.210938 184.757812 26.738281 184.546875 27.074219 184.125 Z M 36.464844 199.382812 C 35.480469 198.476562 34.9375 197.265625 34.839844 195.75 C 34.816406 195.328125 34.804688 194.769531 34.804688 194.074219 C 34.804688 193.355469 34.816406 192.769531 34.839844 192.320312 C 34.941406 190.785156 35.460938 189.566406 36.40625 188.671875 C 37.347656 187.777344 38.679688 187.332031 40.390625 187.328125 C 42.132812 187.328125 43.476562 187.777344 44.417969 188.671875 C 45.359375 189.566406 45.882812 190.785156 45.980469 192.320312 C 46.03125 193.214844 46.058594 193.800781 46.058594 194.074219 C 46.058594 194.347656 46.03125 194.90625 45.980469 195.75 C 45.882812 197.265625 45.34375 198.476562 44.363281 199.382812 C 43.378906 200.289062 42.054688 200.742188 40.390625 200.742188 C 38.753906 200.742188 37.445312 200.289062 36.464844 199.382812 Z M 42.015625 197.183594 C 42.351562 196.75 42.539062 196.222656 42.59375 195.601562 C 42.640625 194.757812 42.667969 194.222656 42.667969 194 C 42.667969 193.75 42.640625 193.253906 42.59375 192.507812 C 42.539062 191.863281 42.34375 191.324219 41.996094 190.886719 C 41.648438 190.453125 41.113281 190.234375 40.390625 190.234375 C 39.695312 190.234375 39.175781 190.453125 38.828125 190.886719 C 38.480469 191.324219 38.28125 191.863281 38.234375 192.507812 C 38.207031 192.882812 38.195312 193.378906 38.195312 194 C 38.195312 194.644531 38.207031 195.179688 38.234375 195.601562 C 38.28125 196.222656 38.476562 196.75 38.808594 197.183594 C 39.144531 197.617188 39.671875 197.835938 40.390625 197.835938 C 41.140625 197.835938 41.679688 197.617188 42.015625 197.183594 Z M 42.015625 197.183594 " fill-opacity="1" fill-rule="nonzero"/></g></svg>