<svg xmlns="http://www.w3.org/2000/svg" xmlns:xlink="http://www.w3.org/1999/xlink" width="500" zoomAndPan="magnify" viewBox="0 0 375 374.999991" height="500" preserveAspectRatio="xMidYMid meet" version="1.0"><defs><g/><clipPath id="3e34030333"><rect x="0" width="149" y="0" height="82"/></clipPath><clipPath id="e9728c87b7"><path d="M 120.285156 185.445312 L 127.902344 185.445312 L 127.902344 198.777344 L 120.285156 198.777344 Z M 120.285156 185.445312 " clip-rule="nonzero"/></clipPath><clipPath id="ae08f3240f"><path d="M 117.078125 186 L 124 186 L 124 193 L 117.078125 193 Z M 117.078125 186 " clip-rule="nonzero"/></clipPath><clipPath id="2318299626"><path d="M 125 191 L 131.328125 191 L 131.328125 198 L 125 198 Z M 125 191 " clip-rule="nonzero"/></clipPath><clipPath id="c22fa5753d"><rect x="0" width="229" y="0" height="82"/></clipPath><clipPath id="12d0c3326c"><path d="M 107.730469 175 L 140.730469 175 L 140.730469 191 L 107.730469 191 Z M 107.730469 175 " clip-rule="nonzero"/></clipPath><clipPath id="41e89c2ac4"><path d="M 107.730469 193 L 140.730469 193 L 140.730469 209 L 107.730469 209 Z M 107.730469 193 " clip-rule="nonzero"/></clipPath><clipPath id="a2b7ecaac7"><path d="M 107.730469 175 L 140.730469 175 L 140.730469 191 L 107.730469 191 Z M 107.730469 175 " clip-rule="nonzero"/></clipPath></defs><g transform="matrix(1, 0, 0, 1, 0, 147)"><g clip-path="url(#3e34030333)"><g fill="#ffffff" fill-opacity="1"><g transform="translate(0.0000045, 60.739073)"><g><path d="M 25.4375 0 L 15.921875 -16.328125 L 9.625 -16.328125 L 9.625 0 L 4.40625 0 L 4.40625 -39.921875 L 17.296875 -39.921875 C 20.316406 -39.921875 22.863281 -39.40625 24.9375 -38.375 C 27.019531 -37.34375 28.578125 -35.945312 29.609375 -34.1875 C 30.640625 -32.4375 31.15625 -30.4375 31.15625 -28.1875 C 31.15625 -25.4375 30.363281 -23.007812 28.78125 -20.90625 C 27.195312 -18.800781 24.820312 -17.40625 21.65625 -16.71875 L 31.671875 0 Z M 9.625 -20.5 L 17.296875 -20.5 C 20.117188 -20.5 22.238281 -21.195312 23.65625 -22.59375 C 25.070312 -23.988281 25.78125 -25.851562 25.78125 -28.1875 C 25.78125 -30.550781 25.082031 -32.378906 23.6875 -33.671875 C 22.289062 -34.972656 20.160156 -35.625 17.296875 -35.625 L 9.625 -35.625 Z M 9.625 -20.5 "/></g></g></g><g fill="#ffffff" fill-opacity="1"><g transform="translate(33.678056, 60.739073)"><g><path d="M 33.046875 -16.890625 C 33.046875 -15.898438 32.988281 -14.851562 32.875 -13.75 L 7.796875 -13.75 C 7.984375 -10.65625 9.039062 -8.238281 10.96875 -6.5 C 12.894531 -4.757812 15.234375 -3.890625 17.984375 -3.890625 C 20.234375 -3.890625 22.113281 -4.414062 23.625 -5.46875 C 25.132812 -6.519531 26.195312 -7.925781 26.8125 -9.6875 L 32.421875 -9.6875 C 31.578125 -6.664062 29.894531 -4.207031 27.375 -2.3125 C 24.851562 -0.425781 21.722656 0.515625 17.984375 0.515625 C 15.003906 0.515625 12.335938 -0.148438 9.984375 -1.484375 C 7.640625 -2.828125 5.800781 -4.726562 4.46875 -7.1875 C 3.132812 -9.65625 2.46875 -12.507812 2.46875 -15.75 C 2.46875 -19 3.113281 -21.84375 4.40625 -24.28125 C 5.707031 -26.726562 7.53125 -28.609375 9.875 -29.921875 C 12.226562 -31.242188 14.929688 -31.90625 17.984375 -31.90625 C 20.960938 -31.90625 23.597656 -31.253906 25.890625 -29.953125 C 28.179688 -28.660156 29.945312 -26.875 31.1875 -24.59375 C 32.425781 -22.320312 33.046875 -19.753906 33.046875 -16.890625 Z M 27.671875 -17.984375 C 27.671875 -19.972656 27.226562 -21.679688 26.34375 -23.109375 C 25.46875 -24.546875 24.273438 -25.632812 22.765625 -26.375 C 21.253906 -27.125 19.582031 -27.5 17.75 -27.5 C 15.125 -27.5 12.882812 -26.65625 11.03125 -24.96875 C 9.175781 -23.289062 8.113281 -20.960938 7.84375 -17.984375 Z M 27.671875 -17.984375 "/></g></g></g><g fill="#ffffff" fill-opacity="1"><g transform="translate(68.043416, 60.739073)"><g><path d="M 9.625 -25.609375 C 10.65625 -27.398438 12.191406 -28.894531 14.234375 -30.09375 C 16.273438 -31.300781 18.648438 -31.90625 21.359375 -31.90625 C 24.148438 -31.90625 26.679688 -31.234375 28.953125 -29.890625 C 31.222656 -28.554688 33.007812 -26.675781 34.3125 -24.25 C 35.613281 -21.832031 36.265625 -19.019531 36.265625 -15.8125 C 36.265625 -12.644531 35.613281 -9.816406 34.3125 -7.328125 C 33.007812 -4.847656 31.222656 -2.921875 28.953125 -1.546875 C 26.679688 -0.171875 24.148438 0.515625 21.359375 0.515625 C 18.691406 0.515625 16.335938 -0.0820312 14.296875 -1.28125 C 12.253906 -2.488281 10.695312 -3.988281 9.625 -5.78125 L 9.625 14.890625 L 4.40625 14.890625 L 4.40625 -31.390625 L 9.625 -31.390625 Z M 30.9375 -15.8125 C 30.9375 -18.175781 30.457031 -20.234375 29.5 -21.984375 C 28.539062 -23.742188 27.25 -25.082031 25.625 -26 C 24.007812 -26.914062 22.226562 -27.375 20.28125 -27.375 C 18.363281 -27.375 16.59375 -26.90625 14.96875 -25.96875 C 13.351562 -25.039062 12.054688 -23.6875 11.078125 -21.90625 C 10.109375 -20.132812 9.625 -18.082031 9.625 -15.75 C 9.625 -13.382812 10.109375 -11.3125 11.078125 -9.53125 C 12.054688 -7.757812 13.351562 -6.40625 14.96875 -5.46875 C 16.59375 -4.53125 18.363281 -4.0625 20.28125 -4.0625 C 22.226562 -4.0625 24.007812 -4.53125 25.625 -5.46875 C 27.25 -6.40625 28.539062 -7.757812 29.5 -9.53125 C 30.457031 -11.3125 30.9375 -13.40625 30.9375 -15.8125 Z M 30.9375 -15.8125 "/></g></g></g><g fill="#ffffff" fill-opacity="1"><g transform="translate(105.624387, 60.739073)"><g/></g></g><g fill="#ffffff" fill-opacity="1"><g transform="translate(119.771318, 60.739073)"><g/></g></g><g fill="#ffffff" fill-opacity="1"><g transform="translate(133.918248, 60.739073)"><g/></g></g></g></g><g clip-path="url(#e9728c87b7)"><path fill="#ffffff" d="M 127.441406 185.53125 C 127.046875 185.332031 126.566406 185.488281 126.363281 185.882812 L 120.398438 197.613281 C 120.199219 198.007812 120.355469 198.492188 120.75 198.691406 C 120.867188 198.75 120.992188 198.777344 121.113281 198.777344 C 121.40625 198.777344 121.6875 198.617188 121.828125 198.339844 L 127.792969 186.609375 C 127.996094 186.214844 127.835938 185.730469 127.441406 185.53125 Z M 127.441406 185.53125 " fill-opacity="1" fill-rule="nonzero"/></g><g clip-path="url(#ae08f3240f)"><path fill="#ffffff" d="M 123.160156 189.394531 C 123.160156 187.71875 121.796875 186.351562 120.117188 186.351562 C 118.441406 186.351562 117.078125 187.71875 117.078125 189.394531 C 117.078125 191.070312 118.441406 192.4375 120.117188 192.4375 C 121.796875 192.4375 123.160156 191.070312 123.160156 189.394531 Z M 120.117188 190.832031 C 119.324219 190.832031 118.679688 190.1875 118.679688 189.394531 C 118.679688 188.601562 119.324219 187.957031 120.117188 187.957031 C 120.910156 187.957031 121.554688 188.601562 121.554688 189.394531 C 121.554688 190.1875 120.910156 190.832031 120.117188 190.832031 Z M 120.117188 190.832031 " fill-opacity="1" fill-rule="nonzero"/></g><g clip-path="url(#2318299626)"><path fill="#ffffff" d="M 128.113281 191.789062 C 126.433594 191.789062 125.070312 193.152344 125.070312 194.828125 C 125.070312 196.503906 126.433594 197.871094 128.113281 197.871094 C 129.789062 197.871094 131.152344 196.503906 131.152344 194.828125 C 131.152344 193.152344 129.789062 191.789062 128.113281 191.789062 Z M 128.113281 196.265625 C 127.320312 196.265625 126.675781 195.621094 126.675781 194.828125 C 126.675781 194.035156 127.320312 193.390625 128.113281 193.390625 C 128.902344 193.390625 129.550781 194.035156 129.550781 194.828125 C 129.550781 195.621094 128.902344 196.265625 128.113281 196.265625 Z M 128.113281 196.265625 " fill-opacity="1" fill-rule="nonzero"/></g><g transform="matrix(1, 0, 0, 1, 143, 147)"><g clip-path="url(#c22fa5753d)"><g fill="#0066f2" fill-opacity="1"><g transform="translate(0.17252, 60.739073)"><g><path d="M 24.0625 0 L 15.6875 -15.171875 L 13.34375 -15.171875 L 13.34375 0 L 3.546875 0 L 3.546875 -40.21875 L 19.984375 -40.21875 C 23.160156 -40.21875 25.863281 -39.660156 28.09375 -38.546875 C 30.332031 -37.441406 32.003906 -35.925781 33.109375 -34 C 34.210938 -32.070312 34.765625 -29.921875 34.765625 -27.546875 C 34.765625 -24.878906 34.007812 -22.492188 32.5 -20.390625 C 31 -18.285156 28.773438 -16.796875 25.828125 -15.921875 L 35.109375 0 Z M 13.34375 -22.109375 L 19.421875 -22.109375 C 21.210938 -22.109375 22.554688 -22.546875 23.453125 -23.421875 C 24.347656 -24.304688 24.796875 -25.550781 24.796875 -27.15625 C 24.796875 -28.675781 24.347656 -29.875 23.453125 -30.75 C 22.554688 -31.632812 21.210938 -32.078125 19.421875 -32.078125 L 13.34375 -32.078125 Z M 13.34375 -22.109375 "/></g></g></g><g fill="#0066f2" fill-opacity="1"><g transform="translate(36.370705, 60.739073)"><g><path d="M 33.6875 -16.5 C 33.6875 -15.582031 33.628906 -14.628906 33.515625 -13.640625 L 11.34375 -13.640625 C 11.5 -11.648438 12.140625 -10.128906 13.265625 -9.078125 C 14.390625 -8.023438 15.769531 -7.5 17.40625 -7.5 C 19.851562 -7.5 21.554688 -8.53125 22.515625 -10.59375 L 32.9375 -10.59375 C 32.40625 -8.5 31.441406 -6.609375 30.046875 -4.921875 C 28.648438 -3.242188 26.898438 -1.925781 24.796875 -0.96875 C 22.703125 -0.0195312 20.351562 0.453125 17.75 0.453125 C 14.625 0.453125 11.835938 -0.210938 9.390625 -1.546875 C 6.953125 -2.878906 5.046875 -4.785156 3.671875 -7.265625 C 2.296875 -9.753906 1.609375 -12.660156 1.609375 -15.984375 C 1.609375 -19.304688 2.285156 -22.207031 3.640625 -24.6875 C 4.992188 -27.164062 6.890625 -29.070312 9.328125 -30.40625 C 11.773438 -31.75 14.582031 -32.421875 17.75 -32.421875 C 20.84375 -32.421875 23.59375 -31.769531 26 -30.46875 C 28.40625 -29.175781 30.285156 -27.328125 31.640625 -24.921875 C 33.003906 -22.515625 33.6875 -19.707031 33.6875 -16.5 Z M 23.65625 -19.078125 C 23.65625 -20.753906 23.082031 -22.085938 21.9375 -23.078125 C 20.789062 -24.078125 19.359375 -24.578125 17.640625 -24.578125 C 15.992188 -24.578125 14.609375 -24.097656 13.484375 -23.140625 C 12.359375 -22.179688 11.664062 -20.828125 11.40625 -19.078125 Z M 23.65625 -19.078125 "/></g></g></g><g fill="#0066f2" fill-opacity="1"><g transform="translate(70.506954, 60.739073)"><g><path d="M 16.546875 0.453125 C 13.765625 0.453125 11.285156 -0.0195312 9.109375 -0.96875 C 6.929688 -1.925781 5.210938 -3.234375 3.953125 -4.890625 C 2.691406 -6.554688 1.984375 -8.421875 1.828125 -10.484375 L 11.515625 -10.484375 C 11.628906 -9.378906 12.144531 -8.484375 13.0625 -7.796875 C 13.976562 -7.109375 15.101562 -6.765625 16.4375 -6.765625 C 17.65625 -6.765625 18.597656 -7 19.265625 -7.46875 C 19.941406 -7.945312 20.28125 -8.570312 20.28125 -9.34375 C 20.28125 -10.257812 19.800781 -10.9375 18.84375 -11.375 C 17.882812 -11.8125 16.335938 -12.296875 14.203125 -12.828125 C 11.910156 -13.367188 10 -13.929688 8.46875 -14.515625 C 6.945312 -15.109375 5.628906 -16.046875 4.515625 -17.328125 C 3.410156 -18.609375 2.859375 -20.335938 2.859375 -22.515625 C 2.859375 -24.347656 3.363281 -26.015625 4.375 -27.515625 C 5.394531 -29.023438 6.882812 -30.21875 8.84375 -31.09375 C 10.8125 -31.976562 13.148438 -32.421875 15.859375 -32.421875 C 19.867188 -32.421875 23.03125 -31.425781 25.34375 -29.4375 C 27.65625 -27.457031 28.984375 -24.820312 29.328125 -21.53125 L 20.28125 -21.53125 C 20.125 -22.644531 19.632812 -23.523438 18.8125 -24.171875 C 17.988281 -24.816406 16.910156 -25.140625 15.578125 -25.140625 C 14.429688 -25.140625 13.550781 -24.921875 12.9375 -24.484375 C 12.332031 -24.046875 12.03125 -23.445312 12.03125 -22.6875 C 12.03125 -21.769531 12.515625 -21.082031 13.484375 -20.625 C 14.460938 -20.164062 15.984375 -19.707031 18.046875 -19.25 C 20.410156 -18.632812 22.335938 -18.03125 23.828125 -17.4375 C 25.316406 -16.84375 26.625 -15.890625 27.75 -14.578125 C 28.875 -13.265625 29.457031 -11.5 29.5 -9.28125 C 29.5 -7.40625 28.972656 -5.734375 27.921875 -4.265625 C 26.867188 -2.796875 25.359375 -1.640625 23.390625 -0.796875 C 21.429688 0.0351562 19.148438 0.453125 16.546875 0.453125 Z M 16.546875 0.453125 "/></g></g></g><g fill="#0066f2" fill-opacity="1"><g transform="translate(101.321206, 60.739073)"><g><path d="M 33.6875 -16.5 C 33.6875 -15.582031 33.628906 -14.628906 33.515625 -13.640625 L 11.34375 -13.640625 C 11.5 -11.648438 12.140625 -10.128906 13.265625 -9.078125 C 14.390625 -8.023438 15.769531 -7.5 17.40625 -7.5 C 19.851562 -7.5 21.554688 -8.53125 22.515625 -10.59375 L 32.9375 -10.59375 C 32.40625 -8.5 31.441406 -6.609375 30.046875 -4.921875 C 28.648438 -3.242188 26.898438 -1.925781 24.796875 -0.96875 C 22.703125 -0.0195312 20.351562 0.453125 17.75 0.453125 C 14.625 0.453125 11.835938 -0.210938 9.390625 -1.546875 C 6.953125 -2.878906 5.046875 -4.785156 3.671875 -7.265625 C 2.296875 -9.753906 1.609375 -12.660156 1.609375 -15.984375 C 1.609375 -19.304688 2.285156 -22.207031 3.640625 -24.6875 C 4.992188 -27.164062 6.890625 -29.070312 9.328125 -30.40625 C 11.773438 -31.75 14.582031 -32.421875 17.75 -32.421875 C 20.84375 -32.421875 23.59375 -31.769531 26 -30.46875 C 28.40625 -29.175781 30.285156 -27.328125 31.640625 -24.921875 C 33.003906 -22.515625 33.6875 -19.707031 33.6875 -16.5 Z M 23.65625 -19.078125 C 23.65625 -20.753906 23.082031 -22.085938 21.9375 -23.078125 C 20.789062 -24.078125 19.359375 -24.578125 17.640625 -24.578125 C 15.992188 -24.578125 14.609375 -24.097656 13.484375 -23.140625 C 12.359375 -22.179688 11.664062 -20.828125 11.40625 -19.078125 Z M 23.65625 -19.078125 "/></g></g></g><g fill="#0066f2" fill-opacity="1"><g transform="translate(135.457455, 60.739073)"><g><path d="M 13.34375 -26.640625 C 14.488281 -28.390625 15.921875 -29.769531 17.640625 -30.78125 C 19.359375 -31.800781 21.269531 -32.3125 23.375 -32.3125 L 23.375 -21.9375 L 20.671875 -21.9375 C 18.234375 -21.9375 16.398438 -21.410156 15.171875 -20.359375 C 13.953125 -19.304688 13.34375 -17.460938 13.34375 -14.828125 L 13.34375 0 L 3.546875 0 L 3.546875 -31.96875 L 13.34375 -31.96875 Z M 13.34375 -26.640625 "/></g></g></g><g fill="#0066f2" fill-opacity="1"><g transform="translate(158.825827, 60.739073)"><g><path d="M 17.921875 -9.171875 L 24.859375 -31.96875 L 35.28125 -31.96875 L 23.9375 0 L 11.859375 0 L 0.515625 -31.96875 L 11 -31.96875 Z M 17.921875 -9.171875 "/></g></g></g><g fill="#0066f2" fill-opacity="1"><g transform="translate(193.534841, 60.739073)"><g><path d="M 33.6875 -16.5 C 33.6875 -15.582031 33.628906 -14.628906 33.515625 -13.640625 L 11.34375 -13.640625 C 11.5 -11.648438 12.140625 -10.128906 13.265625 -9.078125 C 14.390625 -8.023438 15.769531 -7.5 17.40625 -7.5 C 19.851562 -7.5 21.554688 -8.53125 22.515625 -10.59375 L 32.9375 -10.59375 C 32.40625 -8.5 31.441406 -6.609375 30.046875 -4.921875 C 28.648438 -3.242188 26.898438 -1.925781 24.796875 -0.96875 C 22.703125 -0.0195312 20.351562 0.453125 17.75 0.453125 C 14.625 0.453125 11.835938 -0.210938 9.390625 -1.546875 C 6.953125 -2.878906 5.046875 -4.785156 3.671875 -7.265625 C 2.296875 -9.753906 1.609375 -12.660156 1.609375 -15.984375 C 1.609375 -19.304688 2.285156 -22.207031 3.640625 -24.6875 C 4.992188 -27.164062 6.890625 -29.070312 9.328125 -30.40625 C 11.773438 -31.75 14.582031 -32.421875 17.75 -32.421875 C 20.84375 -32.421875 23.59375 -31.769531 26 -30.46875 C 28.40625 -29.175781 30.285156 -27.328125 31.640625 -24.921875 C 33.003906 -22.515625 33.6875 -19.707031 33.6875 -16.5 Z M 23.65625 -19.078125 C 23.65625 -20.753906 23.082031 -22.085938 21.9375 -23.078125 C 20.789062 -24.078125 19.359375 -24.578125 17.640625 -24.578125 C 15.992188 -24.578125 14.609375 -24.097656 13.484375 -23.140625 C 12.359375 -22.179688 11.664062 -20.828125 11.40625 -19.078125 Z M 23.65625 -19.078125 "/></g></g></g></g></g><g clip-path="url(#12d0c3326c)"><path fill="#ffffff" d="M 124.113281 180.285156 C 125.066406 180.285156 126.007812 180.398438 126.929688 180.628906 C 127.855469 180.855469 128.742188 181.1875 129.585938 181.628906 C 130.429688 182.070312 131.207031 182.605469 131.921875 183.238281 C 132.636719 183.867188 133.269531 184.574219 133.8125 185.355469 L 130.308594 188.734375 L 140.445312 188.734375 L 140.445312 178.597656 L 137.066406 182.167969 C 136.574219 181.527344 136.039062 180.925781 135.460938 180.367188 C 134.882812 179.808594 134.261719 179.292969 133.605469 178.824219 C 132.949219 178.355469 132.265625 177.9375 131.546875 177.570312 C 130.828125 177.203125 130.085938 176.890625 129.324219 176.632812 C 128.558594 176.375 127.78125 176.175781 126.988281 176.035156 C 126.191406 175.894531 125.394531 175.8125 124.585938 175.789062 C 123.78125 175.765625 122.980469 175.800781 122.179688 175.894531 C 121.378906 175.992188 120.589844 176.144531 119.8125 176.359375 C 119.03125 176.570312 118.273438 176.839844 117.539062 177.164062 C 116.800781 177.488281 116.089844 177.867188 115.40625 178.296875 C 114.726562 178.726562 114.078125 179.203125 113.46875 179.730469 C 112.855469 180.253906 112.289062 180.824219 111.761719 181.433594 C 111.234375 182.042969 110.753906 182.6875 110.324219 183.371094 C 109.890625 184.050781 109.511719 184.761719 109.1875 185.496094 C 108.859375 186.234375 108.589844 186.992188 108.375 187.769531 C 108.160156 188.546875 108.003906 189.335938 107.90625 190.136719 L 112.363281 190.824219 C 112.441406 190.105469 112.585938 189.402344 112.792969 188.710938 C 113 188.019531 113.269531 187.351562 113.601562 186.710938 C 113.929688 186.066406 114.316406 185.460938 114.757812 184.890625 C 115.199219 184.316406 115.6875 183.789062 116.226562 183.308594 C 116.761719 182.828125 117.339844 182.398438 117.957031 182.019531 C 118.570312 181.644531 119.214844 181.328125 119.890625 181.070312 C 120.566406 180.8125 121.257812 180.617188 121.964844 180.484375 C 122.675781 180.351562 123.390625 180.285156 124.113281 180.285156 Z M 124.113281 180.285156 " fill-opacity="1" fill-rule="nonzero"/></g><g clip-path="url(#41e89c2ac4)"><path fill="#ffffff" d="M 124.113281 208.441406 C 125.101562 208.445312 126.085938 208.355469 127.058594 208.175781 C 128.03125 208 128.980469 207.734375 129.902344 207.382812 C 130.828125 207.03125 131.714844 206.601562 132.558594 206.089844 C 133.40625 205.578125 134.199219 204.996094 134.941406 204.339844 C 135.679688 203.683594 136.355469 202.96875 136.964844 202.1875 C 137.574219 201.410156 138.109375 200.582031 138.570312 199.707031 C 139.03125 198.832031 139.40625 197.921875 139.703125 196.976562 C 139.996094 196.035156 140.203125 195.070312 140.320312 194.089844 L 135.867188 193.402344 C 135.738281 194.597656 135.429688 195.746094 134.949219 196.851562 C 134.46875 197.953125 133.832031 198.957031 133.042969 199.867188 C 132.253906 200.777344 131.347656 201.546875 130.324219 202.179688 C 129.300781 202.808594 128.203125 203.273438 127.039062 203.570312 C 125.871094 203.867188 124.6875 203.984375 123.484375 203.921875 C 122.285156 203.855469 121.121094 203.613281 119.992188 203.195312 C 118.863281 202.773438 117.824219 202.195312 116.875 201.457031 C 115.921875 200.71875 115.105469 199.859375 114.417969 198.871094 L 117.917969 195.492188 L 107.785156 195.492188 L 107.785156 205.628906 L 111.160156 202.058594 C 111.921875 203.050781 112.789062 203.945312 113.753906 204.742188 C 114.722656 205.535156 115.769531 206.210938 116.890625 206.765625 C 118.015625 207.320312 119.1875 207.738281 120.40625 208.019531 C 121.625 208.304688 122.863281 208.445312 124.113281 208.441406 Z M 124.113281 208.441406 " fill-opacity="1" fill-rule="nonzero"/><path fill="#ffffff" d="M 124.113281 206.191406 C 122.25 206.191406 120.457031 205.835938 118.730469 205.125 C 117.007812 204.410156 115.488281 203.394531 114.171875 202.074219 C 113.960938 201.867188 107.785156 195.492188 107.785156 195.492188 L 107.785156 205.628906 L 111.160156 202.058594 C 111.652344 202.695312 112.1875 203.296875 112.769531 203.855469 C 113.347656 204.417969 113.964844 204.929688 114.621094 205.398438 C 115.277344 205.867188 115.964844 206.285156 116.683594 206.652344 C 117.398438 207.019531 118.140625 207.332031 118.90625 207.589844 C 119.667969 207.847656 120.449219 208.046875 121.242188 208.1875 C 122.035156 208.332031 122.835938 208.414062 123.640625 208.4375 C 124.445312 208.460938 125.25 208.421875 126.050781 208.328125 C 126.851562 208.230469 127.640625 208.078125 128.417969 207.867188 C 129.195312 207.652344 129.953125 207.382812 130.691406 207.058594 C 131.429688 206.734375 132.140625 206.359375 132.820312 205.929688 C 133.503906 205.496094 134.148438 205.019531 134.761719 204.496094 C 135.371094 203.96875 135.941406 203.402344 136.46875 202.789062 C 136.996094 202.179688 137.476562 201.535156 137.90625 200.855469 C 138.335938 200.171875 138.714844 199.464844 139.042969 198.726562 C 139.371094 197.988281 139.640625 197.230469 139.855469 196.453125 C 140.066406 195.679688 140.222656 194.890625 140.320312 194.089844 L 138.09375 193.746094 C 137.996094 194.59375 137.820312 195.429688 137.570312 196.246094 C 137.320312 197.0625 136.996094 197.851562 136.601562 198.613281 C 136.207031 199.371094 135.746094 200.085938 135.21875 200.761719 C 134.695312 201.4375 134.113281 202.058594 133.472656 202.628906 C 132.832031 203.195312 132.148438 203.703125 131.417969 204.148438 C 130.6875 204.589844 129.921875 204.964844 129.121094 205.269531 C 128.320312 205.574219 127.5 205.804688 126.660156 205.957031 C 125.816406 206.113281 124.96875 206.191406 124.113281 206.191406 Z M 124.113281 206.191406 " fill-opacity="1" fill-rule="nonzero"/></g><g clip-path="url(#a2b7ecaac7)"><path fill="#ffffff" d="M 140.445312 178.597656 L 137.066406 182.167969 C 136.574219 181.527344 136.039062 180.925781 135.460938 180.367188 C 134.882812 179.808594 134.261719 179.292969 133.605469 178.824219 C 132.949219 178.355469 132.265625 177.9375 131.546875 177.570312 C 130.828125 177.203125 130.085938 176.890625 129.324219 176.632812 C 128.558594 176.375 127.78125 176.175781 126.988281 176.035156 C 126.191406 175.894531 125.394531 175.8125 124.585938 175.789062 C 123.78125 175.765625 122.980469 175.800781 122.179688 175.894531 C 121.378906 175.992188 120.589844 176.144531 119.8125 176.359375 C 119.03125 176.570312 118.273438 176.839844 117.539062 177.164062 C 116.800781 177.488281 116.089844 177.867188 115.40625 178.296875 C 114.726562 178.726562 114.078125 179.203125 113.46875 179.730469 C 112.855469 180.253906 112.289062 180.824219 111.761719 181.433594 C 111.234375 182.042969 110.753906 182.6875 110.324219 183.371094 C 109.890625 184.050781 109.511719 184.761719 109.1875 185.496094 C 108.859375 186.234375 108.589844 186.992188 108.375 187.769531 C 108.160156 188.546875 108.003906 189.335938 107.90625 190.136719 L 110.132812 190.480469 C 110.285156 189.164062 110.617188 187.898438 111.128906 186.679688 C 111.636719 185.457031 112.308594 184.332031 113.136719 183.300781 C 113.960938 182.269531 114.917969 181.371094 115.996094 180.609375 C 117.078125 179.847656 118.242188 179.25 119.492188 178.816406 C 120.742188 178.378906 122.023438 178.128906 123.34375 178.054688 C 124.664062 177.984375 125.972656 178.09375 127.257812 178.390625 C 128.546875 178.6875 129.773438 179.152344 130.929688 179.792969 C 132.085938 180.433594 133.132812 181.222656 134.066406 182.15625 C 135.851562 183.941406 140.445312 188.734375 140.445312 188.734375 Z M 140.445312 178.597656 " fill-opacity="1" fill-rule="nonzero"/></g></svg>