<svg xmlns="http://www.w3.org/2000/svg" xmlns:xlink="http://www.w3.org/1999/xlink" width="500" zoomAndPan="magnify" viewBox="0 0 375 374.999991" height="500" preserveAspectRatio="xMidYMid meet" version="1.0"><defs><g/><clipPath id="b4f63d5a1c"><path d="M 340 28 L 373.921875 28 L 373.921875 63 L 340 63 Z M 340 28 " clip-rule="nonzero"/></clipPath><clipPath id="7a3d0bd36c"><rect x="0" width="374" y="0" height="83"/></clipPath></defs><g transform="matrix(1, 0, 0, 1, 0, 148)"><g clip-path="url(#7a3d0bd36c)"><g fill="#0066f2" fill-opacity="1"><g transform="translate(-1.018668, 61.637569)"><g><path d="M 25.859375 0 L 16.1875 -16.59375 L 9.78125 -16.59375 L 9.78125 0 L 4.484375 0 L 4.484375 -40.59375 L 17.59375 -40.59375 C 20.65625 -40.59375 23.242188 -40.066406 25.359375 -39.015625 C 27.484375 -37.972656 29.066406 -36.554688 30.109375 -34.765625 C 31.160156 -32.984375 31.6875 -30.945312 31.6875 -28.65625 C 31.6875 -25.863281 30.878906 -23.398438 29.265625 -21.265625 C 27.660156 -19.128906 25.242188 -17.710938 22.015625 -17.015625 L 32.21875 0 Z M 9.78125 -20.859375 L 17.59375 -20.859375 C 20.46875 -20.859375 22.625 -21.566406 24.0625 -22.984375 C 25.5 -24.398438 26.21875 -26.289062 26.21875 -28.65625 C 26.21875 -31.0625 25.503906 -32.925781 24.078125 -34.25 C 22.660156 -35.570312 20.5 -36.234375 17.59375 -36.234375 L 9.78125 -36.234375 Z M 9.78125 -20.859375 "/></g></g></g><g fill="#0066f2" fill-opacity="1"><g transform="translate(33.227417, 61.637569)"><g><path d="M 33.609375 -17.1875 C 33.609375 -16.175781 33.550781 -15.109375 33.4375 -13.984375 L 7.921875 -13.984375 C 8.117188 -10.835938 9.195312 -8.378906 11.15625 -6.609375 C 13.113281 -4.847656 15.492188 -3.96875 18.296875 -3.96875 C 20.585938 -3.96875 22.5 -4.5 24.03125 -5.5625 C 25.5625 -6.632812 26.640625 -8.0625 27.265625 -9.84375 L 32.96875 -9.84375 C 32.113281 -6.78125 30.40625 -4.285156 27.84375 -2.359375 C 25.28125 -0.429688 22.097656 0.53125 18.296875 0.53125 C 15.265625 0.53125 12.550781 -0.144531 10.15625 -1.5 C 7.769531 -2.863281 5.894531 -4.796875 4.53125 -7.296875 C 3.175781 -9.804688 2.5 -12.710938 2.5 -16.015625 C 2.5 -19.316406 3.160156 -22.207031 4.484375 -24.6875 C 5.804688 -27.175781 7.660156 -29.085938 10.046875 -30.421875 C 12.429688 -31.765625 15.179688 -32.4375 18.296875 -32.4375 C 21.316406 -32.4375 23.992188 -31.773438 26.328125 -30.453125 C 28.660156 -29.140625 30.457031 -27.328125 31.71875 -25.015625 C 32.976562 -22.703125 33.609375 -20.09375 33.609375 -17.1875 Z M 28.140625 -18.296875 C 28.140625 -20.304688 27.691406 -22.039062 26.796875 -23.5 C 25.898438 -24.957031 24.6875 -26.0625 23.15625 -26.8125 C 21.625 -27.570312 19.925781 -27.953125 18.0625 -27.953125 C 15.375 -27.953125 13.085938 -27.097656 11.203125 -25.390625 C 9.328125 -23.679688 8.253906 -21.316406 7.984375 -18.296875 Z M 28.140625 -18.296875 "/></g></g></g><g fill="#0066f2" fill-opacity="1"><g transform="translate(68.172407, 61.637569)"><g><path d="M 9.78125 -26.03125 C 10.832031 -27.863281 12.394531 -29.390625 14.46875 -30.609375 C 16.550781 -31.828125 18.972656 -32.4375 21.734375 -32.4375 C 24.566406 -32.4375 27.132812 -31.757812 29.4375 -30.40625 C 31.75 -29.050781 33.566406 -27.140625 34.890625 -24.671875 C 36.210938 -22.203125 36.875 -19.335938 36.875 -16.078125 C 36.875 -12.859375 36.210938 -9.984375 34.890625 -7.453125 C 33.566406 -4.929688 31.75 -2.96875 29.4375 -1.5625 C 27.132812 -0.164062 24.566406 0.53125 21.734375 0.53125 C 19.015625 0.53125 16.613281 -0.078125 14.53125 -1.296875 C 12.457031 -2.523438 10.875 -4.054688 9.78125 -5.890625 L 9.78125 15.140625 L 4.484375 15.140625 L 4.484375 -31.921875 L 9.78125 -31.921875 Z M 31.453125 -16.078125 C 31.453125 -18.484375 30.96875 -20.578125 30 -22.359375 C 29.03125 -24.148438 27.71875 -25.507812 26.0625 -26.4375 C 24.414062 -27.375 22.601562 -27.84375 20.625 -27.84375 C 18.675781 -27.84375 16.875 -27.363281 15.21875 -26.40625 C 13.570312 -25.457031 12.253906 -24.082031 11.265625 -22.28125 C 10.273438 -20.476562 9.78125 -18.390625 9.78125 -16.015625 C 9.78125 -13.609375 10.273438 -11.5 11.265625 -9.6875 C 12.253906 -7.882812 13.570312 -6.507812 15.21875 -5.5625 C 16.875 -4.613281 18.675781 -4.140625 20.625 -4.140625 C 22.601562 -4.140625 24.414062 -4.613281 26.0625 -5.5625 C 27.71875 -6.507812 29.03125 -7.882812 30 -9.6875 C 30.96875 -11.5 31.453125 -13.628906 31.453125 -16.078125 Z M 31.453125 -16.078125 "/></g></g></g><g fill="#0066f2" fill-opacity="1"><g transform="translate(106.378948, 61.637569)"><g><path d="M 18.40625 0.53125 C 15.414062 0.53125 12.707031 -0.144531 10.28125 -1.5 C 7.851562 -2.863281 5.945312 -4.796875 4.5625 -7.296875 C 3.1875 -9.804688 2.5 -12.710938 2.5 -16.015625 C 2.5 -19.273438 3.207031 -22.15625 4.625 -24.65625 C 6.039062 -27.164062 7.972656 -29.085938 10.421875 -30.421875 C 12.867188 -31.765625 15.609375 -32.4375 18.640625 -32.4375 C 21.671875 -32.4375 24.40625 -31.765625 26.84375 -30.421875 C 29.289062 -29.085938 31.222656 -27.175781 32.640625 -24.6875 C 34.066406 -22.207031 34.78125 -19.316406 34.78125 -16.015625 C 34.78125 -12.710938 34.050781 -9.804688 32.59375 -7.296875 C 31.132812 -4.796875 29.160156 -2.863281 26.671875 -1.5 C 24.191406 -0.144531 21.4375 0.53125 18.40625 0.53125 Z M 18.40625 -4.140625 C 20.3125 -4.140625 22.097656 -4.582031 23.765625 -5.46875 C 25.429688 -6.363281 26.78125 -7.703125 27.8125 -9.484375 C 28.84375 -11.273438 29.359375 -13.453125 29.359375 -16.015625 C 29.359375 -18.578125 28.851562 -20.75 27.84375 -22.53125 C 26.832031 -24.320312 25.507812 -25.65625 23.875 -26.53125 C 22.25 -27.40625 20.484375 -27.84375 18.578125 -27.84375 C 16.640625 -27.84375 14.863281 -27.40625 13.25 -26.53125 C 11.632812 -25.65625 10.34375 -24.320312 9.375 -22.53125 C 8.40625 -20.75 7.921875 -18.578125 7.921875 -16.015625 C 7.921875 -13.410156 8.394531 -11.210938 9.34375 -9.421875 C 10.300781 -7.640625 11.570312 -6.3125 13.15625 -5.4375 C 14.75 -4.570312 16.5 -4.140625 18.40625 -4.140625 Z M 18.40625 -4.140625 "/></g></g></g><g fill="#ffffff" fill-opacity="1"><g transform="translate(142.492065, 61.637569)"><g><path d="M 24.46875 0 L 15.953125 -15.4375 L 13.578125 -15.4375 L 13.578125 0 L 3.609375 0 L 3.609375 -40.890625 L 20.328125 -40.890625 C 23.546875 -40.890625 26.289062 -40.328125 28.5625 -39.203125 C 30.84375 -38.078125 32.546875 -36.53125 33.671875 -34.5625 C 34.796875 -32.601562 35.359375 -30.421875 35.359375 -28.015625 C 35.359375 -25.296875 34.585938 -22.867188 33.046875 -20.734375 C 31.515625 -18.597656 29.253906 -17.082031 26.265625 -16.1875 L 35.703125 0 Z M 13.578125 -22.484375 L 19.75 -22.484375 C 21.570312 -22.484375 22.9375 -22.925781 23.84375 -23.8125 C 24.757812 -24.707031 25.21875 -25.972656 25.21875 -27.609375 C 25.21875 -29.160156 24.757812 -30.382812 23.84375 -31.28125 C 22.9375 -32.175781 21.570312 -32.625 19.75 -32.625 L 13.578125 -32.625 Z M 13.578125 -22.484375 "/></g></g></g><g fill="#ffffff" fill-opacity="1"><g transform="translate(179.300797, 61.637569)"><g><path d="M 34.25 -16.78125 C 34.25 -15.84375 34.191406 -14.867188 34.078125 -13.859375 L 11.53125 -13.859375 C 11.6875 -11.835938 12.335938 -10.289062 13.484375 -9.21875 C 14.628906 -8.15625 16.035156 -7.625 17.703125 -7.625 C 20.191406 -7.625 21.921875 -8.675781 22.890625 -10.78125 L 33.5 -10.78125 C 32.945312 -8.644531 31.960938 -6.722656 30.546875 -5.015625 C 29.128906 -3.304688 27.351562 -1.960938 25.21875 -0.984375 C 23.082031 -0.015625 20.695312 0.46875 18.0625 0.46875 C 14.875 0.46875 12.035156 -0.207031 9.546875 -1.5625 C 7.066406 -2.925781 5.125 -4.867188 3.71875 -7.390625 C 2.320312 -9.921875 1.625 -12.875 1.625 -16.25 C 1.625 -19.625 2.3125 -22.570312 3.6875 -25.09375 C 5.070312 -27.625 7.003906 -29.566406 9.484375 -30.921875 C 11.972656 -32.285156 14.832031 -32.96875 18.0625 -32.96875 C 21.207031 -32.96875 24 -32.304688 26.4375 -30.984375 C 28.882812 -29.671875 30.796875 -27.789062 32.171875 -25.34375 C 33.554688 -22.894531 34.25 -20.039062 34.25 -16.78125 Z M 24.0625 -19.390625 C 24.0625 -21.097656 23.476562 -22.457031 22.3125 -23.46875 C 21.144531 -24.476562 19.6875 -24.984375 17.9375 -24.984375 C 16.269531 -24.984375 14.863281 -24.5 13.71875 -23.53125 C 12.570312 -22.5625 11.863281 -21.179688 11.59375 -19.390625 Z M 24.0625 -19.390625 "/></g></g></g><g fill="#ffffff" fill-opacity="1"><g transform="translate(214.012814, 61.637569)"><g><path d="M 16.828125 0.46875 C 13.992188 0.46875 11.46875 -0.015625 9.25 -0.984375 C 7.039062 -1.960938 5.296875 -3.296875 4.015625 -4.984375 C 2.734375 -6.671875 2.015625 -8.5625 1.859375 -10.65625 L 11.703125 -10.65625 C 11.828125 -9.53125 12.351562 -8.617188 13.28125 -7.921875 C 14.207031 -7.222656 15.351562 -6.875 16.71875 -6.875 C 17.957031 -6.875 18.914062 -7.113281 19.59375 -7.59375 C 20.28125 -8.082031 20.625 -8.71875 20.625 -9.5 C 20.625 -10.425781 20.132812 -11.113281 19.15625 -11.5625 C 18.1875 -12.007812 16.617188 -12.503906 14.453125 -13.046875 C 12.117188 -13.585938 10.175781 -14.160156 8.625 -14.765625 C 7.070312 -15.367188 5.726562 -16.320312 4.59375 -17.625 C 3.46875 -18.925781 2.90625 -20.679688 2.90625 -22.890625 C 2.90625 -24.753906 3.421875 -26.453125 4.453125 -27.984375 C 5.484375 -29.523438 7 -30.738281 9 -31.625 C 11 -32.519531 13.378906 -32.96875 16.140625 -32.96875 C 20.210938 -32.96875 23.421875 -31.957031 25.765625 -29.9375 C 28.117188 -27.914062 29.472656 -25.238281 29.828125 -21.90625 L 20.625 -21.90625 C 20.46875 -23.03125 19.96875 -23.921875 19.125 -24.578125 C 18.289062 -25.242188 17.195312 -25.578125 15.84375 -25.578125 C 14.675781 -25.578125 13.78125 -25.351562 13.15625 -24.90625 C 12.539062 -24.457031 12.234375 -23.84375 12.234375 -23.0625 C 12.234375 -22.132812 12.726562 -21.4375 13.71875 -20.96875 C 14.707031 -20.5 16.25 -20.035156 18.34375 -19.578125 C 20.75 -18.953125 22.707031 -18.335938 24.21875 -17.734375 C 25.738281 -17.128906 27.070312 -16.15625 28.21875 -14.8125 C 29.363281 -13.476562 29.957031 -11.6875 30 -9.4375 C 30 -7.53125 29.460938 -5.828125 28.390625 -4.328125 C 27.328125 -2.835938 25.796875 -1.664062 23.796875 -0.8125 C 21.796875 0.0390625 19.472656 0.46875 16.828125 0.46875 Z M 16.828125 0.46875 "/></g></g></g><g fill="#ffffff" fill-opacity="1"><g transform="translate(245.346778, 61.637569)"><g><path d="M 34.25 -16.78125 C 34.25 -15.84375 34.191406 -14.867188 34.078125 -13.859375 L 11.53125 -13.859375 C 11.6875 -11.835938 12.335938 -10.289062 13.484375 -9.21875 C 14.628906 -8.15625 16.035156 -7.625 17.703125 -7.625 C 20.191406 -7.625 21.921875 -8.675781 22.890625 -10.78125 L 33.5 -10.78125 C 32.945312 -8.644531 31.960938 -6.722656 30.546875 -5.015625 C 29.128906 -3.304688 27.351562 -1.960938 25.21875 -0.984375 C 23.082031 -0.015625 20.695312 0.46875 18.0625 0.46875 C 14.875 0.46875 12.035156 -0.207031 9.546875 -1.5625 C 7.066406 -2.925781 5.125 -4.867188 3.71875 -7.390625 C 2.320312 -9.921875 1.625 -12.875 1.625 -16.25 C 1.625 -19.625 2.3125 -22.570312 3.6875 -25.09375 C 5.070312 -27.625 7.003906 -29.566406 9.484375 -30.921875 C 11.972656 -32.285156 14.832031 -32.96875 18.0625 -32.96875 C 21.207031 -32.96875 24 -32.304688 26.4375 -30.984375 C 28.882812 -29.671875 30.796875 -27.789062 32.171875 -25.34375 C 33.554688 -22.894531 34.25 -20.039062 34.25 -16.78125 Z M 24.0625 -19.390625 C 24.0625 -21.097656 23.476562 -22.457031 22.3125 -23.46875 C 21.144531 -24.476562 19.6875 -24.984375 17.9375 -24.984375 C 16.269531 -24.984375 14.863281 -24.5 13.71875 -23.53125 C 12.570312 -22.5625 11.863281 -21.179688 11.59375 -19.390625 Z M 24.0625 -19.390625 "/></g></g></g><g fill="#ffffff" fill-opacity="1"><g transform="translate(280.058795, 61.637569)"><g><path d="M 13.578125 -27.09375 C 14.734375 -28.875 16.1875 -30.28125 17.9375 -31.3125 C 19.6875 -32.34375 21.628906 -32.859375 23.765625 -32.859375 L 23.765625 -22.3125 L 21.03125 -22.3125 C 18.539062 -22.3125 16.675781 -21.773438 15.4375 -20.703125 C 14.195312 -19.640625 13.578125 -17.769531 13.578125 -15.09375 L 13.578125 0 L 3.609375 0 L 3.609375 -32.5 L 13.578125 -32.5 Z M 13.578125 -27.09375 "/></g></g></g><g fill="#ffffff" fill-opacity="1"><g transform="translate(303.821291, 61.637569)"><g><path d="M 18.234375 -9.3125 L 25.28125 -32.5 L 35.875 -32.5 L 24.34375 0 L 12.0625 0 L 0.53125 -32.5 L 11.1875 -32.5 Z M 18.234375 -9.3125 "/></g></g></g><g clip-path="url(#b4f63d5a1c)"><g fill="#ffffff" fill-opacity="1"><g transform="translate(339.115726, 61.637569)"><g><path d="M 34.25 -16.78125 C 34.25 -15.84375 34.191406 -14.867188 34.078125 -13.859375 L 11.53125 -13.859375 C 11.6875 -11.835938 12.335938 -10.289062 13.484375 -9.21875 C 14.628906 -8.15625 16.035156 -7.625 17.703125 -7.625 C 20.191406 -7.625 21.921875 -8.675781 22.890625 -10.78125 L 33.5 -10.78125 C 32.945312 -8.644531 31.960938 -6.722656 30.546875 -5.015625 C 29.128906 -3.304688 27.351562 -1.960938 25.21875 -0.984375 C 23.082031 -0.015625 20.695312 0.46875 18.0625 0.46875 C 14.875 0.46875 12.035156 -0.207031 9.546875 -1.5625 C 7.066406 -2.925781 5.125 -4.867188 3.71875 -7.390625 C 2.320312 -9.921875 1.625 -12.875 1.625 -16.25 C 1.625 -19.625 2.3125 -22.570312 3.6875 -25.09375 C 5.070312 -27.625 7.003906 -29.566406 9.484375 -30.921875 C 11.972656 -32.285156 14.832031 -32.96875 18.0625 -32.96875 C 21.207031 -32.96875 24 -32.304688 26.4375 -30.984375 C 28.882812 -29.671875 30.796875 -27.789062 32.171875 -25.34375 C 33.554688 -22.894531 34.25 -20.039062 34.25 -16.78125 Z M 24.0625 -19.390625 C 24.0625 -21.097656 23.476562 -22.457031 22.3125 -23.46875 C 21.144531 -24.476562 19.6875 -24.984375 17.9375 -24.984375 C 16.269531 -24.984375 14.863281 -24.5 13.71875 -23.53125 C 12.570312 -22.5625 11.863281 -21.179688 11.59375 -19.390625 Z M 24.0625 -19.390625 "/></g></g></g></g></g></g></svg>