<svg xmlns="http://www.w3.org/2000/svg" xmlns:xlink="http://www.w3.org/1999/xlink" width="500" zoomAndPan="magnify" viewBox="0 0 375 374.999991" height="500" preserveAspectRatio="xMidYMid meet" version="1.0"><defs><g/><clipPath id="78e9d329e8"><path d="M 358.421875 162.96875 L 373.355469 162.96875 L 373.355469 177.214844 L 358.421875 177.214844 Z M 358.421875 162.96875 " clip-rule="nonzero"/></clipPath><clipPath id="0c76f9b0f3"><path d="M 120.839844 184.792969 L 128.300781 184.792969 L 128.300781 197.542969 L 120.839844 197.542969 Z M 120.839844 184.792969 " clip-rule="nonzero"/></clipPath><clipPath id="35690560fa"><path d="M 117.699219 185 L 124 185 L 124 192 L 117.699219 192 Z M 117.699219 185 " clip-rule="nonzero"/></clipPath><clipPath id="08884b4955"><path d="M 125 191 L 131.199219 191 L 131.199219 197 L 125 197 Z M 125 191 " clip-rule="nonzero"/></clipPath><clipPath id="90b5357a40"><path d="M 108.546875 175 L 140.796875 175 L 140.796875 191 L 108.546875 191 Z M 108.546875 175 " clip-rule="nonzero"/></clipPath><clipPath id="589910f367"><path d="M 108.546875 192 L 140.796875 192 L 140.796875 208 L 108.546875 208 Z M 108.546875 192 " clip-rule="nonzero"/></clipPath><clipPath id="23162de3db"><path d="M 108.546875 175 L 140.796875 175 L 140.796875 190 L 108.546875 190 Z M 108.546875 175 " clip-rule="nonzero"/></clipPath></defs><g clip-path="url(#78e9d329e8)"><path fill="#ffffff" d="M 364.804688 169.921875 L 365.601562 169.921875 C 366.53125 169.921875 367.285156 169.613281 367.285156 168.859375 C 367.285156 168.195312 366.796875 167.753906 365.734375 167.753906 C 365.289062 167.753906 364.980469 167.796875 364.804688 167.839844 Z M 364.757812 174 L 363.074219 174 L 363.074219 166.734375 C 363.738281 166.644531 364.671875 166.511719 365.867188 166.511719 C 367.238281 166.511719 367.859375 166.734375 368.347656 167.085938 C 368.789062 167.398438 369.101562 167.929688 369.101562 168.636719 C 369.101562 169.523438 368.4375 170.101562 367.59375 170.367188 L 367.59375 170.453125 C 368.304688 170.675781 368.65625 171.25 368.878906 172.226562 C 369.101562 173.335938 369.277344 173.734375 369.410156 174 L 367.640625 174 C 367.417969 173.734375 367.285156 173.113281 367.0625 172.226562 C 366.929688 171.472656 366.488281 171.117188 365.554688 171.117188 L 364.757812 171.117188 Z M 360.285156 170.234375 C 360.285156 173.46875 362.722656 176.035156 365.957031 176.035156 C 369.101562 176.082031 371.492188 173.46875 371.492188 170.277344 C 371.492188 167.042969 369.101562 164.429688 365.867188 164.429688 C 362.722656 164.429688 360.285156 167.042969 360.285156 170.234375 Z M 373.355469 170.234375 C 373.355469 174.308594 370.074219 177.542969 365.910156 177.542969 C 361.746094 177.542969 358.421875 174.308594 358.421875 170.234375 C 358.421875 166.15625 361.746094 162.96875 365.957031 162.96875 C 370.074219 162.96875 373.355469 166.15625 373.355469 170.234375 " fill-opacity="1" fill-rule="nonzero"/></g><g fill="#0066f2" fill-opacity="1"><g transform="translate(3.054512, 206.624547)"><g><path d="M 24.90625 0 L 15.59375 -15.984375 L 9.421875 -15.984375 L 9.421875 0 L 4.3125 0 L 4.3125 -39.09375 L 16.9375 -39.09375 C 19.894531 -39.09375 22.390625 -38.585938 24.421875 -37.578125 C 26.460938 -36.566406 27.988281 -35.203125 29 -33.484375 C 30.007812 -31.765625 30.515625 -29.800781 30.515625 -27.59375 C 30.515625 -24.90625 29.738281 -22.53125 28.1875 -20.46875 C 26.632812 -18.414062 24.304688 -17.050781 21.203125 -16.375 L 31.015625 0 Z M 9.421875 -20.078125 L 16.9375 -20.078125 C 19.707031 -20.078125 21.78125 -20.757812 23.15625 -22.125 C 24.539062 -23.488281 25.234375 -25.3125 25.234375 -27.59375 C 25.234375 -29.914062 24.550781 -31.710938 23.1875 -32.984375 C 21.820312 -34.253906 19.738281 -34.890625 16.9375 -34.890625 L 9.421875 -34.890625 Z M 9.421875 -20.078125 "/></g></g></g><g fill="#0066f2" fill-opacity="1"><g transform="translate(36.032789, 206.624547)"><g><path d="M 32.359375 -16.546875 C 32.359375 -15.578125 32.304688 -14.550781 32.203125 -13.46875 L 7.625 -13.46875 C 7.8125 -10.4375 8.847656 -8.066406 10.734375 -6.359375 C 12.628906 -4.660156 14.921875 -3.8125 17.609375 -3.8125 C 19.816406 -3.8125 21.660156 -4.328125 23.140625 -5.359375 C 24.617188 -6.390625 25.65625 -7.765625 26.25 -9.484375 L 31.75 -9.484375 C 30.925781 -6.523438 29.28125 -4.117188 26.8125 -2.265625 C 24.34375 -0.421875 21.273438 0.5 17.609375 0.5 C 14.691406 0.5 12.082031 -0.148438 9.78125 -1.453125 C 7.488281 -2.765625 5.6875 -4.625 4.375 -7.03125 C 3.0625 -9.445312 2.40625 -12.242188 2.40625 -15.421875 C 2.40625 -18.597656 3.039062 -21.382812 4.3125 -23.78125 C 5.582031 -26.175781 7.367188 -28.019531 9.671875 -29.3125 C 11.972656 -30.601562 14.617188 -31.25 17.609375 -31.25 C 20.523438 -31.25 23.101562 -30.613281 25.34375 -29.34375 C 27.59375 -28.070312 29.320312 -26.320312 30.53125 -24.09375 C 31.75 -21.863281 32.359375 -19.347656 32.359375 -16.546875 Z M 27.09375 -17.609375 C 27.09375 -19.554688 26.660156 -21.226562 25.796875 -22.625 C 24.941406 -24.03125 23.773438 -25.097656 22.296875 -25.828125 C 20.816406 -26.554688 19.179688 -26.921875 17.390625 -26.921875 C 14.804688 -26.921875 12.609375 -26.097656 10.796875 -24.453125 C 8.984375 -22.804688 7.945312 -20.523438 7.6875 -17.609375 Z M 27.09375 -17.609375 "/></g></g></g><g fill="#0066f2" fill-opacity="1"><g transform="translate(69.684093, 206.624547)"><g><path d="M 9.421875 -25.078125 C 10.429688 -26.828125 11.9375 -28.289062 13.9375 -29.46875 C 15.9375 -30.65625 18.265625 -31.25 20.921875 -31.25 C 23.648438 -31.25 26.125 -30.59375 28.34375 -29.28125 C 30.570312 -27.96875 32.320312 -26.125 33.59375 -23.75 C 34.863281 -21.375 35.5 -18.617188 35.5 -15.484375 C 35.5 -12.378906 34.863281 -9.609375 33.59375 -7.171875 C 32.320312 -4.742188 30.570312 -2.859375 28.34375 -1.515625 C 26.125 -0.171875 23.648438 0.5 20.921875 0.5 C 18.304688 0.5 16 -0.0859375 14 -1.265625 C 12 -2.441406 10.472656 -3.910156 9.421875 -5.671875 L 9.421875 14.578125 L 4.3125 14.578125 L 4.3125 -30.734375 L 9.421875 -30.734375 Z M 30.296875 -15.484375 C 30.296875 -17.796875 29.828125 -19.8125 28.890625 -21.53125 C 27.953125 -23.257812 26.6875 -24.570312 25.09375 -25.46875 C 23.507812 -26.363281 21.765625 -26.8125 19.859375 -26.8125 C 17.984375 -26.8125 16.25 -26.351562 14.65625 -25.4375 C 13.070312 -24.519531 11.800781 -23.191406 10.84375 -21.453125 C 9.894531 -19.710938 9.421875 -17.703125 9.421875 -15.421875 C 9.421875 -13.109375 9.894531 -11.082031 10.84375 -9.34375 C 11.800781 -7.601562 13.070312 -6.273438 14.65625 -5.359375 C 16.25 -4.441406 17.984375 -3.984375 19.859375 -3.984375 C 21.765625 -3.984375 23.507812 -4.441406 25.09375 -5.359375 C 26.6875 -6.273438 27.953125 -7.601562 28.890625 -9.34375 C 29.828125 -11.082031 30.296875 -13.128906 30.296875 -15.484375 Z M 30.296875 -15.484375 "/></g></g></g><g fill="#0066f2" fill-opacity="1"><g transform="translate(106.484193, 206.624547)"><g/></g></g><g fill="#0066f2" fill-opacity="1"><g transform="translate(120.337173, 206.624547)"><g/></g></g><g fill="#0066f2" fill-opacity="1"><g transform="translate(134.190154, 206.624547)"><g/></g></g><g clip-path="url(#0c76f9b0f3)"><path fill="#0066f2" d="M 127.847656 184.875 C 127.460938 184.679688 126.988281 184.832031 126.792969 185.21875 L 120.953125 196.707031 C 120.757812 197.09375 120.910156 197.566406 121.296875 197.761719 C 121.410156 197.820312 121.53125 197.847656 121.652344 197.847656 C 121.9375 197.847656 122.214844 197.691406 122.351562 197.417969 L 128.191406 185.933594 C 128.390625 185.546875 128.234375 185.074219 127.847656 184.875 Z M 127.847656 184.875 " fill-opacity="1" fill-rule="nonzero"/></g><g clip-path="url(#35690560fa)"><path fill="#0066f2" d="M 123.65625 188.660156 C 123.65625 187.015625 122.320312 185.679688 120.675781 185.679688 C 119.035156 185.679688 117.699219 187.015625 117.699219 188.660156 C 117.699219 190.300781 119.035156 191.636719 120.675781 191.636719 C 122.320312 191.636719 123.65625 190.300781 123.65625 188.660156 Z M 120.675781 190.066406 C 119.902344 190.066406 119.269531 189.433594 119.269531 188.660156 C 119.269531 187.882812 119.902344 187.25 120.675781 187.25 C 121.453125 187.25 122.085938 187.882812 122.085938 188.660156 C 122.085938 189.433594 121.453125 190.066406 120.675781 190.066406 Z M 120.675781 190.066406 " fill-opacity="1" fill-rule="nonzero"/></g><g clip-path="url(#08884b4955)"><path fill="#0066f2" d="M 128.503906 191.003906 C 126.863281 191.003906 125.527344 192.339844 125.527344 193.980469 C 125.527344 195.621094 126.859375 196.957031 128.503906 196.957031 C 130.144531 196.957031 131.480469 195.621094 131.480469 193.980469 C 131.480469 192.339844 130.144531 191.003906 128.503906 191.003906 Z M 128.503906 195.386719 C 127.726562 195.386719 127.097656 194.757812 127.097656 193.980469 C 127.097656 193.203125 127.726562 192.574219 128.503906 192.574219 C 129.28125 192.574219 129.910156 193.203125 129.910156 193.980469 C 129.910156 194.757812 129.28125 195.386719 128.503906 195.386719 Z M 128.503906 195.386719 " fill-opacity="1" fill-rule="nonzero"/></g><g fill="#ffffff" fill-opacity="1"><g transform="translate(143.252148, 206.624547)"><g><path d="M 23.5625 0 L 15.375 -14.859375 L 13.0625 -14.859375 L 13.0625 0 L 3.484375 0 L 3.484375 -39.375 L 19.578125 -39.375 C 22.679688 -39.375 25.328125 -38.832031 27.515625 -37.75 C 29.703125 -36.664062 31.335938 -35.175781 32.421875 -33.28125 C 33.503906 -31.394531 34.046875 -29.296875 34.046875 -26.984375 C 34.046875 -24.359375 33.304688 -22.019531 31.828125 -19.96875 C 30.359375 -17.914062 28.179688 -16.457031 25.296875 -15.59375 L 34.390625 0 Z M 13.0625 -21.65625 L 19.015625 -21.65625 C 20.773438 -21.65625 22.09375 -22.082031 22.96875 -22.9375 C 23.84375 -23.800781 24.28125 -25.019531 24.28125 -26.59375 C 24.28125 -28.082031 23.84375 -29.253906 22.96875 -30.109375 C 22.09375 -30.972656 20.773438 -31.40625 19.015625 -31.40625 L 13.0625 -31.40625 Z M 13.0625 -21.65625 "/></g></g></g><g fill="#ffffff" fill-opacity="1"><g transform="translate(178.698194, 206.624547)"><g><path d="M 32.984375 -16.15625 C 32.984375 -15.257812 32.925781 -14.320312 32.8125 -13.34375 L 11.109375 -13.34375 C 11.253906 -11.40625 11.878906 -9.921875 12.984375 -8.890625 C 14.085938 -7.859375 15.441406 -7.34375 17.046875 -7.34375 C 19.441406 -7.34375 21.109375 -8.351562 22.046875 -10.375 L 32.25 -10.375 C 31.726562 -8.320312 30.785156 -6.472656 29.421875 -4.828125 C 28.054688 -3.179688 26.34375 -1.890625 24.28125 -0.953125 C 22.226562 -0.015625 19.929688 0.453125 17.390625 0.453125 C 14.328125 0.453125 11.597656 -0.203125 9.203125 -1.515625 C 6.804688 -2.828125 4.9375 -4.695312 3.59375 -7.125 C 2.25 -9.550781 1.578125 -12.394531 1.578125 -15.65625 C 1.578125 -18.90625 2.238281 -21.742188 3.5625 -24.171875 C 4.882812 -26.609375 6.742188 -28.476562 9.140625 -29.78125 C 11.535156 -31.09375 14.285156 -31.75 17.390625 -31.75 C 20.421875 -31.75 23.113281 -31.113281 25.46875 -29.84375 C 27.820312 -28.570312 29.660156 -26.753906 30.984375 -24.390625 C 32.316406 -22.035156 32.984375 -19.289062 32.984375 -16.15625 Z M 23.171875 -18.671875 C 23.171875 -20.316406 22.609375 -21.625 21.484375 -22.59375 C 20.359375 -23.570312 18.957031 -24.0625 17.28125 -24.0625 C 15.664062 -24.0625 14.304688 -23.59375 13.203125 -22.65625 C 12.109375 -21.726562 11.425781 -20.398438 11.15625 -18.671875 Z M 23.171875 -18.671875 "/></g></g></g><g fill="#ffffff" fill-opacity="1"><g transform="translate(212.125148, 206.624547)"><g><path d="M 16.21875 0.453125 C 13.476562 0.453125 11.039062 -0.015625 8.90625 -0.953125 C 6.78125 -1.890625 5.097656 -3.171875 3.859375 -4.796875 C 2.628906 -6.421875 1.941406 -8.242188 1.796875 -10.265625 L 11.28125 -10.265625 C 11.382812 -9.179688 11.882812 -8.300781 12.78125 -7.625 C 13.6875 -6.957031 14.789062 -6.625 16.09375 -6.625 C 17.289062 -6.625 18.21875 -6.851562 18.875 -7.3125 C 19.53125 -7.78125 19.859375 -8.390625 19.859375 -9.140625 C 19.859375 -10.035156 19.390625 -10.695312 18.453125 -11.125 C 17.515625 -11.5625 16 -12.039062 13.90625 -12.5625 C 11.664062 -13.082031 9.796875 -13.632812 8.296875 -14.21875 C 6.804688 -14.800781 5.515625 -15.71875 4.421875 -16.96875 C 3.335938 -18.21875 2.796875 -19.910156 2.796875 -22.046875 C 2.796875 -23.835938 3.289062 -25.472656 4.28125 -26.953125 C 5.28125 -28.429688 6.742188 -29.597656 8.671875 -30.453125 C 10.597656 -31.316406 12.882812 -31.75 15.53125 -31.75 C 19.457031 -31.75 22.550781 -30.773438 24.8125 -28.828125 C 27.082031 -26.890625 28.382812 -24.3125 28.71875 -21.09375 L 19.859375 -21.09375 C 19.703125 -22.175781 19.222656 -23.035156 18.421875 -23.671875 C 17.617188 -24.304688 16.5625 -24.625 15.25 -24.625 C 14.132812 -24.625 13.273438 -24.40625 12.671875 -23.96875 C 12.078125 -23.539062 11.78125 -22.957031 11.78125 -22.21875 C 11.78125 -21.3125 12.253906 -20.632812 13.203125 -20.1875 C 14.160156 -19.738281 15.648438 -19.289062 17.671875 -18.84375 C 19.984375 -18.25 21.867188 -17.660156 23.328125 -17.078125 C 24.785156 -16.503906 26.066406 -15.570312 27.171875 -14.28125 C 28.273438 -12.988281 28.847656 -11.257812 28.890625 -9.09375 C 28.890625 -7.257812 28.375 -5.617188 27.34375 -4.171875 C 26.3125 -2.734375 24.832031 -1.601562 22.90625 -0.78125 C 20.988281 0.0390625 18.757812 0.453125 16.21875 0.453125 Z M 16.21875 0.453125 "/></g></g></g><g fill="#ffffff" fill-opacity="1"><g transform="translate(242.29913, 206.624547)"><g><path d="M 32.984375 -16.15625 C 32.984375 -15.257812 32.925781 -14.320312 32.8125 -13.34375 L 11.109375 -13.34375 C 11.253906 -11.40625 11.878906 -9.921875 12.984375 -8.890625 C 14.085938 -7.859375 15.441406 -7.34375 17.046875 -7.34375 C 19.441406 -7.34375 21.109375 -8.351562 22.046875 -10.375 L 32.25 -10.375 C 31.726562 -8.320312 30.785156 -6.472656 29.421875 -4.828125 C 28.054688 -3.179688 26.34375 -1.890625 24.28125 -0.953125 C 22.226562 -0.015625 19.929688 0.453125 17.390625 0.453125 C 14.328125 0.453125 11.597656 -0.203125 9.203125 -1.515625 C 6.804688 -2.828125 4.9375 -4.695312 3.59375 -7.125 C 2.25 -9.550781 1.578125 -12.394531 1.578125 -15.65625 C 1.578125 -18.90625 2.238281 -21.742188 3.5625 -24.171875 C 4.882812 -26.609375 6.742188 -28.476562 9.140625 -29.78125 C 11.535156 -31.09375 14.285156 -31.75 17.390625 -31.75 C 20.421875 -31.75 23.113281 -31.113281 25.46875 -29.84375 C 27.820312 -28.570312 29.660156 -26.753906 30.984375 -24.390625 C 32.316406 -22.035156 32.984375 -19.289062 32.984375 -16.15625 Z M 23.171875 -18.671875 C 23.171875 -20.316406 22.609375 -21.625 21.484375 -22.59375 C 20.359375 -23.570312 18.957031 -24.0625 17.28125 -24.0625 C 15.664062 -24.0625 14.304688 -23.59375 13.203125 -22.65625 C 12.109375 -21.726562 11.425781 -20.398438 11.15625 -18.671875 Z M 23.171875 -18.671875 "/></g></g></g><g fill="#ffffff" fill-opacity="1"><g transform="translate(275.726084, 206.624547)"><g><path d="M 13.0625 -26.078125 C 14.1875 -27.796875 15.585938 -29.148438 17.265625 -30.140625 C 18.953125 -31.140625 20.828125 -31.640625 22.890625 -31.640625 L 22.890625 -21.484375 L 20.25 -21.484375 C 17.851562 -21.484375 16.054688 -20.96875 14.859375 -19.9375 C 13.660156 -18.914062 13.0625 -17.113281 13.0625 -14.53125 L 13.0625 0 L 3.484375 0 L 3.484375 -31.296875 L 13.0625 -31.296875 Z M 13.0625 -26.078125 "/></g></g></g><g fill="#ffffff" fill-opacity="1"><g transform="translate(298.608899, 206.624547)"><g><path d="M 17.5625 -8.96875 L 24.34375 -31.296875 L 34.546875 -31.296875 L 23.453125 0 L 11.609375 0 L 0.5 -31.296875 L 10.765625 -31.296875 Z M 17.5625 -8.96875 "/></g></g></g><g fill="#ffffff" fill-opacity="1"><g transform="translate(332.596717, 206.624547)"><g><path d="M 32.984375 -16.15625 C 32.984375 -15.257812 32.925781 -14.320312 32.8125 -13.34375 L 11.109375 -13.34375 C 11.253906 -11.40625 11.878906 -9.921875 12.984375 -8.890625 C 14.085938 -7.859375 15.441406 -7.34375 17.046875 -7.34375 C 19.441406 -7.34375 21.109375 -8.351562 22.046875 -10.375 L 32.25 -10.375 C 31.726562 -8.320312 30.785156 -6.472656 29.421875 -4.828125 C 28.054688 -3.179688 26.34375 -1.890625 24.28125 -0.953125 C 22.226562 -0.015625 19.929688 0.453125 17.390625 0.453125 C 14.328125 0.453125 11.597656 -0.203125 9.203125 -1.515625 C 6.804688 -2.828125 4.9375 -4.695312 3.59375 -7.125 C 2.25 -9.550781 1.578125 -12.394531 1.578125 -15.65625 C 1.578125 -18.90625 2.238281 -21.742188 3.5625 -24.171875 C 4.882812 -26.609375 6.742188 -28.476562 9.140625 -29.78125 C 11.535156 -31.09375 14.285156 -31.75 17.390625 -31.75 C 20.421875 -31.75 23.113281 -31.113281 25.46875 -29.84375 C 27.820312 -28.570312 29.660156 -26.753906 30.984375 -24.390625 C 32.316406 -22.035156 32.984375 -19.289062 32.984375 -16.15625 Z M 23.171875 -18.671875 C 23.171875 -20.316406 22.609375 -21.625 21.484375 -22.59375 C 20.359375 -23.570312 18.957031 -24.0625 17.28125 -24.0625 C 15.664062 -24.0625 14.304688 -23.59375 13.203125 -22.65625 C 12.109375 -21.726562 11.425781 -20.398438 11.15625 -18.671875 Z M 23.171875 -18.671875 "/></g></g></g><g clip-path="url(#90b5357a40)"><path fill="#0066f2" d="M 124.589844 179.742188 C 125.523438 179.742188 126.441406 179.855469 127.347656 180.074219 C 128.253906 180.296875 129.121094 180.625 129.949219 181.058594 C 130.773438 181.488281 131.539062 182.015625 132.238281 182.632812 C 132.9375 183.25 133.554688 183.941406 134.085938 184.707031 L 130.65625 188.015625 L 140.582031 188.015625 L 140.582031 178.089844 L 137.273438 181.585938 C 136.792969 180.957031 136.269531 180.371094 135.703125 179.820312 C 135.132812 179.273438 134.527344 178.769531 133.886719 178.308594 C 133.242188 177.851562 132.570312 177.441406 131.867188 177.082031 C 131.164062 176.722656 130.441406 176.417969 129.691406 176.164062 C 128.945312 175.914062 128.179688 175.71875 127.402344 175.578125 C 126.625 175.441406 125.84375 175.359375 125.054688 175.335938 C 124.265625 175.3125 123.476562 175.351562 122.695312 175.445312 C 121.910156 175.535156 121.136719 175.6875 120.375 175.894531 C 119.613281 176.105469 118.871094 176.367188 118.148438 176.683594 C 117.425781 177.003906 116.730469 177.371094 116.0625 177.792969 C 115.394531 178.214844 114.761719 178.683594 114.164062 179.199219 C 113.566406 179.710938 113.007812 180.269531 112.492188 180.867188 C 111.976562 181.464844 111.507812 182.09375 111.085938 182.761719 C 110.664062 183.429688 110.292969 184.125 109.972656 184.84375 C 109.652344 185.566406 109.386719 186.308594 109.175781 187.070312 C 108.96875 187.832031 108.816406 188.605469 108.71875 189.386719 L 113.082031 190.058594 C 113.160156 189.355469 113.300781 188.667969 113.503906 187.992188 C 113.707031 187.3125 113.972656 186.660156 114.292969 186.03125 C 114.617188 185.402344 114.996094 184.808594 115.425781 184.25 C 115.859375 183.691406 116.339844 183.175781 116.863281 182.703125 C 117.390625 182.230469 117.957031 181.808594 118.558594 181.441406 C 119.164062 181.074219 119.792969 180.761719 120.453125 180.507812 C 121.113281 180.257812 121.792969 180.066406 122.488281 179.9375 C 123.183594 179.808594 123.882812 179.742188 124.589844 179.742188 Z M 124.589844 179.742188 " fill-opacity="1" fill-rule="nonzero"/></g><g clip-path="url(#589910f367)"><path fill="#0066f2" d="M 124.589844 207.316406 C 125.558594 207.316406 126.519531 207.226562 127.472656 207.054688 C 128.425781 206.878906 129.355469 206.621094 130.257812 206.277344 C 131.164062 205.933594 132.03125 205.511719 132.859375 205.011719 C 133.691406 204.511719 134.46875 203.9375 135.191406 203.296875 C 135.917969 202.65625 136.578125 201.953125 137.175781 201.191406 C 137.773438 200.429688 138.296875 199.617188 138.746094 198.761719 C 139.195312 197.902344 139.566406 197.011719 139.855469 196.085938 C 140.140625 195.164062 140.34375 194.21875 140.460938 193.257812 L 136.097656 192.585938 C 135.972656 193.757812 135.671875 194.882812 135.199219 195.960938 C 134.726562 197.042969 134.105469 198.027344 133.332031 198.917969 C 132.5625 199.808594 131.671875 200.5625 130.671875 201.179688 C 129.667969 201.800781 128.59375 202.253906 127.453125 202.542969 C 126.3125 202.835938 125.152344 202.949219 123.976562 202.886719 C 122.796875 202.824219 121.65625 202.585938 120.554688 202.175781 C 119.449219 201.765625 118.433594 201.195312 117.5 200.476562 C 116.570312 199.753906 115.765625 198.90625 115.09375 197.941406 L 118.523438 194.632812 L 108.597656 194.632812 L 108.597656 204.558594 L 111.90625 201.0625 C 112.652344 202.035156 113.5 202.910156 114.445312 203.691406 C 115.394531 204.46875 116.417969 205.128906 117.515625 205.671875 C 118.617188 206.214844 119.765625 206.625 120.960938 206.902344 C 122.152344 207.179688 123.363281 207.316406 124.589844 207.316406 Z M 124.589844 207.316406 " fill-opacity="1" fill-rule="nonzero"/><path fill="#0066f2" d="M 124.589844 205.109375 C 122.765625 205.113281 121.007812 204.765625 119.320312 204.066406 C 117.632812 203.367188 116.144531 202.371094 114.851562 201.078125 C 114.648438 200.875 108.597656 194.632812 108.597656 194.632812 L 108.597656 204.558594 L 111.90625 201.0625 C 112.386719 201.6875 112.910156 202.277344 113.480469 202.824219 C 114.046875 203.371094 114.652344 203.875 115.292969 204.335938 C 115.9375 204.792969 116.609375 205.203125 117.3125 205.5625 C 118.015625 205.921875 118.742188 206.226562 119.488281 206.480469 C 120.238281 206.730469 121 206.925781 121.777344 207.066406 C 122.554688 207.203125 123.335938 207.285156 124.128906 207.308594 C 124.917969 207.332031 125.703125 207.296875 126.488281 207.203125 C 127.269531 207.109375 128.042969 206.957031 128.804688 206.75 C 129.566406 206.542969 130.308594 206.277344 131.03125 205.960938 C 131.753906 205.640625 132.449219 205.273438 133.117188 204.851562 C 133.785156 204.429688 134.417969 203.964844 135.015625 203.449219 C 135.613281 202.933594 136.171875 202.378906 136.6875 201.78125 C 137.203125 201.183594 137.671875 200.550781 138.097656 199.882812 C 138.519531 199.214844 138.890625 198.523438 139.210938 197.800781 C 139.527344 197.078125 139.792969 196.335938 140.003906 195.574219 C 140.214844 194.816406 140.367188 194.042969 140.460938 193.257812 L 138.28125 192.921875 C 138.183594 193.753906 138.011719 194.570312 137.765625 195.371094 C 137.519531 196.171875 137.203125 196.945312 136.816406 197.6875 C 136.429688 198.429688 135.980469 199.132812 135.464844 199.792969 C 134.949219 200.453125 134.378906 201.0625 133.753906 201.621094 C 133.128906 202.175781 132.457031 202.671875 131.742188 203.109375 C 131.027344 203.542969 130.277344 203.910156 129.492188 204.207031 C 128.710938 204.503906 127.90625 204.730469 127.082031 204.882812 C 126.257812 205.035156 125.429688 205.109375 124.589844 205.109375 Z M 124.589844 205.109375 " fill-opacity="1" fill-rule="nonzero"/></g><g clip-path="url(#23162de3db)"><path fill="#0066f2" d="M 140.582031 178.089844 L 137.273438 181.585938 C 136.792969 180.957031 136.269531 180.371094 135.703125 179.820312 C 135.132812 179.273438 134.527344 178.769531 133.886719 178.308594 C 133.242188 177.851562 132.570312 177.441406 131.867188 177.082031 C 131.164062 176.722656 130.441406 176.417969 129.691406 176.164062 C 128.945312 175.914062 128.179688 175.71875 127.402344 175.578125 C 126.625 175.441406 125.84375 175.359375 125.054688 175.335938 C 124.265625 175.3125 123.476562 175.351562 122.695312 175.445312 C 121.910156 175.535156 121.136719 175.6875 120.375 175.894531 C 119.613281 176.105469 118.871094 176.367188 118.148438 176.683594 C 117.425781 177.003906 116.730469 177.371094 116.0625 177.792969 C 115.394531 178.214844 114.761719 178.683594 114.164062 179.199219 C 113.566406 179.710938 113.007812 180.269531 112.492188 180.867188 C 111.976562 181.464844 111.507812 182.09375 111.085938 182.761719 C 110.664062 183.429688 110.292969 184.125 109.972656 184.84375 C 109.652344 185.566406 109.386719 186.308594 109.175781 187.070312 C 108.96875 187.832031 108.816406 188.605469 108.71875 189.386719 L 110.898438 189.722656 C 111.050781 188.4375 111.375 187.195312 111.875 186.003906 C 112.375 184.808594 113.027344 183.703125 113.839844 182.695312 C 114.648438 181.683594 115.582031 180.804688 116.640625 180.058594 C 117.699219 179.3125 118.839844 178.726562 120.0625 178.300781 C 121.285156 177.875 122.542969 177.628906 123.835938 177.558594 C 125.128906 177.488281 126.410156 177.597656 127.671875 177.886719 C 128.933594 178.175781 130.128906 178.632812 131.261719 179.261719 C 132.398438 179.886719 133.421875 180.660156 134.335938 181.574219 C 136.085938 183.324219 140.582031 188.015625 140.582031 188.015625 Z M 140.582031 178.089844 " fill-opacity="1" fill-rule="nonzero"/></g></svg>