<svg xmlns="http://www.w3.org/2000/svg" xmlns:xlink="http://www.w3.org/1999/xlink" width="500" zoomAndPan="magnify" viewBox="0 0 375 374.999991" height="500" preserveAspectRatio="xMidYMid meet" version="1.0"><defs><g/><clipPath id="b50e3d4865"><path d="M 0 0.640625 L 150 0.640625 L 150 82 L 0 82 Z M 0 0.640625 " clip-rule="nonzero"/></clipPath><clipPath id="688513630c"><rect x="0" width="150" y="0" height="82"/></clipPath><clipPath id="b16879f212"><path d="M 107.703125 29 L 140.925781 29 L 140.925781 45 L 107.703125 45 Z M 107.703125 29 " clip-rule="nonzero"/></clipPath><clipPath id="e039316c7a"><path d="M 107.703125 46 L 140.925781 46 L 140.925781 63 L 107.703125 63 Z M 107.703125 46 " clip-rule="nonzero"/></clipPath><clipPath id="855c0eccfd"><path d="M 107.703125 47 L 140.925781 47 L 140.925781 63 L 107.703125 63 Z M 107.703125 47 " clip-rule="nonzero"/></clipPath><clipPath id="afd27db663"><path d="M 107.703125 29 L 140.925781 29 L 140.925781 44 L 107.703125 44 Z M 107.703125 29 " clip-rule="nonzero"/></clipPath><clipPath id="e72d1f5cbe"><path d="M 116.671875 38.003906 L 131.773438 38.003906 L 131.773438 53.105469 L 116.671875 53.105469 Z M 116.671875 38.003906 " clip-rule="nonzero"/></clipPath><clipPath id="0fbdb5cc57"><rect x="0" width="373" y="0" height="82"/></clipPath></defs><g transform="matrix(1, 0, 0, 1, 0, 146)"><g clip-path="url(#0fbdb5cc57)"><g clip-path="url(#b50e3d4865)"><g transform="matrix(1, 0, 0, 1, 0, 0)"><g clip-path="url(#688513630c)"><g fill="#ffffff" fill-opacity="1"><g transform="translate(-0.749995, 61.547435)"><g><path d="M 25.609375 0 L 16.03125 -16.4375 L 9.6875 -16.4375 L 9.6875 0 L 4.4375 0 L 4.4375 -40.203125 L 17.421875 -40.203125 C 20.453125 -40.203125 23.015625 -39.679688 25.109375 -38.640625 C 27.210938 -37.597656 28.78125 -36.191406 29.8125 -34.421875 C 30.851562 -32.660156 31.375 -30.644531 31.375 -28.375 C 31.375 -25.601562 30.578125 -23.160156 28.984375 -21.046875 C 27.390625 -18.929688 24.992188 -17.53125 21.796875 -16.84375 L 31.890625 0 Z M 9.6875 -20.640625 L 17.421875 -20.640625 C 20.265625 -20.640625 22.394531 -21.34375 23.8125 -22.75 C 25.238281 -24.15625 25.953125 -26.03125 25.953125 -28.375 C 25.953125 -30.757812 25.25 -32.601562 23.84375 -33.90625 C 22.445312 -35.21875 20.304688 -35.875 17.421875 -35.875 L 9.6875 -35.875 Z M 9.6875 -20.640625 "/></g></g></g><g fill="#ffffff" fill-opacity="1"><g transform="translate(33.156124, 61.547435)"><g><path d="M 33.28125 -17.015625 C 33.28125 -16.015625 33.222656 -14.957031 33.109375 -13.84375 L 7.84375 -13.84375 C 8.03125 -10.726562 9.09375 -8.296875 11.03125 -6.546875 C 12.976562 -4.796875 15.335938 -3.921875 18.109375 -3.921875 C 20.378906 -3.921875 22.269531 -4.445312 23.78125 -5.5 C 25.300781 -6.5625 26.367188 -7.976562 26.984375 -9.75 L 32.640625 -9.75 C 31.796875 -6.707031 30.101562 -4.234375 27.5625 -2.328125 C 25.03125 -0.429688 21.878906 0.515625 18.109375 0.515625 C 15.109375 0.515625 12.425781 -0.15625 10.0625 -1.5 C 7.695312 -2.84375 5.84375 -4.753906 4.5 -7.234375 C 3.15625 -9.710938 2.484375 -12.585938 2.484375 -15.859375 C 2.484375 -19.128906 3.132812 -21.992188 4.4375 -24.453125 C 5.75 -26.910156 7.585938 -28.800781 9.953125 -30.125 C 12.316406 -31.457031 15.035156 -32.125 18.109375 -32.125 C 21.109375 -32.125 23.757812 -31.46875 26.0625 -30.15625 C 28.375 -28.851562 30.15625 -27.054688 31.40625 -24.765625 C 32.65625 -22.484375 33.28125 -19.898438 33.28125 -17.015625 Z M 27.859375 -18.109375 C 27.859375 -20.109375 27.414062 -21.828125 26.53125 -23.265625 C 25.644531 -24.710938 24.441406 -25.8125 22.921875 -26.5625 C 21.398438 -27.3125 19.71875 -27.6875 17.875 -27.6875 C 15.226562 -27.6875 12.972656 -26.835938 11.109375 -25.140625 C 9.242188 -23.453125 8.175781 -21.109375 7.90625 -18.109375 Z M 27.859375 -18.109375 "/></g></g></g><g fill="#ffffff" fill-opacity="1"><g transform="translate(67.754212, 61.547435)"><g><path d="M 9.6875 -25.78125 C 10.726562 -27.582031 12.273438 -29.085938 14.328125 -30.296875 C 16.390625 -31.515625 18.785156 -32.125 21.515625 -32.125 C 24.316406 -32.125 26.859375 -31.453125 29.140625 -30.109375 C 31.429688 -28.765625 33.226562 -26.867188 34.53125 -24.421875 C 35.84375 -21.984375 36.5 -19.148438 36.5 -15.921875 C 36.5 -12.722656 35.84375 -9.875 34.53125 -7.375 C 33.226562 -4.882812 31.429688 -2.945312 29.140625 -1.5625 C 26.859375 -0.175781 24.316406 0.515625 21.515625 0.515625 C 18.816406 0.515625 16.4375 -0.0859375 14.375 -1.296875 C 12.320312 -2.503906 10.757812 -4.015625 9.6875 -5.828125 L 9.6875 15 L 4.4375 15 L 4.4375 -31.609375 L 9.6875 -31.609375 Z M 31.140625 -15.921875 C 31.140625 -18.304688 30.660156 -20.378906 29.703125 -22.140625 C 28.742188 -23.910156 27.445312 -25.253906 25.8125 -26.171875 C 24.175781 -27.097656 22.378906 -27.5625 20.421875 -27.5625 C 18.492188 -27.5625 16.710938 -27.085938 15.078125 -26.140625 C 13.441406 -25.203125 12.132812 -23.835938 11.15625 -22.046875 C 10.175781 -20.265625 9.6875 -18.203125 9.6875 -15.859375 C 9.6875 -13.472656 10.175781 -11.382812 11.15625 -9.59375 C 12.132812 -7.8125 13.441406 -6.445312 15.078125 -5.5 C 16.710938 -4.5625 18.492188 -4.09375 20.421875 -4.09375 C 22.378906 -4.09375 24.175781 -4.5625 25.8125 -5.5 C 27.445312 -6.445312 28.742188 -7.8125 29.703125 -9.59375 C 30.660156 -11.382812 31.140625 -13.492188 31.140625 -15.921875 Z M 31.140625 -15.921875 "/></g></g></g><g fill="#ffffff" fill-opacity="1"><g transform="translate(105.590682, 61.547435)"><g/></g></g><g fill="#ffffff" fill-opacity="1"><g transform="translate(119.833465, 61.547435)"><g/></g></g><g fill="#ffffff" fill-opacity="1"><g transform="translate(134.076248, 61.547435)"><g/></g></g></g></g></g><g fill="#0066f2" fill-opacity="1"><g transform="translate(143.382036, 61.553305)"><g><path d="M 24.21875 0 L 15.796875 -15.28125 L 13.4375 -15.28125 L 13.4375 0 L 3.578125 0 L 3.578125 -40.484375 L 20.125 -40.484375 C 23.320312 -40.484375 26.039062 -39.925781 28.28125 -38.8125 C 30.53125 -37.695312 32.210938 -36.164062 33.328125 -34.21875 C 34.441406 -32.28125 35 -30.117188 35 -27.734375 C 35 -25.046875 34.238281 -22.644531 32.71875 -20.53125 C 31.207031 -18.414062 28.972656 -16.914062 26.015625 -16.03125 L 35.359375 0 Z M 13.4375 -22.265625 L 19.546875 -22.265625 C 21.359375 -22.265625 22.710938 -22.707031 23.609375 -23.59375 C 24.515625 -24.476562 24.96875 -25.726562 24.96875 -27.34375 C 24.96875 -28.875 24.515625 -30.082031 23.609375 -30.96875 C 22.710938 -31.851562 21.359375 -32.296875 19.546875 -32.296875 L 13.4375 -32.296875 Z M 13.4375 -22.265625 "/></g></g></g><g fill="#0066f2" fill-opacity="1"><g transform="translate(179.826284, 61.553305)"><g><path d="M 33.90625 -16.609375 C 33.90625 -15.679688 33.847656 -14.71875 33.734375 -13.71875 L 11.421875 -13.71875 C 11.578125 -11.726562 12.21875 -10.203125 13.34375 -9.140625 C 14.476562 -8.085938 15.875 -7.5625 17.53125 -7.5625 C 19.988281 -7.5625 21.703125 -8.597656 22.671875 -10.671875 L 33.15625 -10.671875 C 32.625 -8.554688 31.65625 -6.648438 30.25 -4.953125 C 28.84375 -3.265625 27.082031 -1.9375 24.96875 -0.96875 C 22.851562 -0.0078125 20.488281 0.46875 17.875 0.46875 C 14.726562 0.46875 11.921875 -0.203125 9.453125 -1.546875 C 6.992188 -2.898438 5.070312 -4.828125 3.6875 -7.328125 C 2.300781 -9.828125 1.609375 -12.75 1.609375 -16.09375 C 1.609375 -19.4375 2.289062 -22.359375 3.65625 -24.859375 C 5.019531 -27.359375 6.929688 -29.28125 9.390625 -30.625 C 11.859375 -31.96875 14.6875 -32.640625 17.875 -32.640625 C 20.988281 -32.640625 23.753906 -31.984375 26.171875 -30.671875 C 28.597656 -29.367188 30.492188 -27.503906 31.859375 -25.078125 C 33.222656 -22.660156 33.90625 -19.835938 33.90625 -16.609375 Z M 23.8125 -19.203125 C 23.8125 -20.898438 23.234375 -22.242188 22.078125 -23.234375 C 20.929688 -24.234375 19.492188 -24.734375 17.765625 -24.734375 C 16.109375 -24.734375 14.710938 -24.253906 13.578125 -23.296875 C 12.441406 -22.335938 11.742188 -20.972656 11.484375 -19.203125 Z M 23.8125 -19.203125 "/></g></g></g><g fill="#0066f2" fill-opacity="1"><g transform="translate(214.19459, 61.553305)"><g><path d="M 16.671875 0.46875 C 13.859375 0.46875 11.351562 -0.0078125 9.15625 -0.96875 C 6.96875 -1.9375 5.238281 -3.253906 3.96875 -4.921875 C 2.707031 -6.597656 2 -8.472656 1.84375 -10.546875 L 11.59375 -10.546875 C 11.707031 -9.429688 12.222656 -8.53125 13.140625 -7.84375 C 14.066406 -7.15625 15.203125 -6.8125 16.546875 -6.8125 C 17.773438 -6.8125 18.726562 -7.050781 19.40625 -7.53125 C 20.082031 -8.007812 20.421875 -8.632812 20.421875 -9.40625 C 20.421875 -10.320312 19.9375 -11 18.96875 -11.4375 C 18.007812 -11.882812 16.453125 -12.378906 14.296875 -12.921875 C 11.992188 -13.453125 10.070312 -14.015625 8.53125 -14.609375 C 7 -15.210938 5.675781 -16.15625 4.5625 -17.4375 C 3.445312 -18.726562 2.890625 -20.472656 2.890625 -22.671875 C 2.890625 -24.515625 3.394531 -26.191406 4.40625 -27.703125 C 5.425781 -29.222656 6.925781 -30.425781 8.90625 -31.3125 C 10.882812 -32.195312 13.238281 -32.640625 15.96875 -32.640625 C 20.007812 -32.640625 23.191406 -31.640625 25.515625 -29.640625 C 27.847656 -27.640625 29.1875 -24.988281 29.53125 -21.6875 L 20.421875 -21.6875 C 20.265625 -22.800781 19.769531 -23.679688 18.9375 -24.328125 C 18.113281 -24.984375 17.03125 -25.3125 15.6875 -25.3125 C 14.53125 -25.3125 13.644531 -25.085938 13.03125 -24.640625 C 12.414062 -24.203125 12.109375 -23.601562 12.109375 -22.84375 C 12.109375 -21.914062 12.597656 -21.21875 13.578125 -20.75 C 14.554688 -20.289062 16.085938 -19.832031 18.171875 -19.375 C 20.554688 -18.757812 22.492188 -18.15625 23.984375 -17.5625 C 25.484375 -16.96875 26.800781 -16.003906 27.9375 -14.671875 C 29.070312 -13.347656 29.660156 -11.570312 29.703125 -9.34375 C 29.703125 -7.457031 29.171875 -5.773438 28.109375 -4.296875 C 27.054688 -2.816406 25.539062 -1.648438 23.5625 -0.796875 C 21.582031 0.046875 19.285156 0.46875 16.671875 0.46875 Z M 16.671875 0.46875 "/></g></g></g><g fill="#0066f2" fill-opacity="1"><g transform="translate(245.218307, 61.553305)"><g><path d="M 33.90625 -16.609375 C 33.90625 -15.679688 33.847656 -14.71875 33.734375 -13.71875 L 11.421875 -13.71875 C 11.578125 -11.726562 12.21875 -10.203125 13.34375 -9.140625 C 14.476562 -8.085938 15.875 -7.5625 17.53125 -7.5625 C 19.988281 -7.5625 21.703125 -8.597656 22.671875 -10.671875 L 33.15625 -10.671875 C 32.625 -8.554688 31.65625 -6.648438 30.25 -4.953125 C 28.84375 -3.265625 27.082031 -1.9375 24.96875 -0.96875 C 22.851562 -0.0078125 20.488281 0.46875 17.875 0.46875 C 14.726562 0.46875 11.921875 -0.203125 9.453125 -1.546875 C 6.992188 -2.898438 5.070312 -4.828125 3.6875 -7.328125 C 2.300781 -9.828125 1.609375 -12.75 1.609375 -16.09375 C 1.609375 -19.4375 2.289062 -22.359375 3.65625 -24.859375 C 5.019531 -27.359375 6.929688 -29.28125 9.390625 -30.625 C 11.859375 -31.96875 14.6875 -32.640625 17.875 -32.640625 C 20.988281 -32.640625 23.753906 -31.984375 26.171875 -30.671875 C 28.597656 -29.367188 30.492188 -27.503906 31.859375 -25.078125 C 33.222656 -22.660156 33.90625 -19.835938 33.90625 -16.609375 Z M 23.8125 -19.203125 C 23.8125 -20.898438 23.234375 -22.242188 22.078125 -23.234375 C 20.929688 -24.234375 19.492188 -24.734375 17.765625 -24.734375 C 16.109375 -24.734375 14.710938 -24.253906 13.578125 -23.296875 C 12.441406 -22.335938 11.742188 -20.972656 11.484375 -19.203125 Z M 23.8125 -19.203125 "/></g></g></g><g fill="#0066f2" fill-opacity="1"><g transform="translate(279.586613, 61.553305)"><g><path d="M 13.4375 -26.8125 C 14.59375 -28.582031 16.035156 -29.976562 17.765625 -31 C 19.492188 -32.019531 21.414062 -32.53125 23.53125 -32.53125 L 23.53125 -22.09375 L 20.8125 -22.09375 C 18.351562 -22.09375 16.507812 -21.5625 15.28125 -20.5 C 14.050781 -19.445312 13.4375 -17.59375 13.4375 -14.9375 L 13.4375 0 L 3.578125 0 L 3.578125 -32.1875 L 13.4375 -32.1875 Z M 13.4375 -26.8125 "/></g></g></g><g fill="#0066f2" fill-opacity="1"><g transform="translate(303.11387, 61.553305)"><g><path d="M 18.046875 -9.234375 L 25.03125 -32.1875 L 35.53125 -32.1875 L 24.109375 0 L 11.9375 0 L 0.515625 -32.1875 L 11.078125 -32.1875 Z M 18.046875 -9.234375 "/></g></g></g><g fill="#0066f2" fill-opacity="1"><g transform="translate(338.058825, 61.553305)"><g><path d="M 33.90625 -16.609375 C 33.90625 -15.679688 33.847656 -14.71875 33.734375 -13.71875 L 11.421875 -13.71875 C 11.578125 -11.726562 12.21875 -10.203125 13.34375 -9.140625 C 14.476562 -8.085938 15.875 -7.5625 17.53125 -7.5625 C 19.988281 -7.5625 21.703125 -8.597656 22.671875 -10.671875 L 33.15625 -10.671875 C 32.625 -8.554688 31.65625 -6.648438 30.25 -4.953125 C 28.84375 -3.265625 27.082031 -1.9375 24.96875 -0.96875 C 22.851562 -0.0078125 20.488281 0.46875 17.875 0.46875 C 14.726562 0.46875 11.921875 -0.203125 9.453125 -1.546875 C 6.992188 -2.898438 5.070312 -4.828125 3.6875 -7.328125 C 2.300781 -9.828125 1.609375 -12.75 1.609375 -16.09375 C 1.609375 -19.4375 2.289062 -22.359375 3.65625 -24.859375 C 5.019531 -27.359375 6.929688 -29.28125 9.390625 -30.625 C 11.859375 -31.96875 14.6875 -32.640625 17.875 -32.640625 C 20.988281 -32.640625 23.753906 -31.984375 26.171875 -30.671875 C 28.597656 -29.367188 30.492188 -27.503906 31.859375 -25.078125 C 33.222656 -22.660156 33.90625 -19.835938 33.90625 -16.609375 Z M 23.8125 -19.203125 C 23.8125 -20.898438 23.234375 -22.242188 22.078125 -23.234375 C 20.929688 -24.234375 19.492188 -24.734375 17.765625 -24.734375 C 16.109375 -24.734375 14.710938 -24.253906 13.578125 -23.296875 C 12.441406 -22.335938 11.742188 -20.972656 11.484375 -19.203125 Z M 23.8125 -19.203125 "/></g></g></g><g clip-path="url(#b16879f212)"><path fill="#ffffff" d="M 124.195312 33.71875 C 125.15625 33.71875 126.101562 33.835938 127.03125 34.0625 C 127.964844 34.292969 128.855469 34.628906 129.703125 35.074219 C 130.554688 35.515625 131.339844 36.054688 132.058594 36.691406 C 132.777344 37.324219 133.410156 38.035156 133.957031 38.824219 L 130.433594 42.222656 L 140.636719 42.222656 L 140.636719 32.019531 L 137.234375 35.613281 C 136.742188 34.96875 136.203125 34.367188 135.617188 33.800781 C 135.035156 33.238281 134.414062 32.71875 133.753906 32.25 C 133.09375 31.777344 132.402344 31.355469 131.679688 30.984375 C 130.957031 30.617188 130.210938 30.300781 129.441406 30.042969 C 128.671875 29.785156 127.886719 29.582031 127.089844 29.441406 C 126.289062 29.296875 125.484375 29.214844 124.671875 29.191406 C 123.863281 29.167969 123.054688 29.203125 122.246094 29.300781 C 121.441406 29.398438 120.648438 29.550781 119.863281 29.765625 C 119.082031 29.980469 118.316406 30.25 117.574219 30.578125 C 116.832031 30.90625 116.117188 31.285156 115.429688 31.71875 C 114.746094 32.148438 114.09375 32.632812 113.476562 33.160156 C 112.863281 33.691406 112.289062 34.261719 111.757812 34.875 C 111.230469 35.488281 110.746094 36.140625 110.3125 36.824219 C 109.878906 37.511719 109.496094 38.222656 109.167969 38.964844 C 108.839844 39.707031 108.566406 40.472656 108.351562 41.253906 C 108.136719 42.035156 107.976562 42.828125 107.878906 43.636719 L 112.363281 44.328125 C 112.445312 43.605469 112.589844 42.894531 112.796875 42.199219 C 113.007812 41.503906 113.277344 40.832031 113.609375 40.1875 C 113.945312 39.539062 114.332031 38.929688 114.777344 38.355469 C 115.21875 37.777344 115.710938 37.25 116.253906 36.761719 C 116.792969 36.277344 117.375 35.847656 117.996094 35.46875 C 118.617188 35.089844 119.265625 34.769531 119.945312 34.507812 C 120.621094 34.25 121.320312 34.050781 122.035156 33.917969 C 122.75 33.789062 123.46875 33.722656 124.195312 33.71875 Z M 124.195312 33.71875 " fill-opacity="1" fill-rule="nonzero"/></g><g clip-path="url(#e039316c7a)"><path fill="#ffffff" d="M 124.195312 62.066406 C 125.191406 62.066406 126.179688 61.976562 127.160156 61.796875 C 128.136719 61.617188 129.09375 61.351562 130.023438 61 C 130.953125 60.644531 131.847656 60.210938 132.699219 59.699219 C 133.550781 59.183594 134.347656 58.59375 135.09375 57.933594 C 135.839844 57.273438 136.519531 56.554688 137.132812 55.769531 C 137.746094 54.984375 138.285156 54.152344 138.75 53.269531 C 139.210938 52.390625 139.589844 51.472656 139.886719 50.523438 C 140.183594 49.574219 140.390625 48.605469 140.511719 47.613281 L 136.027344 46.921875 C 135.894531 48.128906 135.589844 49.285156 135.101562 50.394531 C 134.617188 51.503906 133.980469 52.519531 133.183594 53.433594 C 132.390625 54.347656 131.476562 55.121094 130.445312 55.757812 C 129.414062 56.394531 128.3125 56.863281 127.140625 57.160156 C 125.964844 57.460938 124.773438 57.578125 123.5625 57.511719 C 122.355469 57.449219 121.179688 57.203125 120.046875 56.78125 C 118.910156 56.359375 117.863281 55.777344 116.90625 55.035156 C 115.949219 54.292969 115.125 53.421875 114.433594 52.429688 L 117.960938 49.027344 L 107.753906 49.027344 L 107.753906 59.230469 L 111.15625 55.636719 C 111.921875 56.636719 112.792969 57.539062 113.769531 58.339844 C 114.742188 59.140625 115.792969 59.820312 116.925781 60.375 C 118.054688 60.933594 119.234375 61.355469 120.464844 61.640625 C 121.691406 61.925781 122.933594 62.066406 124.195312 62.066406 Z M 124.195312 62.066406 " fill-opacity="1" fill-rule="nonzero"/></g><g clip-path="url(#855c0eccfd)"><path fill="#ffffff" d="M 124.195312 59.796875 C 122.320312 59.800781 120.511719 59.441406 118.777344 58.726562 C 117.042969 58.007812 115.511719 56.984375 114.1875 55.65625 C 113.976562 55.445312 107.753906 49.027344 107.753906 49.027344 L 107.753906 59.230469 L 111.15625 55.636719 C 111.652344 56.28125 112.191406 56.886719 112.773438 57.449219 C 113.355469 58.011719 113.980469 58.53125 114.640625 59.003906 C 115.300781 59.472656 115.992188 59.894531 116.714844 60.265625 C 117.4375 60.632812 118.183594 60.949219 118.953125 61.207031 C 119.722656 61.464844 120.503906 61.667969 121.304688 61.808594 C 122.101562 61.953125 122.910156 62.035156 123.71875 62.058594 C 124.53125 62.082031 125.339844 62.046875 126.144531 61.949219 C 126.953125 61.855469 127.746094 61.699219 128.527344 61.484375 C 129.3125 61.269531 130.074219 61 130.816406 60.671875 C 131.558594 60.347656 132.273438 59.964844 132.960938 59.535156 C 133.648438 59.101562 134.296875 58.621094 134.914062 58.089844 C 135.53125 57.5625 136.101562 56.988281 136.632812 56.375 C 137.164062 55.761719 137.644531 55.113281 138.082031 54.425781 C 138.515625 53.738281 138.894531 53.027344 139.226562 52.285156 C 139.554688 51.542969 139.824219 50.78125 140.042969 49.996094 C 140.257812 49.214844 140.414062 48.421875 140.511719 47.613281 L 138.269531 47.269531 C 138.171875 48.125 137.996094 48.964844 137.742188 49.789062 C 137.488281 50.609375 137.164062 51.402344 136.765625 52.167969 C 136.367188 52.933594 135.90625 53.652344 135.375 54.332031 C 134.847656 55.011719 134.261719 55.640625 133.617188 56.210938 C 132.972656 56.785156 132.285156 57.292969 131.546875 57.742188 C 130.8125 58.1875 130.042969 58.5625 129.234375 58.871094 C 128.429688 59.175781 127.605469 59.410156 126.757812 59.5625 C 125.910156 59.71875 125.058594 59.796875 124.195312 59.796875 Z M 124.195312 59.796875 " fill-opacity="1" fill-rule="nonzero"/></g><g clip-path="url(#afd27db663)"><path fill="#ffffff" d="M 140.636719 32.019531 L 137.234375 35.613281 C 136.742188 34.96875 136.203125 34.367188 135.617188 33.800781 C 135.035156 33.238281 134.414062 32.71875 133.753906 32.25 C 133.09375 31.777344 132.402344 31.355469 131.679688 30.984375 C 130.957031 30.617188 130.210938 30.300781 129.441406 30.042969 C 128.671875 29.785156 127.886719 29.582031 127.089844 29.441406 C 126.289062 29.296875 125.484375 29.214844 124.671875 29.191406 C 123.863281 29.167969 123.054688 29.203125 122.246094 29.300781 C 121.441406 29.398438 120.648438 29.550781 119.863281 29.765625 C 119.082031 29.980469 118.316406 30.25 117.574219 30.578125 C 116.832031 30.90625 116.117188 31.285156 115.429688 31.71875 C 114.746094 32.148438 114.09375 32.632812 113.476562 33.160156 C 112.863281 33.691406 112.289062 34.261719 111.757812 34.875 C 111.230469 35.488281 110.746094 36.140625 110.3125 36.824219 C 109.878906 37.511719 109.496094 38.222656 109.167969 38.964844 C 108.839844 39.707031 108.566406 40.472656 108.351562 41.253906 C 108.136719 42.035156 107.976562 42.828125 107.878906 43.636719 L 110.121094 43.980469 C 110.277344 42.660156 110.609375 41.382812 111.125 40.15625 C 111.636719 38.925781 112.308594 37.792969 113.144531 36.753906 C 113.976562 35.71875 114.9375 34.8125 116.023438 34.046875 C 117.113281 33.277344 118.285156 32.675781 119.542969 32.238281 C 120.800781 31.800781 122.09375 31.546875 123.421875 31.472656 C 124.75 31.402344 126.066406 31.515625 127.363281 31.8125 C 128.660156 32.109375 129.890625 32.582031 131.054688 33.226562 C 132.222656 33.871094 133.273438 34.664062 134.214844 35.605469 C 136.011719 37.402344 140.636719 42.222656 140.636719 42.222656 Z M 140.636719 32.019531 " fill-opacity="1" fill-rule="nonzero"/></g><g clip-path="url(#e72d1f5cbe)"><path fill="#ffffff" d="M 117.628906 44.90625 C 117.0625 44.40625 116.753906 43.726562 116.695312 42.871094 C 116.679688 42.628906 116.675781 42.308594 116.675781 41.90625 C 116.675781 41.476562 116.679688 41.132812 116.695312 40.878906 C 116.75 39.992188 117.050781 39.292969 117.59375 38.777344 C 118.140625 38.261719 118.902344 38.003906 119.890625 38.003906 C 120.875 38.003906 121.644531 38.261719 122.195312 38.777344 C 122.742188 39.292969 123.046875 39.992188 123.101562 40.878906 C 123.132812 41.390625 123.148438 41.734375 123.148438 41.90625 C 123.148438 42.066406 123.132812 42.386719 123.101562 42.871094 C 123.046875 43.730469 122.734375 44.40625 122.171875 44.90625 C 121.605469 45.40625 120.84375 45.65625 119.890625 45.65625 C 118.945312 45.65625 118.191406 45.40625 117.628906 44.90625 Z M 117.808594 53 C 117.71875 52.914062 117.675781 52.8125 117.683594 52.6875 C 117.679688 52.597656 117.710938 52.519531 117.765625 52.453125 L 128.332031 38.519531 C 128.449219 38.378906 128.554688 38.273438 128.65625 38.210938 C 128.753906 38.144531 128.898438 38.113281 129.085938 38.113281 L 130.21875 38.113281 C 130.363281 38.113281 130.472656 38.152344 130.550781 38.230469 C 130.636719 38.316406 130.675781 38.421875 130.667969 38.542969 C 130.667969 38.628906 130.640625 38.707031 130.585938 38.777344 L 120.019531 52.707031 C 119.925781 52.828125 119.820312 52.933594 119.695312 53.019531 C 119.597656 53.085938 119.460938 53.117188 119.289062 53.117188 L 118.152344 53.117188 C 118.007812 53.117188 117.894531 53.078125 117.808594 53 Z M 120.800781 43.683594 C 120.992188 43.441406 121.109375 43.136719 121.152344 42.765625 C 121.179688 42.277344 121.195312 41.976562 121.195312 41.863281 C 121.195312 41.707031 121.179688 41.414062 121.152344 40.984375 C 121.125 40.613281 121.011719 40.304688 120.8125 40.054688 C 120.609375 39.800781 120.304688 39.675781 119.890625 39.675781 C 119.488281 39.675781 119.1875 39.800781 118.988281 40.054688 C 118.789062 40.304688 118.671875 40.613281 118.644531 40.984375 C 118.632812 41.199219 118.625 41.492188 118.625 41.863281 C 118.625 42.21875 118.632812 42.519531 118.644531 42.765625 C 118.671875 43.121094 118.785156 43.425781 118.976562 43.675781 C 119.171875 43.925781 119.472656 44.050781 119.890625 44.050781 C 120.304688 44.050781 120.605469 43.929688 120.800781 43.683594 Z M 126.203125 52.464844 C 125.636719 51.941406 125.324219 51.242188 125.269531 50.371094 C 125.253906 50.128906 125.246094 49.808594 125.246094 49.410156 C 125.246094 48.996094 125.253906 48.660156 125.269531 48.402344 C 125.324219 47.515625 125.625 46.816406 126.167969 46.300781 C 126.710938 45.785156 127.476562 45.527344 128.460938 45.527344 C 129.464844 45.527344 130.234375 45.785156 130.777344 46.300781 C 131.320312 46.816406 131.621094 47.515625 131.675781 48.402344 C 131.707031 48.914062 131.722656 49.25 131.71875 49.410156 C 131.71875 49.566406 131.707031 49.886719 131.675781 50.371094 C 131.621094 51.246094 131.308594 51.941406 130.746094 52.464844 C 130.179688 52.984375 129.417969 53.246094 128.460938 53.246094 C 127.519531 53.246094 126.765625 52.984375 126.203125 52.464844 Z M 129.394531 51.199219 C 129.589844 50.949219 129.699219 50.644531 129.726562 50.289062 C 129.753906 49.800781 129.769531 49.496094 129.769531 49.363281 C 129.769531 49.222656 129.753906 48.9375 129.726562 48.507812 C 129.699219 48.136719 129.582031 47.824219 129.382812 47.574219 C 129.183594 47.324219 128.878906 47.199219 128.460938 47.199219 C 128.0625 47.199219 127.761719 47.324219 127.5625 47.574219 C 127.363281 47.824219 127.246094 48.136719 127.21875 48.507812 C 127.207031 48.722656 127.199219 49.007812 127.199219 49.363281 C 127.199219 49.738281 127.207031 50.042969 127.21875 50.289062 C 127.246094 50.644531 127.359375 50.949219 127.550781 51.199219 C 127.746094 51.449219 128.046875 51.574219 128.460938 51.574219 C 128.890625 51.574219 129.203125 51.449219 129.394531 51.199219 Z M 129.394531 51.199219 " fill-opacity="1" fill-rule="nonzero"/></g></g></g></svg>